<svg width="293" height="30" viewBox="0 0 293 30" fill="none" xmlns="http://www.w3.org/2000/svg">
<rect width="293" height="30" fill="#FBFEFF"/>
<rect width="17" height="30" fill="#7442C8"/>
<path d="M30.1136 23V5.54545H36.2159C37.4318 5.54545 38.4347 5.75568 39.2244 6.17614C40.0142 6.59091 40.6023 7.15057 40.9886 7.85511C41.375 8.55398 41.5682 9.32954 41.5682 10.1818C41.5682 10.9318 41.4347 11.5511 41.1676 12.0398C40.9063 12.5284 40.5597 12.9148 40.1278 13.1989C39.7017 13.483 39.2386 13.6932 38.7386 13.8295V14C39.2727 14.0341 39.8097 14.2216 40.3494 14.5625C40.8892 14.9034 41.3409 15.392 41.7045 16.0284C42.0682 16.6648 42.25 17.4432 42.25 18.3636C42.25 19.2386 42.0511 20.0256 41.6534 20.7244C41.2557 21.4233 40.6278 21.9773 39.7699 22.3864C38.9119 22.7955 37.7955 23 36.4205 23H30.1136ZM32.2273 21.125H36.4205C37.8011 21.125 38.7813 20.858 39.3608 20.3239C39.946 19.7841 40.2386 19.1307 40.2386 18.3636C40.2386 17.7727 40.0881 17.2273 39.7869 16.7273C39.4858 16.2216 39.0568 15.8182 38.5 15.517C37.9432 15.2102 37.2841 15.0568 36.5227 15.0568H32.2273V21.125ZM32.2273 13.2159H36.1477C36.7841 13.2159 37.358 13.0909 37.8693 12.8409C38.3864 12.5909 38.7955 12.2386 39.0966 11.7841C39.4034 11.3295 39.5568 10.7955 39.5568 10.1818C39.5568 9.41477 39.2898 8.7642 38.7557 8.23011C38.2216 7.69034 37.375 7.42045 36.2159 7.42045H32.2273V13.2159ZM45.4503 23V9.90909H47.4616V23H45.4503ZM46.473 7.72727C46.081 7.72727 45.7429 7.59375 45.4588 7.3267C45.1804 7.05966 45.0412 6.73864 45.0412 6.36364C45.0412 5.98864 45.1804 5.66761 45.4588 5.40057C45.7429 5.13352 46.081 5 46.473 5C46.8651 5 47.2003 5.13352 47.4787 5.40057C47.7628 5.66761 47.9048 5.98864 47.9048 6.36364C47.9048 6.73864 47.7628 7.05966 47.4787 7.3267C47.2003 7.59375 46.8651 7.72727 46.473 7.72727ZM56.6342 23.2727C55.3729 23.2727 54.2848 22.9943 53.37 22.4375C52.4609 21.875 51.7592 21.0909 51.2649 20.0852C50.7763 19.0739 50.532 17.8977 50.532 16.5568C50.532 15.2159 50.7763 14.0341 51.2649 13.0114C51.7592 11.983 52.4467 11.1818 53.3274 10.608C54.2138 10.0284 55.2479 9.73864 56.4297 9.73864C57.1115 9.73864 57.7848 9.85227 58.4496 10.0795C59.1143 10.3068 59.7195 10.6761 60.2649 11.1875C60.8104 11.6932 61.245 12.3636 61.5689 13.1989C61.8928 14.0341 62.0547 15.0625 62.0547 16.2841V17.1364H51.9638V15.3977H60.0092C60.0092 14.6591 59.8615 14 59.5661 13.4205C59.2763 12.8409 58.8615 12.3835 58.3217 12.0483C57.7876 11.7131 57.157 11.5455 56.4297 11.5455C55.6286 11.5455 54.9354 11.7443 54.3501 12.142C53.7706 12.5341 53.3246 13.0455 53.0121 13.6761C52.6996 14.3068 52.5433 14.983 52.5433 15.7045V16.8636C52.5433 17.8523 52.7138 18.6903 53.0547 19.3778C53.4013 20.0597 53.8814 20.5795 54.495 20.9375C55.1087 21.2898 55.8217 21.4659 56.6342 21.4659C57.1626 21.4659 57.6399 21.392 58.0661 21.2443C58.4979 21.0909 58.87 20.8636 59.1825 20.5625C59.495 20.2557 59.7365 19.875 59.907 19.4205L61.8501 19.9659C61.6456 20.625 61.3018 21.2045 60.8189 21.7045C60.3359 22.1989 59.7393 22.5852 59.0291 22.8636C58.3189 23.1364 57.5206 23.2727 56.6342 23.2727ZM67.1257 15.125V23H65.1143V9.90909H67.0575V11.9545H67.228C67.5348 11.2898 68.0007 10.7557 68.6257 10.3523C69.2507 9.94318 70.0575 9.73864 71.0462 9.73864C71.9325 9.73864 72.7081 9.92045 73.3729 10.2841C74.0376 10.642 74.5547 11.1875 74.924 11.9205C75.2933 12.6477 75.478 13.5682 75.478 14.6818V23H73.4666V14.8182C73.4666 13.7898 73.1996 12.9886 72.6655 12.4148C72.1314 11.8352 71.3984 11.5455 70.4666 11.5455C69.8246 11.5455 69.2507 11.6847 68.745 11.9631C68.245 12.2415 67.8501 12.6477 67.5604 13.1818C67.2706 13.7159 67.1257 14.3636 67.1257 15.125ZM84.642 23.2727C83.3807 23.2727 82.2926 22.9943 81.3778 22.4375C80.4688 21.875 79.767 21.0909 79.2727 20.0852C78.7841 19.0739 78.5398 17.8977 78.5398 16.5568C78.5398 15.2159 78.7841 14.0341 79.2727 13.0114C79.767 11.983 80.4545 11.1818 81.3352 10.608C82.2216 10.0284 83.2557 9.73864 84.4375 9.73864C85.1193 9.73864 85.7926 9.85227 86.4574 10.0795C87.1222 10.3068 87.7273 10.6761 88.2727 11.1875C88.8182 11.6932 89.2528 12.3636 89.5767 13.1989C89.9006 14.0341 90.0625 15.0625 90.0625 16.2841V17.1364H79.9716V15.3977H88.017C88.017 14.6591 87.8693 14 87.5739 13.4205C87.2841 12.8409 86.8693 12.3835 86.3295 12.0483C85.7955 11.7131 85.1648 11.5455 84.4375 11.5455C83.6364 11.5455 82.9432 11.7443 82.358 12.142C81.7784 12.5341 81.3324 13.0455 81.0199 13.6761C80.7074 14.3068 80.5511 14.983 80.5511 15.7045V16.8636C80.5511 17.8523 80.7216 18.6903 81.0625 19.3778C81.4091 20.0597 81.8892 20.5795 82.5028 20.9375C83.1165 21.2898 83.8295 21.4659 84.642 21.4659C85.1705 21.4659 85.6477 21.392 86.0739 21.2443C86.5057 21.0909 86.8778 20.8636 87.1903 20.5625C87.5028 20.2557 87.7443 19.875 87.9148 19.4205L89.858 19.9659C89.6534 20.625 89.3097 21.2045 88.8267 21.7045C88.3438 22.1989 87.7472 22.5852 87.0369 22.8636C86.3267 23.1364 85.5284 23.2727 84.642 23.2727ZM102.395 12.8409L100.588 13.3523C100.474 13.0511 100.307 12.7585 100.085 12.4744C99.8693 12.1847 99.5739 11.946 99.1989 11.7585C98.8239 11.571 98.3438 11.4773 97.7585 11.4773C96.9574 11.4773 96.2898 11.6619 95.7557 12.0312C95.2273 12.3949 94.9631 12.858 94.9631 13.4205C94.9631 13.9205 95.1449 14.3153 95.5085 14.6051C95.8722 14.8949 96.4403 15.1364 97.2131 15.3295L99.1562 15.8068C100.327 16.0909 101.199 16.5256 101.773 17.1108C102.347 17.6903 102.634 18.4375 102.634 19.3523C102.634 20.1023 102.418 20.7727 101.986 21.3636C101.56 21.9545 100.963 22.4205 100.196 22.7614C99.429 23.1023 98.5369 23.2727 97.5199 23.2727C96.1847 23.2727 95.0795 22.983 94.2045 22.4034C93.3295 21.8239 92.7756 20.9773 92.5426 19.8636L94.4517 19.3864C94.6335 20.0909 94.9773 20.6193 95.483 20.9716C95.9943 21.3239 96.6619 21.5 97.4858 21.5C98.4233 21.5 99.1676 21.3011 99.7188 20.9034C100.276 20.5 100.554 20.017 100.554 19.4545C100.554 19 100.395 18.6193 100.077 18.3125C99.7585 18 99.2699 17.767 98.6108 17.6136L96.429 17.1023C95.2301 16.8182 94.3494 16.3778 93.7869 15.7812C93.2301 15.179 92.9517 14.4261 92.9517 13.5227C92.9517 12.7841 93.1591 12.1307 93.5739 11.5625C93.9943 10.9943 94.5653 10.5483 95.2869 10.2244C96.0142 9.90057 96.8381 9.73864 97.7585 9.73864C99.054 9.73864 100.071 10.0227 100.81 10.5909C101.554 11.1591 102.082 11.9091 102.395 12.8409ZM111.354 9.90909V11.6136H104.57V9.90909H111.354ZM106.548 6.77273H108.559V19.25C108.559 19.8182 108.641 20.2443 108.806 20.5284C108.977 20.8068 109.192 20.9943 109.454 21.0909C109.721 21.1818 110.002 21.2273 110.298 21.2273C110.519 21.2273 110.701 21.2159 110.843 21.1932C110.985 21.1648 111.099 21.142 111.184 21.125L111.593 22.9318C111.457 22.983 111.266 23.0341 111.022 23.0852C110.778 23.142 110.468 23.1705 110.093 23.1705C109.525 23.1705 108.968 23.0483 108.423 22.804C107.883 22.5597 107.434 22.1875 107.076 21.6875C106.724 21.1875 106.548 20.5568 106.548 19.7955V6.77273ZM118.232 23.3068C117.403 23.3068 116.65 23.1506 115.974 22.8381C115.298 22.5199 114.761 22.0625 114.363 21.4659C113.965 20.8636 113.766 20.1364 113.766 19.2841C113.766 18.5341 113.914 17.9261 114.21 17.4602C114.505 16.9886 114.9 16.6193 115.394 16.3523C115.888 16.0852 116.434 15.8864 117.031 15.7557C117.633 15.6193 118.238 15.5114 118.846 15.4318C119.641 15.3295 120.286 15.2528 120.781 15.2017C121.281 15.1449 121.644 15.0511 121.871 14.9205C122.104 14.7898 122.221 14.5625 122.221 14.2386V14.1705C122.221 13.3295 121.991 12.6761 121.531 12.2102C121.076 11.7443 120.386 11.5114 119.46 11.5114C118.499 11.5114 117.746 11.7216 117.201 12.142C116.656 12.5625 116.272 13.0114 116.05 13.4886L114.141 12.8068C114.482 12.0114 114.937 11.392 115.505 10.9489C116.079 10.5 116.704 10.1875 117.38 10.0114C118.062 9.82955 118.732 9.73864 119.391 9.73864C119.812 9.73864 120.295 9.78977 120.84 9.89204C121.391 9.98864 121.923 10.1903 122.434 10.4972C122.951 10.804 123.38 11.267 123.721 11.8864C124.062 12.5057 124.232 13.3352 124.232 14.375V23H122.221V21.2273H122.119C121.982 21.5114 121.755 21.8153 121.437 22.1392C121.119 22.4631 120.695 22.7386 120.167 22.9659C119.638 23.1932 118.994 23.3068 118.232 23.3068ZM118.539 21.5C119.335 21.5 120.005 21.3438 120.55 21.0312C121.102 20.7188 121.516 20.3153 121.795 19.821C122.079 19.3267 122.221 18.8068 122.221 18.2614V16.4205C122.136 16.5227 121.948 16.6165 121.658 16.7017C121.374 16.7812 121.045 16.8523 120.67 16.9148C120.3 16.9716 119.94 17.0227 119.587 17.0682C119.241 17.108 118.96 17.142 118.744 17.1705C118.221 17.2386 117.732 17.3494 117.278 17.5028C116.829 17.6506 116.465 17.875 116.187 18.1761C115.914 18.4716 115.778 18.875 115.778 19.3864C115.778 20.0852 116.036 20.6136 116.553 20.9716C117.076 21.3239 117.738 21.5 118.539 21.5ZM127.903 23V9.90909H129.847V11.8864H129.983C130.222 11.2386 130.653 10.7131 131.278 10.3097C131.903 9.90625 132.608 9.70454 133.392 9.70454C133.54 9.70454 133.724 9.70739 133.946 9.71307C134.168 9.71875 134.335 9.72727 134.449 9.73864V11.7841C134.381 11.767 134.224 11.7415 133.98 11.7074C133.741 11.6676 133.489 11.6477 133.222 11.6477C132.585 11.6477 132.017 11.7812 131.517 12.0483C131.023 12.3097 130.631 12.6733 130.341 13.1392C130.057 13.5994 129.915 14.125 129.915 14.7159V23H127.903ZM145.969 5.54545V23H143.856V5.54545H145.969ZM151.946 15.125V23H149.935V9.90909H151.878V11.9545H152.048C152.355 11.2898 152.821 10.7557 153.446 10.3523C154.071 9.94318 154.878 9.73864 155.866 9.73864C156.753 9.73864 157.528 9.92045 158.193 10.2841C158.858 10.642 159.375 11.1875 159.744 11.9205C160.114 12.6477 160.298 13.5682 160.298 14.6818V23H158.287V14.8182C158.287 13.7898 158.02 12.9886 157.486 12.4148C156.952 11.8352 156.219 11.5455 155.287 11.5455C154.645 11.5455 154.071 11.6847 153.565 11.9631C153.065 12.2415 152.67 12.6477 152.381 13.1818C152.091 13.7159 151.946 14.3636 151.946 15.125ZM169.667 9.90909V11.6136H162.883V9.90909H169.667ZM164.86 6.77273H166.871V19.25C166.871 19.8182 166.954 20.2443 167.119 20.5284C167.289 20.8068 167.505 20.9943 167.766 21.0909C168.033 21.1818 168.315 21.2273 168.61 21.2273C168.832 21.2273 169.013 21.2159 169.156 21.1932C169.298 21.1648 169.411 21.142 169.496 21.125L169.906 22.9318C169.769 22.983 169.579 23.0341 169.335 23.0852C169.09 23.142 168.781 23.1705 168.406 23.1705C167.837 23.1705 167.281 23.0483 166.735 22.804C166.195 22.5597 165.746 22.1875 165.388 21.6875C165.036 21.1875 164.86 20.5568 164.86 19.7955V6.77273ZM178.04 23.2727C176.779 23.2727 175.691 22.9943 174.776 22.4375C173.867 21.875 173.165 21.0909 172.671 20.0852C172.183 19.0739 171.938 17.8977 171.938 16.5568C171.938 15.2159 172.183 14.0341 172.671 13.0114C173.165 11.983 173.853 11.1818 174.734 10.608C175.62 10.0284 176.654 9.73864 177.836 9.73864C178.518 9.73864 179.191 9.85227 179.856 10.0795C180.521 10.3068 181.126 10.6761 181.671 11.1875C182.217 11.6932 182.651 12.3636 182.975 13.1989C183.299 14.0341 183.461 15.0625 183.461 16.2841V17.1364H173.37V15.3977H181.415C181.415 14.6591 181.268 14 180.972 13.4205C180.683 12.8409 180.268 12.3835 179.728 12.0483C179.194 11.7131 178.563 11.5455 177.836 11.5455C177.035 11.5455 176.342 11.7443 175.756 12.142C175.177 12.5341 174.731 13.0455 174.418 13.6761C174.106 14.3068 173.95 14.983 173.95 15.7045V16.8636C173.95 17.8523 174.12 18.6903 174.461 19.3778C174.808 20.0597 175.288 20.5795 175.901 20.9375C176.515 21.2898 177.228 21.4659 178.04 21.4659C178.569 21.4659 179.046 21.392 179.472 21.2443C179.904 21.0909 180.276 20.8636 180.589 20.5625C180.901 20.2557 181.143 19.875 181.313 19.4205L183.256 19.9659C183.052 20.625 182.708 21.2045 182.225 21.7045C181.742 22.1989 181.146 22.5852 180.435 22.8636C179.725 23.1364 178.927 23.2727 178.04 23.2727ZM191.805 28.1818C190.833 28.1818 189.998 28.0568 189.299 27.8068C188.6 27.5625 188.018 27.2386 187.552 26.8352C187.092 26.4375 186.725 26.0114 186.452 25.5568L188.055 24.4318C188.237 24.6705 188.467 24.9432 188.745 25.25C189.023 25.5625 189.404 25.8324 189.887 26.0597C190.376 26.2926 191.015 26.4091 191.805 26.4091C192.862 26.4091 193.734 26.1534 194.421 25.642C195.109 25.1307 195.452 24.3295 195.452 23.2386V20.5795H195.282C195.134 20.8182 194.924 21.1136 194.651 21.4659C194.384 21.8125 193.998 22.1222 193.492 22.3949C192.992 22.6619 192.316 22.7955 191.464 22.7955C190.407 22.7955 189.458 22.5455 188.617 22.0455C187.782 21.5455 187.12 20.8182 186.631 19.8636C186.148 18.9091 185.907 17.75 185.907 16.3864C185.907 15.0455 186.143 13.8778 186.614 12.8835C187.086 11.8835 187.742 11.1108 188.583 10.5653C189.424 10.0142 190.396 9.73864 191.498 9.73864C192.35 9.73864 193.026 9.88068 193.526 10.1648C194.032 10.4432 194.418 10.7614 194.685 11.1193C194.958 11.4716 195.168 11.7614 195.316 11.9886H195.521V9.90909H197.464V23.375C197.464 24.5 197.208 25.4148 196.697 26.1193C196.191 26.8295 195.509 27.3494 194.651 27.679C193.799 28.0142 192.85 28.1818 191.805 28.1818ZM191.737 20.9886C192.543 20.9886 193.225 20.804 193.782 20.4347C194.339 20.0653 194.762 19.5341 195.052 18.8409C195.342 18.1477 195.487 17.3182 195.487 16.3523C195.487 15.4091 195.344 14.5767 195.06 13.8551C194.776 13.1335 194.356 12.5682 193.799 12.1591C193.242 11.75 192.555 11.5455 191.737 11.5455C190.884 11.5455 190.174 11.7614 189.606 12.1932C189.043 12.625 188.62 13.2045 188.336 13.9318C188.058 14.6591 187.918 15.4659 187.918 16.3523C187.918 17.2614 188.06 18.0653 188.344 18.7642C188.634 19.4574 189.06 20.0028 189.623 20.4006C190.191 20.7926 190.896 20.9886 191.737 20.9886ZM201.146 23V9.90909H203.089V11.8864H203.225C203.464 11.2386 203.896 10.7131 204.521 10.3097C205.146 9.90625 205.85 9.70454 206.634 9.70454C206.782 9.70454 206.967 9.70739 207.188 9.71307C207.41 9.71875 207.577 9.72727 207.691 9.73864V11.7841C207.623 11.767 207.467 11.7415 207.222 11.7074C206.984 11.6676 206.731 11.6477 206.464 11.6477C205.827 11.6477 205.259 11.7812 204.759 12.0483C204.265 12.3097 203.873 12.6733 203.583 13.1392C203.299 13.5994 203.157 14.125 203.157 14.7159V23H201.146ZM213.928 23.3068C213.098 23.3068 212.345 23.1506 211.669 22.8381C210.993 22.5199 210.456 22.0625 210.058 21.4659C209.661 20.8636 209.462 20.1364 209.462 19.2841C209.462 18.5341 209.609 17.9261 209.905 17.4602C210.2 16.9886 210.595 16.6193 211.089 16.3523C211.584 16.0852 212.129 15.8864 212.726 15.7557C213.328 15.6193 213.933 15.5114 214.541 15.4318C215.337 15.3295 215.982 15.2528 216.476 15.2017C216.976 15.1449 217.339 15.0511 217.567 14.9205C217.8 14.7898 217.916 14.5625 217.916 14.2386V14.1705C217.916 13.3295 217.686 12.6761 217.226 12.2102C216.771 11.7443 216.081 11.5114 215.155 11.5114C214.195 11.5114 213.442 11.7216 212.896 12.142C212.351 12.5625 211.967 13.0114 211.746 13.4886L209.837 12.8068C210.178 12.0114 210.632 11.392 211.2 10.9489C211.774 10.5 212.399 10.1875 213.075 10.0114C213.757 9.82955 214.428 9.73864 215.087 9.73864C215.507 9.73864 215.99 9.78977 216.536 9.89204C217.087 9.98864 217.618 10.1903 218.129 10.4972C218.646 10.804 219.075 11.267 219.416 11.8864C219.757 12.5057 219.928 13.3352 219.928 14.375V23H217.916V21.2273H217.814C217.678 21.5114 217.45 21.8153 217.132 22.1392C216.814 22.4631 216.391 22.7386 215.862 22.9659C215.334 23.1932 214.689 23.3068 213.928 23.3068ZM214.234 21.5C215.03 21.5 215.7 21.3438 216.246 21.0312C216.797 20.7188 217.212 20.3153 217.49 19.821C217.774 19.3267 217.916 18.8068 217.916 18.2614V16.4205C217.831 16.5227 217.643 16.6165 217.354 16.7017C217.07 16.7812 216.74 16.8523 216.365 16.9148C215.996 16.9716 215.635 17.0227 215.283 17.0682C214.936 17.108 214.655 17.142 214.439 17.1705C213.916 17.2386 213.428 17.3494 212.973 17.5028C212.524 17.6506 212.161 17.875 211.882 18.1761C211.609 18.4716 211.473 18.875 211.473 19.3864C211.473 20.0852 211.732 20.6136 212.249 20.9716C212.771 21.3239 213.433 21.5 214.234 21.5ZM225.61 5.54545V23H223.599V5.54545H225.61Z" fill="black"/>
</svg>
