<svg width="293" height="30" viewBox="0 0 293 30" fill="none" xmlns="http://www.w3.org/2000/svg">
<rect width="293" height="30" fill="#FBFEFF"/>
<rect width="17" height="30" fill="#71BC78"/>
<path d="M44.1591 11H42.0455C41.9205 10.392 41.7017 9.85795 41.3892 9.39773C41.0824 8.9375 40.7074 8.55114 40.2642 8.23864C39.8267 7.92045 39.3409 7.68182 38.8068 7.52273C38.2727 7.36364 37.7159 7.28409 37.1364 7.28409C36.0795 7.28409 35.1222 7.55114 34.2642 8.08523C33.4119 8.61932 32.733 9.40625 32.2273 10.446C31.7273 11.4858 31.4773 12.7614 31.4773 14.2727C31.4773 15.7841 31.7273 17.0597 32.2273 18.0994C32.733 19.1392 33.4119 19.9261 34.2642 20.4602C35.1222 20.9943 36.0795 21.2614 37.1364 21.2614C37.7159 21.2614 38.2727 21.1818 38.8068 21.0227C39.3409 20.8636 39.8267 20.6278 40.2642 20.3153C40.7074 19.9972 41.0824 19.608 41.3892 19.1477C41.7017 18.6818 41.9205 18.1477 42.0455 17.5455H44.1591C44 18.4375 43.7102 19.2358 43.2898 19.9403C42.8693 20.6449 42.3466 21.2443 41.7216 21.7386C41.0966 22.2273 40.3949 22.5994 39.6165 22.8551C38.8438 23.1108 38.017 23.2386 37.1364 23.2386C35.6477 23.2386 34.3239 22.875 33.1648 22.1477C32.0057 21.4205 31.0938 20.3864 30.429 19.0455C29.7642 17.7045 29.4318 16.1136 29.4318 14.2727C29.4318 12.4318 29.7642 10.8409 30.429 9.5C31.0938 8.15909 32.0057 7.125 33.1648 6.39773C34.3239 5.67045 35.6477 5.30682 37.1364 5.30682C38.017 5.30682 38.8438 5.43466 39.6165 5.69034C40.3949 5.94602 41.0966 6.32102 41.7216 6.81534C42.3466 7.30398 42.8693 7.90057 43.2898 8.60511C43.7102 9.30398 44 10.1023 44.1591 11ZM47.3018 23V9.90909H49.3132V23H47.3018ZM48.3246 7.72727C47.9325 7.72727 47.5945 7.59375 47.3104 7.3267C47.032 7.05966 46.8928 6.73864 46.8928 6.36364C46.8928 5.98864 47.032 5.66761 47.3104 5.40057C47.5945 5.13352 47.9325 5 48.3246 5C48.7166 5 49.0518 5.13352 49.3303 5.40057C49.6143 5.66761 49.7564 5.98864 49.7564 6.36364C49.7564 6.73864 49.6143 7.05966 49.3303 7.3267C49.0518 7.59375 48.7166 7.72727 48.3246 7.72727ZM58.4858 23.2727C57.2244 23.2727 56.1364 22.9943 55.2216 22.4375C54.3125 21.875 53.6108 21.0909 53.1165 20.0852C52.6278 19.0739 52.3835 17.8977 52.3835 16.5568C52.3835 15.2159 52.6278 14.0341 53.1165 13.0114C53.6108 11.983 54.2983 11.1818 55.179 10.608C56.0653 10.0284 57.0994 9.73864 58.2812 9.73864C58.9631 9.73864 59.6364 9.85227 60.3011 10.0795C60.9659 10.3068 61.571 10.6761 62.1165 11.1875C62.6619 11.6932 63.0966 12.3636 63.4205 13.1989C63.7443 14.0341 63.9062 15.0625 63.9062 16.2841V17.1364H53.8153V15.3977H61.8608C61.8608 14.6591 61.7131 14 61.4176 13.4205C61.1278 12.8409 60.7131 12.3835 60.1733 12.0483C59.6392 11.7131 59.0085 11.5455 58.2812 11.5455C57.4801 11.5455 56.7869 11.7443 56.2017 12.142C55.6222 12.5341 55.1761 13.0455 54.8636 13.6761C54.5511 14.3068 54.3949 14.983 54.3949 15.7045V16.8636C54.3949 17.8523 54.5653 18.6903 54.9062 19.3778C55.2528 20.0597 55.733 20.5795 56.3466 20.9375C56.9602 21.2898 57.6733 21.4659 58.4858 21.4659C59.0142 21.4659 59.4915 21.392 59.9176 21.2443C60.3494 21.0909 60.7216 20.8636 61.0341 20.5625C61.3466 20.2557 61.5881 19.875 61.7585 19.4205L63.7017 19.9659C63.4972 20.625 63.1534 21.2045 62.6705 21.7045C62.1875 22.1989 61.5909 22.5852 60.8807 22.8636C60.1705 23.1364 59.3722 23.2727 58.4858 23.2727ZM68.9773 15.125V23H66.9659V9.90909H68.9091V11.9545H69.0795C69.3864 11.2898 69.8523 10.7557 70.4773 10.3523C71.1023 9.94318 71.9091 9.73864 72.8977 9.73864C73.7841 9.73864 74.5597 9.92045 75.2244 10.2841C75.8892 10.642 76.4063 11.1875 76.7756 11.9205C77.1449 12.6477 77.3295 13.5682 77.3295 14.6818V23H75.3182V14.8182C75.3182 13.7898 75.0511 12.9886 74.517 12.4148C73.983 11.8352 73.25 11.5455 72.3182 11.5455C71.6761 11.5455 71.1023 11.6847 70.5966 11.9631C70.0966 12.2415 69.7017 12.6477 69.4119 13.1818C69.1222 13.7159 68.9773 14.3636 68.9773 15.125ZM86.3232 23.2727C85.0959 23.2727 84.0391 22.983 83.1527 22.4034C82.2663 21.8239 81.5845 21.0256 81.1072 20.0085C80.63 18.9915 80.3913 17.8295 80.3913 16.5227C80.3913 15.1932 80.6357 14.0199 81.1243 13.0028C81.6186 11.9801 82.3061 11.1818 83.1868 10.608C84.0732 10.0284 85.1072 9.73864 86.2891 9.73864C87.2095 9.73864 88.0391 9.90909 88.7777 10.25C89.5163 10.5909 90.1214 11.0682 90.593 11.6818C91.0646 12.2955 91.3572 13.0114 91.4709 13.8295H89.4595C89.3061 13.233 88.9652 12.7045 88.4368 12.2443C87.9141 11.7784 87.2095 11.5455 86.3232 11.5455C85.5391 11.5455 84.8516 11.75 84.2607 12.1591C83.6754 12.5625 83.218 13.1335 82.8885 13.8722C82.5646 14.6051 82.4027 15.4659 82.4027 16.4545C82.4027 17.4659 82.5618 18.3466 82.88 19.0966C83.2038 19.8466 83.6584 20.429 84.2436 20.8438C84.8345 21.2585 85.5277 21.4659 86.3232 21.4659C86.8459 21.4659 87.3203 21.375 87.7464 21.1932C88.1726 21.0114 88.5334 20.75 88.8288 20.4091C89.1243 20.0682 89.3345 19.6591 89.4595 19.1818H91.4709C91.3572 19.9545 91.076 20.6506 90.6271 21.2699C90.1839 21.8835 89.5959 22.3722 88.8629 22.7358C88.1357 23.0938 87.2891 23.2727 86.3232 23.2727ZM94.4112 23V9.90909H96.4226V23H94.4112ZM95.4339 7.72727C95.0419 7.72727 94.7038 7.59375 94.4197 7.3267C94.1413 7.05966 94.0021 6.73864 94.0021 6.36364C94.0021 5.98864 94.1413 5.66761 94.4197 5.40057C94.7038 5.13352 95.0419 5 95.4339 5C95.826 5 96.1612 5.13352 96.4396 5.40057C96.7237 5.66761 96.8658 5.98864 96.8658 6.36364C96.8658 6.73864 96.7237 7.05966 96.4396 7.3267C96.1612 7.59375 95.826 7.72727 95.4339 7.72727ZM103.959 23.3068C103.129 23.3068 102.376 23.1506 101.7 22.8381C101.024 22.5199 100.487 22.0625 100.089 21.4659C99.6918 20.8636 99.4929 20.1364 99.4929 19.2841C99.4929 18.5341 99.6406 17.9261 99.9361 17.4602C100.232 16.9886 100.626 16.6193 101.121 16.3523C101.615 16.0852 102.161 15.8864 102.757 15.7557C103.359 15.6193 103.964 15.5114 104.572 15.4318C105.368 15.3295 106.013 15.2528 106.507 15.2017C107.007 15.1449 107.371 15.0511 107.598 14.9205C107.831 14.7898 107.947 14.5625 107.947 14.2386V14.1705C107.947 13.3295 107.717 12.6761 107.257 12.2102C106.803 11.7443 106.112 11.5114 105.186 11.5114C104.226 11.5114 103.473 11.7216 102.928 12.142C102.382 12.5625 101.999 13.0114 101.777 13.4886L99.8679 12.8068C100.209 12.0114 100.663 11.392 101.232 10.9489C101.805 10.5 102.43 10.1875 103.107 10.0114C103.788 9.82955 104.459 9.73864 105.118 9.73864C105.538 9.73864 106.021 9.78977 106.567 9.89204C107.118 9.98864 107.649 10.1903 108.161 10.4972C108.678 10.804 109.107 11.267 109.447 11.8864C109.788 12.5057 109.959 13.3352 109.959 14.375V23H107.947V21.2273H107.845C107.709 21.5114 107.482 21.8153 107.163 22.1392C106.845 22.4631 106.422 22.7386 105.893 22.9659C105.365 23.1932 104.72 23.3068 103.959 23.3068ZM104.266 21.5C105.061 21.5 105.732 21.3438 106.277 21.0312C106.828 20.7188 107.243 20.3153 107.521 19.821C107.805 19.3267 107.947 18.8068 107.947 18.2614V16.4205C107.862 16.5227 107.675 16.6165 107.385 16.7017C107.101 16.7812 106.771 16.8523 106.396 16.9148C106.027 16.9716 105.666 17.0227 105.314 17.0682C104.967 17.108 104.686 17.142 104.47 17.1705C103.947 17.2386 103.459 17.3494 103.004 17.5028C102.555 17.6506 102.192 17.875 101.913 18.1761C101.641 18.4716 101.504 18.875 101.504 19.3864C101.504 20.0852 101.763 20.6136 102.28 20.9716C102.803 21.3239 103.464 21.5 104.266 21.5ZM122.903 12.8409L121.096 13.3523C120.982 13.0511 120.815 12.7585 120.593 12.4744C120.377 12.1847 120.082 11.946 119.707 11.7585C119.332 11.571 118.852 11.4773 118.266 11.4773C117.465 11.4773 116.798 11.6619 116.263 12.0312C115.735 12.3949 115.471 12.858 115.471 13.4205C115.471 13.9205 115.653 14.3153 116.016 14.6051C116.38 14.8949 116.948 15.1364 117.721 15.3295L119.664 15.8068C120.835 16.0909 121.707 16.5256 122.281 17.1108C122.854 17.6903 123.141 18.4375 123.141 19.3523C123.141 20.1023 122.925 20.7727 122.494 21.3636C122.067 21.9545 121.471 22.4205 120.704 22.7614C119.937 23.1023 119.045 23.2727 118.028 23.2727C116.692 23.2727 115.587 22.983 114.712 22.4034C113.837 21.8239 113.283 20.9773 113.05 19.8636L114.96 19.3864C115.141 20.0909 115.485 20.6193 115.991 20.9716C116.502 21.3239 117.17 21.5 117.994 21.5C118.931 21.5 119.675 21.3011 120.227 20.9034C120.783 20.5 121.062 20.017 121.062 19.4545C121.062 19 120.903 18.6193 120.585 18.3125C120.266 18 119.778 17.767 119.119 17.6136L116.937 17.1023C115.738 16.8182 114.857 16.3778 114.295 15.7812C113.738 15.179 113.46 14.4261 113.46 13.5227C113.46 12.7841 113.667 12.1307 114.082 11.5625C114.502 10.9943 115.073 10.5483 115.795 10.2244C116.522 9.90057 117.346 9.73864 118.266 9.73864C119.562 9.73864 120.579 10.0227 121.317 10.5909C122.062 11.1591 122.59 11.9091 122.903 12.8409ZM134.214 27.9091C133.874 27.9091 133.57 27.8807 133.303 27.8239C133.036 27.7727 132.851 27.7216 132.749 27.6705L133.26 25.8977C133.749 26.0227 134.18 26.0682 134.555 26.0341C134.93 26 135.263 25.8324 135.553 25.5312C135.848 25.2358 136.118 24.7557 136.362 24.0909L136.737 23.0682L131.896 9.90909H134.078L137.692 20.3409H137.828L141.442 9.90909H143.624L138.067 24.9091C137.817 25.5852 137.507 26.1449 137.138 26.5881C136.768 27.0369 136.339 27.3693 135.851 27.5852C135.368 27.8011 134.822 27.9091 134.214 27.9091ZM152.347 7.42045V5.54545H165.438V7.42045H159.949V23H157.835V7.42045H152.347ZM172.017 23.2727C170.756 23.2727 169.668 22.9943 168.753 22.4375C167.844 21.875 167.142 21.0909 166.648 20.0852C166.159 19.0739 165.915 17.8977 165.915 16.5568C165.915 15.2159 166.159 14.0341 166.648 13.0114C167.142 11.983 167.83 11.1818 168.71 10.608C169.597 10.0284 170.631 9.73864 171.812 9.73864C172.494 9.73864 173.168 9.85227 173.832 10.0795C174.497 10.3068 175.102 10.6761 175.648 11.1875C176.193 11.6932 176.628 12.3636 176.952 13.1989C177.276 14.0341 177.438 15.0625 177.438 16.2841V17.1364H167.347V15.3977H175.392C175.392 14.6591 175.244 14 174.949 13.4205C174.659 12.8409 174.244 12.3835 173.705 12.0483C173.17 11.7131 172.54 11.5455 171.812 11.5455C171.011 11.5455 170.318 11.7443 169.733 12.142C169.153 12.5341 168.707 13.0455 168.395 13.6761C168.082 14.3068 167.926 14.983 167.926 15.7045V16.8636C167.926 17.8523 168.097 18.6903 168.438 19.3778C168.784 20.0597 169.264 20.5795 169.878 20.9375C170.491 21.2898 171.205 21.4659 172.017 21.4659C172.545 21.4659 173.023 21.392 173.449 21.2443C173.881 21.0909 174.253 20.8636 174.565 20.5625C174.878 20.2557 175.119 19.875 175.29 19.4205L177.233 19.9659C177.028 20.625 176.685 21.2045 176.202 21.7045C175.719 22.1989 175.122 22.5852 174.412 22.8636C173.702 23.1364 172.903 23.2727 172.017 23.2727ZM185.815 23.2727C184.588 23.2727 183.531 22.983 182.645 22.4034C181.759 21.8239 181.077 21.0256 180.599 20.0085C180.122 18.9915 179.884 17.8295 179.884 16.5227C179.884 15.1932 180.128 14.0199 180.616 13.0028C181.111 11.9801 181.798 11.1818 182.679 10.608C183.565 10.0284 184.599 9.73864 185.781 9.73864C186.702 9.73864 187.531 9.90909 188.27 10.25C189.009 10.5909 189.614 11.0682 190.085 11.6818C190.557 12.2955 190.849 13.0114 190.963 13.8295H188.952C188.798 13.233 188.457 12.7045 187.929 12.2443C187.406 11.7784 186.702 11.5455 185.815 11.5455C185.031 11.5455 184.344 11.75 183.753 12.1591C183.168 12.5625 182.71 13.1335 182.381 13.8722C182.057 14.6051 181.895 15.4659 181.895 16.4545C181.895 17.4659 182.054 18.3466 182.372 19.0966C182.696 19.8466 183.151 20.429 183.736 20.8438C184.327 21.2585 185.02 21.4659 185.815 21.4659C186.338 21.4659 186.812 21.375 187.239 21.1932C187.665 21.0114 188.026 20.75 188.321 20.4091C188.616 20.0682 188.827 19.6591 188.952 19.1818H190.963C190.849 19.9545 190.568 20.6506 190.119 21.2699C189.676 21.8835 189.088 22.3722 188.355 22.7358C187.628 23.0938 186.781 23.2727 185.815 23.2727ZM195.915 15.125V23H193.903V9.90909H195.847V11.9545H196.017C196.324 11.2898 196.79 10.7557 197.415 10.3523C198.04 9.94318 198.847 9.73864 199.835 9.73864C200.722 9.73864 201.497 9.92045 202.162 10.2841C202.827 10.642 203.344 11.1875 203.713 11.9205C204.082 12.6477 204.267 13.5682 204.267 14.6818V23H202.256V14.8182C202.256 13.7898 201.989 12.9886 201.455 12.4148C200.92 11.8352 200.188 11.5455 199.256 11.5455C198.614 11.5455 198.04 11.6847 197.534 11.9631C197.034 12.2415 196.639 12.6477 196.349 13.1818C196.06 13.7159 195.915 14.3636 195.915 15.125ZM213.261 23.2727C212.079 23.2727 211.042 22.9915 210.15 22.429C209.263 21.8665 208.57 21.0795 208.07 20.0682C207.576 19.0568 207.329 17.875 207.329 16.5227C207.329 15.1591 207.576 13.9687 208.07 12.9517C208.57 11.9347 209.263 11.1449 210.15 10.5824C211.042 10.0199 212.079 9.73864 213.261 9.73864C214.442 9.73864 215.477 10.0199 216.363 10.5824C217.255 11.1449 217.948 11.9347 218.442 12.9517C218.942 13.9687 219.192 15.1591 219.192 16.5227C219.192 17.875 218.942 19.0568 218.442 20.0682C217.948 21.0795 217.255 21.8665 216.363 22.429C215.477 22.9915 214.442 23.2727 213.261 23.2727ZM213.261 21.4659C214.158 21.4659 214.897 21.2358 215.477 20.7756C216.056 20.3153 216.485 19.7102 216.763 18.9602C217.042 18.2102 217.181 17.3977 217.181 16.5227C217.181 15.6477 217.042 14.8324 216.763 14.0767C216.485 13.321 216.056 12.7102 215.477 12.2443C214.897 11.7784 214.158 11.5455 213.261 11.5455C212.363 11.5455 211.624 11.7784 211.045 12.2443C210.465 12.7102 210.036 13.321 209.758 14.0767C209.479 14.8324 209.34 15.6477 209.34 16.5227C209.34 17.3977 209.479 18.2102 209.758 18.9602C210.036 19.7102 210.465 20.3153 211.045 20.7756C211.624 21.2358 212.363 21.4659 213.261 21.4659ZM224.274 5.54545V23H222.263V5.54545H224.274ZM233.276 23.2727C232.094 23.2727 231.058 22.9915 230.165 22.429C229.279 21.8665 228.586 21.0795 228.086 20.0682C227.592 19.0568 227.344 17.875 227.344 16.5227C227.344 15.1591 227.592 13.9687 228.086 12.9517C228.586 11.9347 229.279 11.1449 230.165 10.5824C231.058 10.0199 232.094 9.73864 233.276 9.73864C234.458 9.73864 235.492 10.0199 236.379 10.5824C237.271 11.1449 237.964 11.9347 238.458 12.9517C238.958 13.9687 239.208 15.1591 239.208 16.5227C239.208 17.875 238.958 19.0568 238.458 20.0682C237.964 21.0795 237.271 21.8665 236.379 22.429C235.492 22.9915 234.458 23.2727 233.276 23.2727ZM233.276 21.4659C234.174 21.4659 234.913 21.2358 235.492 20.7756C236.072 20.3153 236.501 19.7102 236.779 18.9602C237.058 18.2102 237.197 17.3977 237.197 16.5227C237.197 15.6477 237.058 14.8324 236.779 14.0767C236.501 13.321 236.072 12.7102 235.492 12.2443C234.913 11.7784 234.174 11.5455 233.276 11.5455C232.379 11.5455 231.64 11.7784 231.06 12.2443C230.481 12.7102 230.052 13.321 229.773 14.0767C229.495 14.8324 229.356 15.6477 229.356 16.5227C229.356 17.3977 229.495 18.2102 229.773 18.9602C230.052 19.7102 230.481 20.3153 231.06 20.7756C231.64 21.2358 232.379 21.4659 233.276 21.4659ZM247.562 28.1818C246.591 28.1818 245.756 28.0568 245.057 27.8068C244.358 27.5625 243.776 27.2386 243.31 26.8352C242.849 26.4375 242.483 26.0114 242.21 25.5568L243.812 24.4318C243.994 24.6705 244.224 24.9432 244.503 25.25C244.781 25.5625 245.162 25.8324 245.645 26.0597C246.134 26.2926 246.773 26.4091 247.562 26.4091C248.619 26.4091 249.491 26.1534 250.179 25.642C250.866 25.1307 251.21 24.3295 251.21 23.2386V20.5795H251.04C250.892 20.8182 250.682 21.1136 250.409 21.4659C250.142 21.8125 249.756 22.1222 249.25 22.3949C248.75 22.6619 248.074 22.7955 247.222 22.7955C246.165 22.7955 245.216 22.5455 244.375 22.0455C243.54 21.5455 242.878 20.8182 242.389 19.8636C241.906 18.9091 241.665 17.75 241.665 16.3864C241.665 15.0455 241.901 13.8778 242.372 12.8835C242.844 11.8835 243.5 11.1108 244.341 10.5653C245.182 10.0142 246.153 9.73864 247.256 9.73864C248.108 9.73864 248.784 9.88068 249.284 10.1648C249.79 10.4432 250.176 10.7614 250.443 11.1193C250.716 11.4716 250.926 11.7614 251.074 11.9886H251.278V9.90909H253.222V23.375C253.222 24.5 252.966 25.4148 252.455 26.1193C251.949 26.8295 251.267 27.3494 250.409 27.679C249.557 28.0142 248.608 28.1818 247.562 28.1818ZM247.494 20.9886C248.301 20.9886 248.983 20.804 249.54 20.4347C250.097 20.0653 250.52 19.5341 250.81 18.8409C251.099 18.1477 251.244 17.3182 251.244 16.3523C251.244 15.4091 251.102 14.5767 250.818 13.8551C250.534 13.1335 250.114 12.5682 249.557 12.1591C249 11.75 248.313 11.5455 247.494 11.5455C246.642 11.5455 245.932 11.7614 245.364 12.1932C244.801 12.625 244.378 13.2045 244.094 13.9318C243.815 14.6591 243.676 15.4659 243.676 16.3523C243.676 17.2614 243.818 18.0653 244.102 18.7642C244.392 19.4574 244.818 20.0028 245.381 20.4006C245.949 20.7926 246.653 20.9886 247.494 20.9886ZM256.903 23V9.90909H258.915V23H256.903ZM257.006 8.13636L259.085 4.18182H261.438L258.778 8.13636H257.006ZM266.451 23.3068C265.621 23.3068 264.869 23.1506 264.192 22.8381C263.516 22.5199 262.979 22.0625 262.582 21.4659C262.184 20.8636 261.985 20.1364 261.985 19.2841C261.985 18.5341 262.133 17.9261 262.428 17.4602C262.724 16.9886 263.119 16.6193 263.613 16.3523C264.107 16.0852 264.653 15.8864 265.249 15.7557C265.852 15.6193 266.457 15.5114 267.065 15.4318C267.86 15.3295 268.505 15.2528 268.999 15.2017C269.499 15.1449 269.863 15.0511 270.09 14.9205C270.323 14.7898 270.44 14.5625 270.44 14.2386V14.1705C270.44 13.3295 270.21 12.6761 269.749 12.2102C269.295 11.7443 268.604 11.5114 267.678 11.5114C266.718 11.5114 265.965 11.7216 265.42 12.142C264.874 12.5625 264.491 13.0114 264.269 13.4886L262.36 12.8068C262.701 12.0114 263.156 11.392 263.724 10.9489C264.298 10.5 264.923 10.1875 265.599 10.0114C266.281 9.82955 266.951 9.73864 267.61 9.73864C268.031 9.73864 268.513 9.78977 269.059 9.89204C269.61 9.98864 270.141 10.1903 270.653 10.4972C271.17 10.804 271.599 11.267 271.94 11.8864C272.281 12.5057 272.451 13.3352 272.451 14.375V23H270.44V21.2273H270.337C270.201 21.5114 269.974 21.8153 269.656 22.1392C269.337 22.4631 268.914 22.7386 268.386 22.9659C267.857 23.1932 267.212 23.3068 266.451 23.3068ZM266.758 21.5C267.553 21.5 268.224 21.3438 268.769 21.0312C269.32 20.7188 269.735 20.3153 270.013 19.821C270.298 19.3267 270.44 18.8068 270.44 18.2614V16.4205C270.354 16.5227 270.167 16.6165 269.877 16.7017C269.593 16.7812 269.263 16.8523 268.888 16.9148C268.519 16.9716 268.158 17.0227 267.806 17.0682C267.46 17.108 267.178 17.142 266.962 17.1705C266.44 17.2386 265.951 17.3494 265.496 17.5028C265.048 17.6506 264.684 17.875 264.406 18.1761C264.133 18.4716 263.996 18.875 263.996 19.3864C263.996 20.0852 264.255 20.6136 264.772 20.9716C265.295 21.3239 265.957 21.5 266.758 21.5Z" fill="black"/>
</svg>
