<svg width="293" height="30" viewBox="0 0 293 30" fill="none" xmlns="http://www.w3.org/2000/svg">
<rect width="293" height="30" fill="#FBFEFF"/>
<rect width="17" height="30" fill="#FC2847"/>
<path d="M39.6591 9.90909C39.5568 9.04545 39.142 8.375 38.4148 7.89773C37.6875 7.42045 36.7955 7.18182 35.7386 7.18182C34.9659 7.18182 34.2898 7.30682 33.7102 7.55682C33.1364 7.80682 32.6875 8.15057 32.3636 8.58807C32.0455 9.02557 31.8864 9.52273 31.8864 10.0795C31.8864 10.5455 31.9972 10.946 32.2188 11.2812C32.446 11.6108 32.7358 11.8864 33.0881 12.108C33.4403 12.3239 33.8097 12.5028 34.196 12.6449C34.5824 12.7812 34.9375 12.892 35.2614 12.9773L37.0341 13.4545C37.4886 13.5739 37.9943 13.7386 38.5511 13.9489C39.1136 14.1591 39.6506 14.446 40.1619 14.8097C40.679 15.1676 41.1051 15.6278 41.4403 16.1903C41.7756 16.7528 41.9432 17.4432 41.9432 18.2614C41.9432 19.2045 41.696 20.0568 41.2017 20.8182C40.7131 21.5795 39.9972 22.1847 39.054 22.6335C38.1165 23.0824 36.9773 23.3068 35.6364 23.3068C34.3864 23.3068 33.304 23.1051 32.3892 22.7017C31.4801 22.2983 30.7642 21.7358 30.2415 21.0142C29.7244 20.2926 29.4318 19.4545 29.3636 18.5H31.5455C31.6023 19.1591 31.8239 19.7045 32.2102 20.1364C32.6023 20.5625 33.0966 20.8807 33.6932 21.0909C34.2955 21.2955 34.9432 21.3977 35.6364 21.3977C36.4432 21.3977 37.1676 21.267 37.8097 21.0057C38.4517 20.7386 38.9602 20.3693 39.3352 19.8977C39.7102 19.4205 39.8977 18.8636 39.8977 18.2273C39.8977 17.6477 39.7358 17.1761 39.4119 16.8125C39.0881 16.4489 38.6619 16.1534 38.1335 15.9261C37.6051 15.6989 37.0341 15.5 36.4205 15.3295L34.2727 14.7159C32.9091 14.3239 31.8295 13.7642 31.0341 13.0369C30.2386 12.3097 29.8409 11.358 29.8409 10.1818C29.8409 9.20454 30.1051 8.35227 30.6335 7.625C31.1676 6.89205 31.8835 6.32386 32.7812 5.92045C33.6847 5.51136 34.6932 5.30682 35.8068 5.30682C36.9318 5.30682 37.9318 5.50852 38.8068 5.91193C39.6818 6.30966 40.375 6.85511 40.8864 7.54829C41.4034 8.24148 41.6761 9.02841 41.7045 9.90909H39.6591ZM45.1456 23V9.90909H47.157V23H45.1456ZM46.1683 7.72727C45.7763 7.72727 45.4382 7.59375 45.1541 7.3267C44.8757 7.05966 44.7365 6.73864 44.7365 6.36364C44.7365 5.98864 44.8757 5.66761 45.1541 5.40057C45.4382 5.13352 45.7763 5 46.1683 5C46.5604 5 46.8956 5.13352 47.174 5.40057C47.4581 5.66761 47.6001 5.98864 47.6001 6.36364C47.6001 6.73864 47.4581 7.05966 47.174 7.3267C46.8956 7.59375 46.5604 7.72727 46.1683 7.72727ZM60.1136 12.8409L58.3068 13.3523C58.1932 13.0511 58.0256 12.7585 57.804 12.4744C57.5881 12.1847 57.2926 11.946 56.9176 11.7585C56.5426 11.571 56.0625 11.4773 55.4773 11.4773C54.6761 11.4773 54.0085 11.6619 53.4744 12.0312C52.946 12.3949 52.6818 12.858 52.6818 13.4205C52.6818 13.9205 52.8636 14.3153 53.2273 14.6051C53.5909 14.8949 54.1591 15.1364 54.9318 15.3295L56.875 15.8068C58.0455 16.0909 58.9176 16.5256 59.4915 17.1108C60.0653 17.6903 60.3523 18.4375 60.3523 19.3523C60.3523 20.1023 60.1364 20.7727 59.7045 21.3636C59.2784 21.9545 58.6818 22.4205 57.9148 22.7614C57.1477 23.1023 56.2557 23.2727 55.2386 23.2727C53.9034 23.2727 52.7983 22.983 51.9233 22.4034C51.0483 21.8239 50.4943 20.9773 50.2614 19.8636L52.1705 19.3864C52.3523 20.0909 52.696 20.6193 53.2017 20.9716C53.7131 21.3239 54.3807 21.5 55.2045 21.5C56.142 21.5 56.8864 21.3011 57.4375 20.9034C57.9943 20.5 58.2727 20.017 58.2727 19.4545C58.2727 19 58.1136 18.6193 57.7955 18.3125C57.4773 18 56.9886 17.767 56.3295 17.6136L54.1477 17.1023C52.9489 16.8182 52.0682 16.3778 51.5057 15.7812C50.9489 15.179 50.6705 14.4261 50.6705 13.5227C50.6705 12.7841 50.8778 12.1307 51.2926 11.5625C51.7131 10.9943 52.2841 10.5483 53.0057 10.2244C53.733 9.90057 54.5568 9.73864 55.4773 9.73864C56.7727 9.73864 57.7898 10.0227 58.5284 10.5909C59.2727 11.1591 59.8011 11.9091 60.1136 12.8409ZM69.0732 9.90909V11.6136H62.2891V9.90909H69.0732ZM64.2663 6.77273H66.2777V19.25C66.2777 19.8182 66.3601 20.2443 66.5249 20.5284C66.6953 20.8068 66.9112 20.9943 67.1726 21.0909C67.4396 21.1818 67.7209 21.2273 68.0163 21.2273C68.2379 21.2273 68.4197 21.2159 68.5618 21.1932C68.7038 21.1648 68.8175 21.142 68.9027 21.125L69.3118 22.9318C69.1754 22.983 68.9851 23.0341 68.7408 23.0852C68.4964 23.142 68.1868 23.1705 67.8118 23.1705C67.2436 23.1705 66.6868 23.0483 66.1413 22.804C65.6016 22.5597 65.1527 22.1875 64.7947 21.6875C64.4425 21.1875 64.2663 20.5568 64.2663 19.7955V6.77273ZM77.4467 23.2727C76.1854 23.2727 75.0973 22.9943 74.1825 22.4375C73.2734 21.875 72.5717 21.0909 72.0774 20.0852C71.5888 19.0739 71.3445 17.8977 71.3445 16.5568C71.3445 15.2159 71.5888 14.0341 72.0774 13.0114C72.5717 11.983 73.2592 11.1818 74.1399 10.608C75.0263 10.0284 76.0604 9.73864 77.2422 9.73864C77.924 9.73864 78.5973 9.85227 79.2621 10.0795C79.9268 10.3068 80.532 10.6761 81.0774 11.1875C81.6229 11.6932 82.0575 12.3636 82.3814 13.1989C82.7053 14.0341 82.8672 15.0625 82.8672 16.2841V17.1364H72.7763V15.3977H80.8217C80.8217 14.6591 80.674 14 80.3786 13.4205C80.0888 12.8409 79.674 12.3835 79.1342 12.0483C78.6001 11.7131 77.9695 11.5455 77.2422 11.5455C76.4411 11.5455 75.7479 11.7443 75.1626 12.142C74.5831 12.5341 74.1371 13.0455 73.8246 13.6761C73.5121 14.3068 73.3558 14.983 73.3558 15.7045V16.8636C73.3558 17.8523 73.5263 18.6903 73.8672 19.3778C74.2138 20.0597 74.6939 20.5795 75.3075 20.9375C75.9212 21.2898 76.6342 21.4659 77.4467 21.4659C77.9751 21.4659 78.4524 21.392 78.8786 21.2443C79.3104 21.0909 79.6825 20.8636 79.995 20.5625C80.3075 20.2557 80.549 19.875 80.7195 19.4205L82.6626 19.9659C82.4581 20.625 82.1143 21.2045 81.6314 21.7045C81.1484 22.1989 80.5518 22.5852 79.8416 22.8636C79.1314 23.1364 78.3331 23.2727 77.4467 23.2727ZM85.9268 23V9.90909H87.87V11.9545H88.0405C88.3132 11.2557 88.7536 10.7131 89.3615 10.3267C89.9695 9.93466 90.6996 9.73864 91.5518 9.73864C92.4155 9.73864 93.1342 9.93466 93.7081 10.3267C94.2876 10.7131 94.7393 11.2557 95.0632 11.9545H95.1996C95.5348 11.2784 96.0376 10.7415 96.7081 10.3438C97.3786 9.94034 98.1825 9.73864 99.12 9.73864C100.29 9.73864 101.248 10.1051 101.992 10.8381C102.737 11.5653 103.109 12.6989 103.109 14.2386V23H101.097V14.2386C101.097 13.2727 100.833 12.5824 100.305 12.1676C99.7763 11.7528 99.1541 11.5455 98.4382 11.5455C97.5178 11.5455 96.8047 11.8239 96.299 12.3807C95.7933 12.9318 95.5405 13.6307 95.5405 14.4773V23H93.495V14.0341C93.495 13.2898 93.2536 12.6903 92.7706 12.2358C92.2876 11.7756 91.6655 11.5455 90.9041 11.5455C90.3814 11.5455 89.8928 11.6847 89.4382 11.9631C88.9893 12.2415 88.6257 12.6278 88.3473 13.1222C88.0746 13.6108 87.9382 14.1761 87.9382 14.8182V23H85.9268ZM110.638 23.3068C109.809 23.3068 109.056 23.1506 108.38 22.8381C107.704 22.5199 107.167 22.0625 106.769 21.4659C106.371 20.8636 106.173 20.1364 106.173 19.2841C106.173 18.5341 106.32 17.9261 106.616 17.4602C106.911 16.9886 107.306 16.6193 107.8 16.3523C108.295 16.0852 108.84 15.8864 109.437 15.7557C110.039 15.6193 110.644 15.5114 111.252 15.4318C112.048 15.3295 112.692 15.2528 113.187 15.2017C113.687 15.1449 114.05 15.0511 114.278 14.9205C114.511 14.7898 114.627 14.5625 114.627 14.2386V14.1705C114.627 13.3295 114.397 12.6761 113.937 12.2102C113.482 11.7443 112.792 11.5114 111.866 11.5114C110.906 11.5114 110.153 11.7216 109.607 12.142C109.062 12.5625 108.678 13.0114 108.457 13.4886L106.548 12.8068C106.888 12.0114 107.343 11.392 107.911 10.9489C108.485 10.5 109.11 10.1875 109.786 10.0114C110.468 9.82955 111.138 9.73864 111.798 9.73864C112.218 9.73864 112.701 9.78977 113.246 9.89204C113.798 9.98864 114.329 10.1903 114.84 10.4972C115.357 10.804 115.786 11.267 116.127 11.8864C116.468 12.5057 116.638 13.3352 116.638 14.375V23H114.627V21.2273H114.525C114.388 21.5114 114.161 21.8153 113.843 22.1392C113.525 22.4631 113.102 22.7386 112.573 22.9659C112.045 23.1932 111.4 23.3068 110.638 23.3068ZM110.945 21.5C111.741 21.5 112.411 21.3438 112.957 21.0312C113.508 20.7188 113.923 20.3153 114.201 19.821C114.485 19.3267 114.627 18.8068 114.627 18.2614V16.4205C114.542 16.5227 114.354 16.6165 114.065 16.7017C113.781 16.7812 113.451 16.8523 113.076 16.9148C112.707 16.9716 112.346 17.0227 111.994 17.0682C111.647 17.108 111.366 17.142 111.15 17.1705C110.627 17.2386 110.138 17.3494 109.684 17.5028C109.235 17.6506 108.871 17.875 108.593 18.1761C108.32 18.4716 108.184 18.875 108.184 19.3864C108.184 20.0852 108.442 20.6136 108.96 20.9716C109.482 21.3239 110.144 21.5 110.945 21.5ZM129.582 12.8409L127.776 13.3523C127.662 13.0511 127.494 12.7585 127.273 12.4744C127.057 12.1847 126.761 11.946 126.386 11.7585C126.011 11.571 125.531 11.4773 124.946 11.4773C124.145 11.4773 123.477 11.6619 122.943 12.0312C122.415 12.3949 122.151 12.858 122.151 13.4205C122.151 13.9205 122.332 14.3153 122.696 14.6051C123.06 14.8949 123.628 15.1364 124.401 15.3295L126.344 15.8068C127.514 16.0909 128.386 16.5256 128.96 17.1108C129.534 17.6903 129.821 18.4375 129.821 19.3523C129.821 20.1023 129.605 20.7727 129.173 21.3636C128.747 21.9545 128.151 22.4205 127.384 22.7614C126.616 23.1023 125.724 23.2727 124.707 23.2727C123.372 23.2727 122.267 22.983 121.392 22.4034C120.517 21.8239 119.963 20.9773 119.73 19.8636L121.639 19.3864C121.821 20.0909 122.165 20.6193 122.67 20.9716C123.182 21.3239 123.849 21.5 124.673 21.5C125.611 21.5 126.355 21.3011 126.906 20.9034C127.463 20.5 127.741 20.017 127.741 19.4545C127.741 19 127.582 18.6193 127.264 18.3125C126.946 18 126.457 17.767 125.798 17.6136L123.616 17.1023C122.418 16.8182 121.537 16.3778 120.974 15.7812C120.418 15.179 120.139 14.4261 120.139 13.5227C120.139 12.7841 120.347 12.1307 120.761 11.5625C121.182 10.9943 121.753 10.5483 122.474 10.2244C123.202 9.90057 124.026 9.73864 124.946 9.73864C126.241 9.73864 127.259 10.0227 127.997 10.5909C128.741 11.1591 129.27 11.9091 129.582 12.8409Z" fill="black"/>
</svg>
