<svg width="321" height="35" viewBox="0 0 321 35" fill="none" xmlns="http://www.w3.org/2000/svg">
<rect width="321" height="35" fill="#FFA343"/>
<path d="M27.4148 14.2216H24.7557C24.6534 13.6534 24.4631 13.1534 24.1847 12.7216C23.9063 12.2898 23.5653 11.9233 23.1619 11.6222C22.7585 11.321 22.3068 11.0937 21.8068 10.9403C21.3125 10.7869 20.7869 10.7102 20.2301 10.7102C19.2244 10.7102 18.3239 10.9631 17.5284 11.4688C16.7386 11.9744 16.1136 12.7159 15.6534 13.6932C15.1989 14.6705 14.9716 15.8636 14.9716 17.2727C14.9716 18.6932 15.1989 19.892 15.6534 20.8693C16.1136 21.8466 16.7415 22.5852 17.5369 23.0852C18.3324 23.5852 19.2273 23.8352 20.2216 23.8352C20.7727 23.8352 21.2955 23.7614 21.7898 23.6136C22.2898 23.4602 22.7415 23.2358 23.1449 22.9403C23.5483 22.6449 23.8892 22.2841 24.1676 21.858C24.4517 21.4261 24.6477 20.9318 24.7557 20.375L27.4148 20.3835C27.2727 21.2415 26.9972 22.0312 26.5881 22.7528C26.1847 23.4688 25.6648 24.0881 25.0284 24.6108C24.3977 25.1278 23.6761 25.5284 22.8636 25.8125C22.0511 26.0966 21.1648 26.2386 20.2045 26.2386C18.6932 26.2386 17.3466 25.8807 16.1648 25.1648C14.983 24.4432 14.0511 23.4119 13.3693 22.071C12.6932 20.7301 12.3551 19.1307 12.3551 17.2727C12.3551 15.4091 12.696 13.8097 13.3778 12.4744C14.0597 11.1335 14.9915 10.1051 16.1733 9.3892C17.3551 8.66761 18.6989 8.30682 20.2045 8.30682C21.1307 8.30682 21.9943 8.44034 22.7955 8.70739C23.6023 8.96875 24.3267 9.35511 24.9688 9.86648C25.6108 10.3722 26.142 10.9915 26.5625 11.7244C26.983 12.4517 27.267 13.2841 27.4148 14.2216ZM34.1712 26.2898C33.3416 26.2898 32.5916 26.1364 31.9212 25.8295C31.2507 25.517 30.7195 25.0653 30.3274 24.4744C29.9411 23.8835 29.7479 23.1591 29.7479 22.3011C29.7479 21.5625 29.8899 20.9545 30.174 20.4773C30.4581 20 30.8416 19.6222 31.3246 19.3438C31.8075 19.0653 32.3473 18.8551 32.9439 18.7131C33.5405 18.571 34.1484 18.4631 34.7678 18.3892C35.5518 18.2983 36.1882 18.2244 36.6768 18.1676C37.1655 18.1051 37.5206 18.0057 37.7422 17.8693C37.9638 17.733 38.0746 17.5114 38.0746 17.2045V17.1449C38.0746 16.4006 37.8643 15.8239 37.4439 15.4148C37.0291 15.0057 36.4098 14.8011 35.5859 14.8011C34.728 14.8011 34.0518 14.9915 33.5575 15.3722C33.0689 15.7472 32.7308 16.1648 32.5433 16.625L30.1484 16.0795C30.4325 15.2841 30.8473 14.642 31.3928 14.1534C31.9439 13.6591 32.5774 13.3011 33.2933 13.0795C34.0092 12.8523 34.7621 12.7386 35.5518 12.7386C36.0746 12.7386 36.6286 12.8011 37.2138 12.9261C37.8047 13.0455 38.3558 13.267 38.8672 13.5909C39.3842 13.9148 39.8075 14.3778 40.1371 14.9801C40.4666 15.5767 40.6314 16.3523 40.6314 17.3068V26H38.1428V24.2102H38.0405C37.8757 24.5398 37.6286 24.8636 37.299 25.1818C36.9695 25.5 36.5462 25.7642 36.0291 25.9744C35.5121 26.1847 34.8928 26.2898 34.1712 26.2898ZM34.7251 24.2443C35.4297 24.2443 36.032 24.1051 36.532 23.8267C37.0376 23.5483 37.4212 23.1847 37.6825 22.7358C37.9496 22.2812 38.0831 21.7955 38.0831 21.2784V19.5909C37.9922 19.6818 37.8161 19.767 37.5547 19.8466C37.299 19.9205 37.0064 19.9858 36.6768 20.0426C36.3473 20.0937 36.0263 20.142 35.7138 20.1875C35.4013 20.2273 35.1399 20.2614 34.9297 20.2898C34.4354 20.3523 33.9837 20.4574 33.5746 20.6051C33.1712 20.7528 32.8473 20.9659 32.603 21.2443C32.3643 21.517 32.245 21.8807 32.245 22.3352C32.245 22.9659 32.478 23.4432 32.9439 23.767C33.4098 24.0852 34.0036 24.2443 34.7251 24.2443ZM34.6314 11.1619L36.6257 7.23295H39.3104L36.6683 11.1619H34.6314ZM46.5739 8.54545V26H44.0256V8.54545H46.5739ZM55.5163 26.2642C54.2493 26.2642 53.1584 25.9773 52.2436 25.4034C51.3345 24.8239 50.6357 24.0256 50.147 23.0085C49.6584 21.9915 49.4141 20.8267 49.4141 19.5142C49.4141 18.1847 49.6641 17.0114 50.1641 15.9943C50.6641 14.9716 51.3686 14.1733 52.2777 13.5994C53.1868 13.0256 54.2578 12.7386 55.4908 12.7386C56.4851 12.7386 57.3714 12.9233 58.1499 13.2926C58.9283 13.6562 59.5561 14.1676 60.0334 14.8267C60.5163 15.4858 60.8033 16.2557 60.8942 17.1364H58.4141C58.2777 16.5227 57.9652 15.9943 57.4766 15.5511C56.9936 15.108 56.3459 14.8864 55.5334 14.8864C54.8232 14.8864 54.201 15.0739 53.6669 15.4489C53.1385 15.8182 52.7266 16.3466 52.4311 17.0341C52.1357 17.7159 51.9879 18.5227 51.9879 19.4545C51.9879 20.4091 52.1328 21.233 52.4226 21.9261C52.7124 22.6193 53.1214 23.1562 53.6499 23.5369C54.1839 23.9176 54.8118 24.108 55.5334 24.108C56.0163 24.108 56.4538 24.0199 56.8459 23.8438C57.2436 23.6619 57.576 23.4034 57.843 23.0682C58.1158 22.733 58.3061 22.3295 58.4141 21.858H60.8942C60.8033 22.7045 60.5277 23.4602 60.0675 24.125C59.6072 24.7898 58.9908 25.3125 58.218 25.6932C57.451 26.0739 56.5504 26.2642 55.5163 26.2642ZM71.9119 20.571V12.9091H74.4688V26H71.9631V23.733H71.8267C71.5256 24.4318 71.0426 25.0142 70.3778 25.4801C69.7188 25.9403 68.8977 26.1705 67.9148 26.1705C67.0739 26.1705 66.3295 25.9858 65.6818 25.6165C65.0398 25.2415 64.5341 24.6875 64.1648 23.9545C63.8011 23.2216 63.6193 22.3153 63.6193 21.2358V12.9091H66.1676V20.929C66.1676 21.821 66.4148 22.5312 66.9091 23.0597C67.4034 23.5881 68.0455 23.8523 68.8352 23.8523C69.3125 23.8523 69.7869 23.733 70.2585 23.4943C70.7358 23.2557 71.1307 22.8949 71.4432 22.4119C71.7614 21.929 71.9176 21.3153 71.9119 20.571ZM80.4411 8.54545V26H77.8928V8.54545H80.4411ZM89.3835 26.2642C88.1563 26.2642 87.0852 25.983 86.1705 25.4205C85.2557 24.858 84.5455 24.071 84.0398 23.0597C83.5341 22.0483 83.2812 20.8665 83.2812 19.5142C83.2812 18.1562 83.5341 16.9687 84.0398 15.9517C84.5455 14.9347 85.2557 14.1449 86.1705 13.5824C87.0852 13.0199 88.1563 12.7386 89.3835 12.7386C90.6108 12.7386 91.6818 13.0199 92.5966 13.5824C93.5114 14.1449 94.2216 14.9347 94.7273 15.9517C95.233 16.9687 95.4858 18.1562 95.4858 19.5142C95.4858 20.8665 95.233 22.0483 94.7273 23.0597C94.2216 24.071 93.5114 24.858 92.5966 25.4205C91.6818 25.983 90.6108 26.2642 89.3835 26.2642ZM89.392 24.125C90.1875 24.125 90.8466 23.9148 91.3693 23.4943C91.892 23.0739 92.2784 22.5142 92.5284 21.8153C92.7841 21.1165 92.9119 20.3466 92.9119 19.5057C92.9119 18.6705 92.7841 17.9034 92.5284 17.2045C92.2784 16.5 91.892 15.9347 91.3693 15.5085C90.8466 15.0824 90.1875 14.8693 89.392 14.8693C88.5909 14.8693 87.9261 15.0824 87.3977 15.5085C86.875 15.9347 86.4858 16.5 86.2301 17.2045C85.9801 17.9034 85.8551 18.6705 85.8551 19.5057C85.8551 20.3466 85.9801 21.1165 86.2301 21.8153C86.4858 22.5142 86.875 23.0739 87.3977 23.4943C87.9261 23.9148 88.5909 24.125 89.392 24.125ZM107.52 8.54545V26H104.886V8.54545H107.52ZM113.699 18.2273V26H111.151V12.9091H113.597V15.0398H113.759C114.06 14.3466 114.531 13.7898 115.173 13.3693C115.821 12.9489 116.636 12.7386 117.619 12.7386C118.511 12.7386 119.293 12.9261 119.963 13.3011C120.634 13.6705 121.153 14.2216 121.523 14.9545C121.892 15.6875 122.077 16.5937 122.077 17.6733V26H119.528V17.9801C119.528 17.0312 119.281 16.2898 118.787 15.7557C118.293 15.2159 117.614 14.946 116.75 14.946C116.159 14.946 115.634 15.0739 115.173 15.3295C114.719 15.5852 114.358 15.9602 114.091 16.4545C113.83 16.9432 113.699 17.5341 113.699 18.2273ZM131.605 12.9091V14.9545H124.455V12.9091H131.605ZM126.372 9.77273H128.92V22.1562C128.92 22.6506 128.994 23.0227 129.142 23.2727C129.29 23.517 129.48 23.6847 129.713 23.7756C129.952 23.8608 130.21 23.9034 130.489 23.9034C130.693 23.9034 130.872 23.8892 131.026 23.8608C131.179 23.8324 131.298 23.8097 131.384 23.7926L131.844 25.8977C131.696 25.9545 131.486 26.0114 131.213 26.0682C130.94 26.1307 130.599 26.1648 130.19 26.1705C129.52 26.1818 128.895 26.0625 128.315 25.8125C127.736 25.5625 127.267 25.1761 126.909 24.6534C126.551 24.1307 126.372 23.4744 126.372 22.6847V9.77273ZM139.925 26.2642C138.636 26.2642 137.525 25.9886 136.593 25.4375C135.667 24.8807 134.951 24.0994 134.445 23.0938C133.945 22.0824 133.695 20.8977 133.695 19.5398C133.695 18.1989 133.945 17.017 134.445 15.9943C134.951 14.9716 135.656 14.1733 136.559 13.5994C137.468 13.0256 138.531 12.7386 139.746 12.7386C140.485 12.7386 141.201 12.8608 141.894 13.1051C142.587 13.3494 143.21 13.733 143.761 14.2557C144.312 14.7784 144.746 15.4574 145.065 16.2926C145.383 17.1222 145.542 18.1307 145.542 19.3182V20.2216H135.136V18.3125H143.045C143.045 17.642 142.908 17.0483 142.636 16.5312C142.363 16.0085 141.979 15.5966 141.485 15.2955C140.996 14.9943 140.423 14.8438 139.763 14.8438C139.048 14.8438 138.423 15.0199 137.888 15.3722C137.36 15.7187 136.951 16.1733 136.661 16.7358C136.377 17.2926 136.235 17.8977 136.235 18.5511V20.0426C136.235 20.9176 136.388 21.6619 136.695 22.2756C137.008 22.8892 137.442 23.358 137.999 23.6818C138.556 24 139.207 24.1591 139.951 24.1591C140.434 24.1591 140.874 24.0909 141.272 23.9545C141.67 23.8125 142.013 23.6023 142.303 23.3239C142.593 23.0455 142.815 22.7017 142.968 22.2926L145.38 22.7273C145.187 23.4375 144.84 24.0597 144.34 24.5938C143.846 25.1222 143.224 25.5341 142.474 25.8295C141.729 26.1193 140.88 26.2642 139.925 26.2642ZM153.858 31.1818C152.818 31.1818 151.923 31.0455 151.173 30.7727C150.429 30.5 149.821 30.1392 149.349 29.6903C148.878 29.2415 148.526 28.75 148.293 28.2159L150.483 27.3125C150.636 27.5625 150.841 27.8267 151.097 28.1051C151.358 28.3892 151.71 28.6307 152.153 28.8295C152.602 29.0284 153.179 29.1278 153.884 29.1278C154.849 29.1278 155.648 28.892 156.278 28.4205C156.909 27.9545 157.224 27.2102 157.224 26.1875V23.6136H157.062C156.909 23.892 156.688 24.2017 156.398 24.5426C156.114 24.8835 155.722 25.179 155.222 25.429C154.722 25.679 154.071 25.804 153.27 25.804C152.236 25.804 151.304 25.5625 150.474 25.0795C149.651 24.5909 148.997 23.8722 148.514 22.9233C148.037 21.9687 147.798 20.7955 147.798 19.4034C147.798 18.0114 148.034 16.8182 148.506 15.8239C148.983 14.8295 149.636 14.0682 150.466 13.5398C151.295 13.0057 152.236 12.7386 153.287 12.7386C154.099 12.7386 154.756 12.875 155.256 13.1477C155.756 13.4148 156.145 13.7273 156.423 14.0852C156.707 14.4432 156.926 14.7585 157.08 15.0312H157.267V12.9091H159.764V26.2898C159.764 27.4148 159.503 28.3381 158.98 29.0597C158.457 29.7813 157.75 30.3153 156.858 30.6619C155.972 31.0085 154.972 31.1818 153.858 31.1818ZM153.832 23.6903C154.565 23.6903 155.185 23.5199 155.69 23.179C156.202 22.8324 156.588 22.3381 156.849 21.696C157.116 21.0483 157.25 20.2727 157.25 19.3693C157.25 18.4886 157.119 17.7131 156.858 17.0426C156.597 16.3722 156.213 15.8494 155.707 15.4744C155.202 15.0937 154.577 14.9034 153.832 14.9034C153.065 14.9034 152.426 15.1023 151.915 15.5C151.403 15.892 151.017 16.4261 150.756 17.1023C150.5 17.7784 150.372 18.5341 150.372 19.3693C150.372 20.2273 150.503 20.9801 150.764 21.6278C151.026 22.2756 151.412 22.7812 151.923 23.1449C152.44 23.5085 153.077 23.6903 153.832 23.6903ZM163.182 26V12.9091H165.645V14.9886H165.781C166.02 14.2841 166.44 13.7301 167.043 13.3267C167.651 12.9176 168.338 12.7131 169.105 12.7131C169.264 12.7131 169.452 12.7187 169.668 12.7301C169.889 12.7415 170.062 12.7557 170.188 12.7727V15.2102C170.085 15.1818 169.903 15.1506 169.642 15.1165C169.381 15.0767 169.119 15.0568 168.858 15.0568C168.256 15.0568 167.719 15.1847 167.247 15.4403C166.781 15.6903 166.412 16.0398 166.139 16.4886C165.866 16.9318 165.73 17.4375 165.73 18.0057V26H163.182ZM176.085 26.2898C175.256 26.2898 174.506 26.1364 173.835 25.8295C173.165 25.517 172.634 25.0653 172.241 24.4744C171.855 23.8835 171.662 23.1591 171.662 22.3011C171.662 21.5625 171.804 20.9545 172.088 20.4773C172.372 20 172.756 19.6222 173.239 19.3438C173.722 19.0653 174.261 18.8551 174.858 18.7131C175.455 18.571 176.063 18.4631 176.682 18.3892C177.466 18.2983 178.102 18.2244 178.591 18.1676C179.08 18.1051 179.435 18.0057 179.656 17.8693C179.878 17.733 179.989 17.5114 179.989 17.2045V17.1449C179.989 16.4006 179.778 15.8239 179.358 15.4148C178.943 15.0057 178.324 14.8011 177.5 14.8011C176.642 14.8011 175.966 14.9915 175.472 15.3722C174.983 15.7472 174.645 16.1648 174.457 16.625L172.062 16.0795C172.347 15.2841 172.761 14.642 173.307 14.1534C173.858 13.6591 174.491 13.3011 175.207 13.0795C175.923 12.8523 176.676 12.7386 177.466 12.7386C177.989 12.7386 178.543 12.8011 179.128 12.9261C179.719 13.0455 180.27 13.267 180.781 13.5909C181.298 13.9148 181.722 14.3778 182.051 14.9801C182.381 15.5767 182.545 16.3523 182.545 17.3068V26H180.057V24.2102H179.955C179.79 24.5398 179.543 24.8636 179.213 25.1818C178.884 25.5 178.46 25.7642 177.943 25.9744C177.426 26.1847 176.807 26.2898 176.085 26.2898ZM176.639 24.2443C177.344 24.2443 177.946 24.1051 178.446 23.8267C178.952 23.5483 179.335 23.1847 179.597 22.7358C179.864 22.2812 179.997 21.7955 179.997 21.2784V19.5909C179.906 19.6818 179.73 19.767 179.469 19.8466C179.213 19.9205 178.92 19.9858 178.591 20.0426C178.261 20.0937 177.94 20.142 177.628 20.1875C177.315 20.2273 177.054 20.2614 176.844 20.2898C176.349 20.3523 175.898 20.4574 175.489 20.6051C175.085 20.7528 174.761 20.9659 174.517 21.2443C174.278 21.517 174.159 21.8807 174.159 22.3352C174.159 22.9659 174.392 23.4432 174.858 23.767C175.324 24.0852 175.918 24.2443 176.639 24.2443ZM188.488 8.54545V26H185.94V8.54545H188.488Z" fill="white"/>
</svg>
