<svg width="321" height="35" viewBox="0 0 321 35" fill="none" xmlns="http://www.w3.org/2000/svg">
<rect width="321" height="35" fill="#FD5285"/>
<path d="M12.9176 8.54545H16.1136L21.6705 22.1136H21.875L27.4318 8.54545H30.6278V26H28.1222V13.3693H27.9602L22.8125 25.9744H20.733L15.5852 13.3608H15.4233V26H12.9176V8.54545ZM39.8942 26.2642C38.6044 26.2642 37.4936 25.9886 36.5618 25.4375C35.6357 24.8807 34.9197 24.0994 34.4141 23.0938C33.9141 22.0824 33.6641 20.8977 33.6641 19.5398C33.6641 18.1989 33.9141 17.017 34.4141 15.9943C34.9197 14.9716 35.6243 14.1733 36.5277 13.5994C37.4368 13.0256 38.4993 12.7386 39.7152 12.7386C40.4538 12.7386 41.1697 12.8608 41.8629 13.1051C42.5561 13.3494 43.1783 13.733 43.7294 14.2557C44.2805 14.7784 44.7152 15.4574 45.0334 16.2926C45.3516 17.1222 45.5107 18.1307 45.5107 19.3182V20.2216H35.1044V18.3125H43.0135C43.0135 17.642 42.8771 17.0483 42.6044 16.5312C42.3317 16.0085 41.9482 15.5966 41.4538 15.2955C40.9652 14.9943 40.3913 14.8438 39.7322 14.8438C39.0163 14.8438 38.3913 15.0199 37.8572 15.3722C37.3288 15.7187 36.9197 16.1733 36.63 16.7358C36.3459 17.2926 36.2038 17.8977 36.2038 18.5511V20.0426C36.2038 20.9176 36.3572 21.6619 36.6641 22.2756C36.9766 22.8892 37.4112 23.358 37.968 23.6818C38.5249 24 39.1754 24.1591 39.9197 24.1591C40.4027 24.1591 40.843 24.0909 41.2408 23.9545C41.6385 23.8125 41.9822 23.6023 42.272 23.3239C42.5618 23.0455 42.7834 22.7017 42.9368 22.2926L45.3487 22.7273C45.1555 23.4375 44.8089 24.0597 44.3089 24.5938C43.8146 25.1222 43.1925 25.5341 42.4425 25.8295C41.6982 26.1193 40.8487 26.2642 39.8942 26.2642ZM38.5646 11.1619L40.5589 7.23295H43.2436L40.6016 11.1619H38.5646ZM50.0447 12.9091L52.9339 18.0057L55.8487 12.9091H58.6357L54.5533 19.4545L58.6697 26H55.8828L52.9339 21.108L49.9936 26H47.1982L51.272 19.4545L47.2493 12.9091H50.0447ZM61.2521 26V12.9091H63.8004V26H61.2521ZM62.5391 10.8892C62.0959 10.8892 61.7152 10.7415 61.397 10.446C61.0845 10.1449 60.9283 9.78693 60.9283 9.37216C60.9283 8.9517 61.0845 8.59375 61.397 8.29829C61.7152 7.99716 62.0959 7.84659 62.5391 7.84659C62.9822 7.84659 63.3601 7.99716 63.6726 8.29829C63.9908 8.59375 64.1499 8.9517 64.1499 9.37216C64.1499 9.78693 63.9908 10.1449 63.6726 10.446C63.3601 10.7415 62.9822 10.8892 62.5391 10.8892ZM72.7429 26.2642C71.4759 26.2642 70.3849 25.9773 69.4702 25.4034C68.5611 24.8239 67.8622 24.0256 67.3736 23.0085C66.8849 21.9915 66.6406 20.8267 66.6406 19.5142C66.6406 18.1847 66.8906 17.0114 67.3906 15.9943C67.8906 14.9716 68.5952 14.1733 69.5043 13.5994C70.4134 13.0256 71.4844 12.7386 72.7173 12.7386C73.7116 12.7386 74.598 12.9233 75.3764 13.2926C76.1548 13.6562 76.7827 14.1676 77.2599 14.8267C77.7429 15.4858 78.0298 16.2557 78.1207 17.1364H75.6406C75.5043 16.5227 75.1918 15.9943 74.7031 15.5511C74.2202 15.108 73.5724 14.8864 72.7599 14.8864C72.0497 14.8864 71.4276 15.0739 70.8935 15.4489C70.3651 15.8182 69.9531 16.3466 69.6577 17.0341C69.3622 17.7159 69.2145 18.5227 69.2145 19.4545C69.2145 20.4091 69.3594 21.233 69.6491 21.9261C69.9389 22.6193 70.348 23.1562 70.8764 23.5369C71.4105 23.9176 72.0384 24.108 72.7599 24.108C73.2429 24.108 73.6804 24.0199 74.0724 23.8438C74.4702 23.6619 74.8026 23.4034 75.0696 23.0682C75.3423 22.733 75.5327 22.3295 75.6406 21.858H78.1207C78.0298 22.7045 77.7543 23.4602 77.294 24.125C76.8338 24.7898 76.2173 25.3125 75.4446 25.6932C74.6776 26.0739 73.777 26.2642 72.7429 26.2642ZM86.3601 26.2642C85.1328 26.2642 84.0618 25.983 83.147 25.4205C82.2322 24.858 81.522 24.071 81.0163 23.0597C80.5107 22.0483 80.2578 20.8665 80.2578 19.5142C80.2578 18.1562 80.5107 16.9687 81.0163 15.9517C81.522 14.9347 82.2322 14.1449 83.147 13.5824C84.0618 13.0199 85.1328 12.7386 86.3601 12.7386C87.5874 12.7386 88.6584 13.0199 89.5732 13.5824C90.4879 14.1449 91.1982 14.9347 91.7038 15.9517C92.2095 16.9687 92.4624 18.1562 92.4624 19.5142C92.4624 20.8665 92.2095 22.0483 91.7038 23.0597C91.1982 24.071 90.4879 24.858 89.5732 25.4205C88.6584 25.983 87.5874 26.2642 86.3601 26.2642ZM86.3686 24.125C87.1641 24.125 87.8232 23.9148 88.3459 23.4943C88.8686 23.0739 89.255 22.5142 89.505 21.8153C89.7607 21.1165 89.8885 20.3466 89.8885 19.5057C89.8885 18.6705 89.7607 17.9034 89.505 17.2045C89.255 16.5 88.8686 15.9347 88.3459 15.5085C87.8232 15.0824 87.1641 14.8693 86.3686 14.8693C85.5675 14.8693 84.9027 15.0824 84.3743 15.5085C83.8516 15.9347 83.4624 16.5 83.2067 17.2045C82.9567 17.9034 82.8317 18.6705 82.8317 19.5057C82.8317 20.3466 82.9567 21.1165 83.2067 21.8153C83.4624 22.5142 83.8516 23.0739 84.3743 23.4943C84.9027 23.9148 85.5675 24.125 86.3686 24.125ZM107.3 26.2642C106.011 26.2642 104.9 25.9886 103.968 25.4375C103.042 24.8807 102.326 24.0994 101.82 23.0938C101.32 22.0824 101.07 20.8977 101.07 19.5398C101.07 18.1989 101.32 17.017 101.82 15.9943C102.326 14.9716 103.031 14.1733 103.934 13.5994C104.843 13.0256 105.906 12.7386 107.121 12.7386C107.86 12.7386 108.576 12.8608 109.269 13.1051C109.962 13.3494 110.585 13.733 111.136 14.2557C111.687 14.7784 112.121 15.4574 112.44 16.2926C112.758 17.1222 112.917 18.1307 112.917 19.3182V20.2216H102.511V18.3125H110.42C110.42 17.642 110.283 17.0483 110.011 16.5312C109.738 16.0085 109.354 15.5966 108.86 15.2955C108.371 14.9943 107.798 14.8438 107.138 14.8438C106.423 14.8438 105.798 15.0199 105.263 15.3722C104.735 15.7187 104.326 16.1733 104.036 16.7358C103.752 17.2926 103.61 17.8977 103.61 18.5511V20.0426C103.61 20.9176 103.763 21.6619 104.07 22.2756C104.383 22.8892 104.817 23.358 105.374 23.6818C105.931 24 106.582 24.1591 107.326 24.1591C107.809 24.1591 108.249 24.0909 108.647 23.9545C109.045 23.8125 109.388 23.6023 109.678 23.3239C109.968 23.0455 110.19 22.7017 110.343 22.2926L112.755 22.7273C112.562 23.4375 112.215 24.0597 111.715 24.5938C111.221 25.1222 110.599 25.5341 109.849 25.8295C109.104 26.1193 108.255 26.2642 107.3 26.2642ZM118.293 18.2273V26H115.744V12.9091H118.19V15.0398H118.352C118.653 14.3466 119.125 13.7898 119.767 13.3693C120.415 12.9489 121.23 12.7386 122.213 12.7386C123.105 12.7386 123.886 12.9261 124.557 13.3011C125.227 13.6705 125.747 14.2216 126.116 14.9545C126.486 15.6875 126.67 16.5937 126.67 17.6733V26H124.122V17.9801C124.122 17.0312 123.875 16.2898 123.381 15.7557C122.886 15.2159 122.207 14.946 121.344 14.946C120.753 14.946 120.227 15.0739 119.767 15.3295C119.313 15.5852 118.952 15.9602 118.685 16.4545C118.423 16.9432 118.293 17.5341 118.293 18.2273ZM142.082 26.2642C140.792 26.2642 139.681 25.9886 138.749 25.4375C137.823 24.8807 137.107 24.0994 136.602 23.0938C136.102 22.0824 135.852 20.8977 135.852 19.5398C135.852 18.1989 136.102 17.017 136.602 15.9943C137.107 14.9716 137.812 14.1733 138.715 13.5994C139.624 13.0256 140.687 12.7386 141.903 12.7386C142.641 12.7386 143.357 12.8608 144.05 13.1051C144.744 13.3494 145.366 13.733 145.917 14.2557C146.468 14.7784 146.903 15.4574 147.221 16.2926C147.539 17.1222 147.698 18.1307 147.698 19.3182V20.2216H137.292V18.3125H145.201C145.201 17.642 145.065 17.0483 144.792 16.5312C144.519 16.0085 144.136 15.5966 143.641 15.2955C143.153 14.9943 142.579 14.8438 141.92 14.8438C141.204 14.8438 140.579 15.0199 140.045 15.3722C139.516 15.7187 139.107 16.1733 138.817 16.7358C138.533 17.2926 138.391 17.8977 138.391 18.5511V20.0426C138.391 20.9176 138.545 21.6619 138.852 22.2756C139.164 22.8892 139.599 23.358 140.156 23.6818C140.712 24 141.363 24.1591 142.107 24.1591C142.59 24.1591 143.031 24.0909 143.428 23.9545C143.826 23.8125 144.17 23.6023 144.46 23.3239C144.749 23.0455 144.971 22.7017 145.124 22.2926L147.536 22.7273C147.343 23.4375 146.996 24.0597 146.496 24.5938C146.002 25.1222 145.38 25.5341 144.63 25.8295C143.886 26.1193 143.036 26.2642 142.082 26.2642ZM153.074 8.54545V26H150.526V8.54545H153.074ZM172.578 13.1307C172.487 12.3239 172.112 11.6989 171.453 11.2557C170.794 10.8068 169.964 10.5824 168.964 10.5824C168.249 10.5824 167.629 10.696 167.107 10.9233C166.584 11.1449 166.178 11.4517 165.888 11.8438C165.604 12.2301 165.462 12.6705 165.462 13.1648C165.462 13.5795 165.558 13.9375 165.751 14.2386C165.95 14.5398 166.209 14.7926 166.527 14.9972C166.851 15.196 167.197 15.3636 167.567 15.5C167.936 15.6307 168.291 15.7386 168.632 15.8239L170.337 16.267C170.893 16.4034 171.464 16.5881 172.05 16.821C172.635 17.054 173.178 17.3608 173.678 17.7415C174.178 18.1222 174.581 18.5938 174.888 19.1562C175.2 19.7188 175.357 20.392 175.357 21.1761C175.357 22.1648 175.101 23.0426 174.589 23.8097C174.084 24.5767 173.348 25.1818 172.382 25.625C171.422 26.0682 170.26 26.2898 168.896 26.2898C167.589 26.2898 166.459 26.0824 165.504 25.6676C164.55 25.2528 163.803 24.6648 163.263 23.9034C162.723 23.1364 162.425 22.2273 162.368 21.1761H165.01C165.061 21.8068 165.266 22.3324 165.624 22.7528C165.987 23.1676 166.45 23.4773 167.013 23.6818C167.581 23.8807 168.203 23.9801 168.879 23.9801C169.624 23.9801 170.286 23.8636 170.865 23.6307C171.45 23.392 171.911 23.0625 172.246 22.642C172.581 22.2159 172.749 21.7187 172.749 21.1506C172.749 20.6335 172.601 20.2102 172.305 19.8807C172.016 19.5511 171.621 19.2784 171.121 19.0625C170.626 18.8466 170.067 18.6562 169.442 18.4915L167.379 17.929C165.982 17.5483 164.874 16.9886 164.055 16.25C163.243 15.5114 162.837 14.5341 162.837 13.3182C162.837 12.3125 163.109 11.4347 163.655 10.6847C164.2 9.93466 164.939 9.35227 165.871 8.9375C166.803 8.51705 167.854 8.30682 169.024 8.30682C170.206 8.30682 171.249 8.5142 172.152 8.92898C173.061 9.34375 173.777 9.91477 174.3 10.642C174.822 11.3636 175.095 12.1932 175.118 13.1307H172.578ZM178.299 26V12.9091H180.847V26H178.299ZM179.586 10.8892C179.143 10.8892 178.762 10.7415 178.444 10.446C178.131 10.1449 177.975 9.78693 177.975 9.37216C177.975 8.9517 178.131 8.59375 178.444 8.29829C178.762 7.99716 179.143 7.84659 179.586 7.84659C180.029 7.84659 180.407 7.99716 180.719 8.29829C181.038 8.59375 181.197 8.9517 181.197 9.37216C181.197 9.78693 181.038 10.1449 180.719 10.446C180.407 10.7415 180.029 10.8892 179.586 10.8892ZM189.764 31.1818C188.724 31.1818 187.83 31.0455 187.08 30.7727C186.335 30.5 185.727 30.1392 185.256 29.6903C184.784 29.2415 184.432 28.75 184.199 28.2159L186.389 27.3125C186.543 27.5625 186.747 27.8267 187.003 28.1051C187.264 28.3892 187.616 28.6307 188.06 28.8295C188.509 29.0284 189.085 29.1278 189.79 29.1278C190.756 29.1278 191.554 28.892 192.185 28.4205C192.815 27.9545 193.131 27.2102 193.131 26.1875V23.6136H192.969C192.815 23.892 192.594 24.2017 192.304 24.5426C192.02 24.8835 191.628 25.179 191.128 25.429C190.628 25.679 189.977 25.804 189.176 25.804C188.142 25.804 187.21 25.5625 186.381 25.0795C185.557 24.5909 184.903 23.8722 184.42 22.9233C183.943 21.9687 183.705 20.7955 183.705 19.4034C183.705 18.0114 183.94 16.8182 184.412 15.8239C184.889 14.8295 185.543 14.0682 186.372 13.5398C187.202 13.0057 188.142 12.7386 189.193 12.7386C190.006 12.7386 190.662 12.875 191.162 13.1477C191.662 13.4148 192.051 13.7273 192.33 14.0852C192.614 14.4432 192.832 14.7585 192.986 15.0312H193.173V12.9091H195.67V26.2898C195.67 27.4148 195.409 28.3381 194.886 29.0597C194.364 29.7813 193.656 30.3153 192.764 30.6619C191.878 31.0085 190.878 31.1818 189.764 31.1818ZM189.739 23.6903C190.472 23.6903 191.091 23.5199 191.597 23.179C192.108 22.8324 192.494 22.3381 192.756 21.696C193.023 21.0483 193.156 20.2727 193.156 19.3693C193.156 18.4886 193.026 17.7131 192.764 17.0426C192.503 16.3722 192.119 15.8494 191.614 15.4744C191.108 15.0937 190.483 14.9034 189.739 14.9034C188.972 14.9034 188.332 15.1023 187.821 15.5C187.31 15.892 186.923 16.4261 186.662 17.1023C186.406 17.7784 186.278 18.5341 186.278 19.3693C186.278 20.2273 186.409 20.9801 186.67 21.6278C186.932 22.2756 187.318 22.7812 187.83 23.1449C188.347 23.5085 188.983 23.6903 189.739 23.6903ZM201.636 8.54545V26H199.088V8.54545H201.636ZM210.579 26.2642C209.352 26.2642 208.281 25.983 207.366 25.4205C206.451 24.858 205.741 24.071 205.235 23.0597C204.729 22.0483 204.477 20.8665 204.477 19.5142C204.477 18.1562 204.729 16.9687 205.235 15.9517C205.741 14.9347 206.451 14.1449 207.366 13.5824C208.281 13.0199 209.352 12.7386 210.579 12.7386C211.806 12.7386 212.877 13.0199 213.792 13.5824C214.707 14.1449 215.417 14.9347 215.923 15.9517C216.428 16.9687 216.681 18.1562 216.681 19.5142C216.681 20.8665 216.428 22.0483 215.923 23.0597C215.417 24.071 214.707 24.858 213.792 25.4205C212.877 25.983 211.806 26.2642 210.579 26.2642ZM210.587 24.125C211.383 24.125 212.042 23.9148 212.565 23.4943C213.087 23.0739 213.474 22.5142 213.724 21.8153C213.979 21.1165 214.107 20.3466 214.107 19.5057C214.107 18.6705 213.979 17.9034 213.724 17.2045C213.474 16.5 213.087 15.9347 212.565 15.5085C212.042 15.0824 211.383 14.8693 210.587 14.8693C209.786 14.8693 209.121 15.0824 208.593 15.5085C208.07 15.9347 207.681 16.5 207.425 17.2045C207.175 17.9034 207.05 18.6705 207.05 19.5057C207.05 20.3466 207.175 21.1165 207.425 21.8153C207.681 22.5142 208.07 23.0739 208.593 23.4943C209.121 23.9148 209.786 24.125 210.587 24.125ZM227.914 8.54545L232.09 15.3722H232.227L236.403 8.54545H239.454L234.016 17.2727L239.488 26H236.42L232.227 19.267H232.09L227.897 26H224.829L230.394 17.2727L224.863 8.54545H227.914ZM243.898 8.54545L248.075 15.3722H248.211L252.387 8.54545H255.438L250.001 17.2727L255.472 26H252.404L248.211 19.267H248.075L243.881 26H240.813L246.379 17.2727L240.847 8.54545H243.898ZM260.684 8.54545V26H258.05V8.54545H260.684Z" fill="white"/>
</svg>
