<svg width="321" height="35" viewBox="0 0 321 35" fill="none" xmlns="http://www.w3.org/2000/svg">
<rect width="321" height="35" fill="#71BC78"/>
<path d="M12.9176 26V8.54545H19.1392C20.4972 8.54545 21.6222 8.79261 22.5142 9.28693C23.4063 9.78125 24.0739 10.4574 24.517 11.3153C24.9602 12.1676 25.1818 13.1278 25.1818 14.196C25.1818 15.2699 24.9574 16.2358 24.5085 17.0938C24.0653 17.946 23.3949 18.6222 22.4972 19.1222C21.6051 19.6165 20.483 19.8636 19.1307 19.8636H14.8523V17.6307H18.892C19.75 17.6307 20.446 17.483 20.9801 17.1875C21.5142 16.8864 21.9062 16.4773 22.1562 15.9602C22.4062 15.4432 22.5312 14.8551 22.5312 14.196C22.5312 13.5369 22.4062 12.9517 22.1562 12.4403C21.9062 11.929 21.5114 11.5284 20.9716 11.2386C20.4375 10.9489 19.733 10.804 18.858 10.804H15.5511V26H12.9176ZM33.5426 26.2642C32.2528 26.2642 31.142 25.9886 30.2102 25.4375C29.2841 24.8807 28.5682 24.0994 28.0625 23.0938C27.5625 22.0824 27.3125 20.8977 27.3125 19.5398C27.3125 18.1989 27.5625 17.017 28.0625 15.9943C28.5682 14.9716 29.2727 14.1733 30.1761 13.5994C31.0852 13.0256 32.1477 12.7386 33.3636 12.7386C34.1023 12.7386 34.8182 12.8608 35.5114 13.1051C36.2045 13.3494 36.8267 13.733 37.3778 14.2557C37.929 14.7784 38.3636 15.4574 38.6818 16.2926C39 17.1222 39.1591 18.1307 39.1591 19.3182V20.2216H28.7528V18.3125H36.6619C36.6619 17.642 36.5256 17.0483 36.2528 16.5312C35.9801 16.0085 35.5966 15.5966 35.1023 15.2955C34.6136 14.9943 34.0398 14.8438 33.3807 14.8438C32.6648 14.8438 32.0398 15.0199 31.5057 15.3722C30.9773 15.7187 30.5682 16.1733 30.2784 16.7358C29.9943 17.2926 29.8523 17.8977 29.8523 18.5511V20.0426C29.8523 20.9176 30.0057 21.6619 30.3125 22.2756C30.625 22.8892 31.0597 23.358 31.6165 23.6818C32.1733 24 32.8239 24.1591 33.5682 24.1591C34.0511 24.1591 34.4915 24.0909 34.8892 23.9545C35.2869 23.8125 35.6307 23.6023 35.9205 23.3239C36.2102 23.0455 36.4318 22.7017 36.5852 22.2926L38.9972 22.7273C38.804 23.4375 38.4574 24.0597 37.9574 24.5938C37.4631 25.1222 36.8409 25.5341 36.0909 25.8295C35.3466 26.1193 34.4972 26.2642 33.5426 26.2642ZM44.5348 18.2273V26H41.9865V12.9091H44.4325V15.0398H44.5945C44.8956 14.3466 45.3672 13.7898 46.0092 13.3693C46.657 12.9489 47.4723 12.7386 48.4553 12.7386C49.3473 12.7386 50.1286 12.9261 50.799 13.3011C51.4695 13.6705 51.9893 14.2216 52.3587 14.9545C52.728 15.6875 52.9126 16.5937 52.9126 17.6733V26H50.3643V17.9801C50.3643 17.0312 50.1172 16.2898 49.6229 15.7557C49.1286 15.2159 48.4496 14.946 47.5859 14.946C46.995 14.946 46.4695 15.0739 46.0092 15.3295C45.5547 15.5852 45.1939 15.9602 44.9268 16.4545C44.6655 16.9432 44.5348 17.5341 44.5348 18.2273ZM66.1399 16.1051L63.8303 16.5142C63.7337 16.2187 63.5803 15.9375 63.37 15.6705C63.1655 15.4034 62.8871 15.1847 62.5348 15.0142C62.1825 14.8437 61.7422 14.7585 61.2138 14.7585C60.4922 14.7585 59.8899 14.9205 59.407 15.2443C58.924 15.5625 58.6825 15.9744 58.6825 16.4801C58.6825 16.9176 58.8445 17.2699 59.1683 17.5369C59.4922 17.804 60.0149 18.0227 60.7365 18.1932L62.8161 18.6705C64.0206 18.9489 64.9183 19.3778 65.5092 19.9574C66.1001 20.5369 66.3956 21.2898 66.3956 22.2159C66.3956 23 66.1683 23.6989 65.7138 24.3125C65.2649 24.9205 64.6371 25.3977 63.8303 25.7443C63.0291 26.0909 62.1001 26.2642 61.0433 26.2642C59.5774 26.2642 58.3814 25.9517 57.4553 25.3267C56.5291 24.696 55.9609 23.8011 55.7507 22.642L58.2138 22.267C58.3672 22.9091 58.6825 23.3949 59.1598 23.7244C59.6371 24.0483 60.2592 24.2102 61.0263 24.2102C61.8615 24.2102 62.5291 24.0369 63.0291 23.6903C63.5291 23.3381 63.7791 22.9091 63.7791 22.4034C63.7791 21.9943 63.6257 21.6506 63.3189 21.3722C63.0178 21.0937 62.5547 20.8835 61.9297 20.7415L59.7138 20.2557C58.4922 19.9773 57.5888 19.5341 57.0036 18.9261C56.424 18.3182 56.1342 17.5483 56.1342 16.6165C56.1342 15.8437 56.3501 15.1676 56.782 14.5881C57.2138 14.0085 57.8104 13.5568 58.5717 13.233C59.3331 12.9034 60.2053 12.7386 61.1882 12.7386C62.603 12.7386 63.7166 13.0455 64.5291 13.6591C65.3416 14.267 65.8786 15.0824 66.1399 16.1051ZM73.0071 26.2898C72.1776 26.2898 71.4276 26.1364 70.7571 25.8295C70.0866 25.517 69.5554 25.0653 69.1634 24.4744C68.777 23.8835 68.5838 23.1591 68.5838 22.3011C68.5838 21.5625 68.7259 20.9545 69.0099 20.4773C69.294 20 69.6776 19.6222 70.1605 19.3438C70.6435 19.0653 71.1832 18.8551 71.7798 18.7131C72.3764 18.571 72.9844 18.4631 73.6037 18.3892C74.3878 18.2983 75.0241 18.2244 75.5128 18.1676C76.0014 18.1051 76.3565 18.0057 76.5781 17.8693C76.7997 17.733 76.9105 17.5114 76.9105 17.2045V17.1449C76.9105 16.4006 76.7003 15.8239 76.2798 15.4148C75.8651 15.0057 75.2457 14.8011 74.4219 14.8011C73.5639 14.8011 72.8878 14.9915 72.3935 15.3722C71.9048 15.7472 71.5668 16.1648 71.3793 16.625L68.9844 16.0795C69.2685 15.2841 69.6832 14.642 70.2287 14.1534C70.7798 13.6591 71.4134 13.3011 72.1293 13.0795C72.8452 12.8523 73.598 12.7386 74.3878 12.7386C74.9105 12.7386 75.4645 12.8011 76.0497 12.9261C76.6406 13.0455 77.1918 13.267 77.7031 13.5909C78.2202 13.9148 78.6435 14.3778 78.973 14.9801C79.3026 15.5767 79.4673 16.3523 79.4673 17.3068V26H76.9787V24.2102H76.8764C76.7116 24.5398 76.4645 24.8636 76.1349 25.1818C75.8054 25.5 75.3821 25.7642 74.8651 25.9744C74.348 26.1847 73.7287 26.2898 73.0071 26.2898ZM73.5611 24.2443C74.2656 24.2443 74.8679 24.1051 75.3679 23.8267C75.8736 23.5483 76.2571 23.1847 76.5185 22.7358C76.7855 22.2812 76.919 21.7955 76.919 21.2784V19.5909C76.8281 19.6818 76.652 19.767 76.3906 19.8466C76.1349 19.9205 75.8423 19.9858 75.5128 20.0426C75.1832 20.0937 74.8622 20.142 74.5497 20.1875C74.2372 20.2273 73.9759 20.2614 73.7656 20.2898C73.2713 20.3523 72.8196 20.4574 72.4105 20.6051C72.0071 20.7528 71.6832 20.9659 71.4389 21.2443C71.2003 21.517 71.081 21.8807 71.081 22.3352C71.081 22.9659 71.3139 23.4432 71.7798 23.767C72.2457 24.0852 72.8395 24.2443 73.5611 24.2443ZM82.8615 26V12.9091H85.3075V15.0398H85.4695C85.7422 14.3182 86.1882 13.7557 86.8075 13.3523C87.4268 12.9432 88.1683 12.7386 89.032 12.7386C89.907 12.7386 90.6399 12.9432 91.2308 13.3523C91.8274 13.7614 92.2678 14.3239 92.5518 15.0398H92.6882C93.0007 14.3409 93.4979 13.7841 94.1797 13.3693C94.8615 12.9489 95.674 12.7386 96.6172 12.7386C97.8047 12.7386 98.7734 13.1108 99.5234 13.8551C100.279 14.5994 100.657 15.7216 100.657 17.2216V26H98.1087V17.4602C98.1087 16.5739 97.8672 15.9318 97.3842 15.5341C96.9013 15.1364 96.3246 14.9375 95.6541 14.9375C94.8246 14.9375 94.1797 15.1932 93.7195 15.7045C93.2592 16.2102 93.0291 16.8608 93.0291 17.6562V26H90.4893V17.2983C90.4893 16.5881 90.2678 16.017 89.8246 15.5852C89.3814 15.1534 88.8047 14.9375 88.0945 14.9375C87.6115 14.9375 87.1655 15.0653 86.7564 15.321C86.353 15.571 86.0263 15.9205 85.7763 16.3693C85.532 16.8182 85.4098 17.3381 85.4098 17.929V26H82.8615ZM104.072 26V12.9091H106.621V26H104.072ZM105.359 10.8892C104.916 10.8892 104.536 10.7415 104.217 10.446C103.905 10.1449 103.749 9.78693 103.749 9.37216C103.749 8.9517 103.905 8.59375 104.217 8.29829C104.536 7.99716 104.916 7.84659 105.359 7.84659C105.803 7.84659 106.18 7.99716 106.493 8.29829C106.811 8.59375 106.97 8.9517 106.97 9.37216C106.97 9.78693 106.811 10.1449 106.493 10.446C106.18 10.7415 105.803 10.8892 105.359 10.8892ZM115.691 26.2642C114.401 26.2642 113.29 25.9886 112.359 25.4375C111.433 24.8807 110.717 24.0994 110.211 23.0938C109.711 22.0824 109.461 20.8977 109.461 19.5398C109.461 18.1989 109.711 17.017 110.211 15.9943C110.717 14.9716 111.421 14.1733 112.325 13.5994C113.234 13.0256 114.296 12.7386 115.512 12.7386C116.251 12.7386 116.967 12.8608 117.66 13.1051C118.353 13.3494 118.975 13.733 119.526 14.2557C120.077 14.7784 120.512 15.4574 120.83 16.2926C121.148 17.1222 121.308 18.1307 121.308 19.3182V20.2216H110.901V18.3125H118.81C118.81 17.642 118.674 17.0483 118.401 16.5312C118.129 16.0085 117.745 15.5966 117.251 15.2955C116.762 14.9943 116.188 14.8438 115.529 14.8438C114.813 14.8438 114.188 15.0199 113.654 15.3722C113.126 15.7187 112.717 16.1733 112.427 16.7358C112.143 17.2926 112.001 17.8977 112.001 18.5511V20.0426C112.001 20.9176 112.154 21.6619 112.461 22.2756C112.773 22.8892 113.208 23.358 113.765 23.6818C114.322 24 114.972 24.1591 115.717 24.1591C116.2 24.1591 116.64 24.0909 117.038 23.9545C117.435 23.8125 117.779 23.6023 118.069 23.3239C118.359 23.0455 118.58 22.7017 118.734 22.2926L121.146 22.7273C120.952 23.4375 120.606 24.0597 120.106 24.5938C119.612 25.1222 118.989 25.5341 118.239 25.8295C117.495 26.1193 116.646 26.2642 115.691 26.2642ZM126.683 18.2273V26H124.135V12.9091H126.581V15.0398H126.743C127.044 14.3466 127.516 13.7898 128.158 13.3693C128.805 12.9489 129.621 12.7386 130.604 12.7386C131.496 12.7386 132.277 12.9261 132.947 13.3011C133.618 13.6705 134.138 14.2216 134.507 14.9545C134.876 15.6875 135.061 16.5937 135.061 17.6733V26H132.513V17.9801C132.513 17.0312 132.266 16.2898 131.771 15.7557C131.277 15.2159 130.598 14.946 129.734 14.946C129.143 14.946 128.618 15.0739 128.158 15.3295C127.703 15.5852 127.342 15.9602 127.075 16.4545C126.814 16.9432 126.683 17.5341 126.683 18.2273ZM144.589 12.9091V14.9545H137.439V12.9091H144.589ZM139.357 9.77273H141.905V22.1562C141.905 22.6506 141.979 23.0227 142.126 23.2727C142.274 23.517 142.464 23.6847 142.697 23.7756C142.936 23.8608 143.195 23.9034 143.473 23.9034C143.678 23.9034 143.857 23.8892 144.01 23.8608C144.163 23.8324 144.283 23.8097 144.368 23.7926L144.828 25.8977C144.68 25.9545 144.47 26.0114 144.197 26.0682C143.925 26.1307 143.584 26.1648 143.175 26.1705C142.504 26.1818 141.879 26.0625 141.3 25.8125C140.72 25.5625 140.251 25.1761 139.893 24.6534C139.536 24.1307 139.357 23.4744 139.357 22.6847V9.77273ZM152.782 26.2642C151.555 26.2642 150.484 25.983 149.569 25.4205C148.654 24.858 147.944 24.071 147.438 23.0597C146.933 22.0483 146.68 20.8665 146.68 19.5142C146.68 18.1562 146.933 16.9687 147.438 15.9517C147.944 14.9347 148.654 14.1449 149.569 13.5824C150.484 13.0199 151.555 12.7386 152.782 12.7386C154.009 12.7386 155.08 13.0199 155.995 13.5824C156.91 14.1449 157.62 14.9347 158.126 15.9517C158.631 16.9687 158.884 18.1562 158.884 19.5142C158.884 20.8665 158.631 22.0483 158.126 23.0597C157.62 24.071 156.91 24.858 155.995 25.4205C155.08 25.983 154.009 26.2642 152.782 26.2642ZM152.79 24.125C153.586 24.125 154.245 23.9148 154.768 23.4943C155.29 23.0739 155.677 22.5142 155.927 21.8153C156.183 21.1165 156.31 20.3466 156.31 19.5057C156.31 18.6705 156.183 17.9034 155.927 17.2045C155.677 16.5 155.29 15.9347 154.768 15.5085C154.245 15.0824 153.586 14.8693 152.79 14.8693C151.989 14.8693 151.325 15.0824 150.796 15.5085C150.273 15.9347 149.884 16.5 149.629 17.2045C149.379 17.9034 149.254 18.6705 149.254 19.5057C149.254 20.3466 149.379 21.1165 149.629 21.8153C149.884 22.5142 150.273 23.0739 150.796 23.4943C151.325 23.9148 151.989 24.125 152.79 24.125ZM168.285 26V8.54545H179.109V10.8125H170.918V16.1307H178.333V18.3892H170.918V26H168.285ZM182.143 26V12.9091H184.691V26H182.143ZM183.43 10.8892C182.987 10.8892 182.606 10.7415 182.288 10.446C181.975 10.1449 181.819 9.78693 181.819 9.37216C181.819 8.9517 181.975 8.59375 182.288 8.29829C182.606 7.99716 182.987 7.84659 183.43 7.84659C183.873 7.84659 184.251 7.99716 184.563 8.29829C184.881 8.59375 185.04 8.9517 185.04 9.37216C185.04 9.78693 184.881 10.1449 184.563 10.446C184.251 10.7415 183.873 10.8892 183.43 10.8892ZM190.668 8.54545V26H188.119V8.54545H190.668ZM199.61 26.2642C198.383 26.2642 197.312 25.983 196.397 25.4205C195.482 24.858 194.772 24.071 194.266 23.0597C193.761 22.0483 193.508 20.8665 193.508 19.5142C193.508 18.1562 193.761 16.9687 194.266 15.9517C194.772 14.9347 195.482 14.1449 196.397 13.5824C197.312 13.0199 198.383 12.7386 199.61 12.7386C200.837 12.7386 201.908 13.0199 202.823 13.5824C203.738 14.1449 204.448 14.9347 204.954 15.9517C205.46 16.9687 205.712 18.1562 205.712 19.5142C205.712 20.8665 205.46 22.0483 204.954 23.0597C204.448 24.071 203.738 24.858 202.823 25.4205C201.908 25.983 200.837 26.2642 199.61 26.2642ZM199.619 24.125C200.414 24.125 201.073 23.9148 201.596 23.4943C202.119 23.0739 202.505 22.5142 202.755 21.8153C203.011 21.1165 203.138 20.3466 203.138 19.5057C203.138 18.6705 203.011 17.9034 202.755 17.2045C202.505 16.5 202.119 15.9347 201.596 15.5085C201.073 15.0824 200.414 14.8693 199.619 14.8693C198.817 14.8693 198.153 15.0824 197.624 15.5085C197.102 15.9347 196.712 16.5 196.457 17.2045C196.207 17.9034 196.082 18.6705 196.082 19.5057C196.082 20.3466 196.207 21.1165 196.457 21.8153C196.712 22.5142 197.102 23.0739 197.624 23.4943C198.153 23.9148 198.817 24.125 199.619 24.125ZM218.366 16.1051L216.057 16.5142C215.96 16.2187 215.807 15.9375 215.597 15.6705C215.392 15.4034 215.114 15.1847 214.761 15.0142C214.409 14.8437 213.969 14.7585 213.44 14.7585C212.719 14.7585 212.116 14.9205 211.634 15.2443C211.151 15.5625 210.909 15.9744 210.909 16.4801C210.909 16.9176 211.071 17.2699 211.395 17.5369C211.719 17.804 212.241 18.0227 212.963 18.1932L215.043 18.6705C216.247 18.9489 217.145 19.3778 217.736 19.9574C218.327 20.5369 218.622 21.2898 218.622 22.2159C218.622 23 218.395 23.6989 217.94 24.3125C217.491 24.9205 216.864 25.3977 216.057 25.7443C215.256 26.0909 214.327 26.2642 213.27 26.2642C211.804 26.2642 210.608 25.9517 209.682 25.3267C208.756 24.696 208.188 23.8011 207.977 22.642L210.44 22.267C210.594 22.9091 210.909 23.3949 211.386 23.7244C211.864 24.0483 212.486 24.2102 213.253 24.2102C214.088 24.2102 214.756 24.0369 215.256 23.6903C215.756 23.3381 216.006 22.9091 216.006 22.4034C216.006 21.9943 215.852 21.6506 215.545 21.3722C215.244 21.0937 214.781 20.8835 214.156 20.7415L211.94 20.2557C210.719 19.9773 209.815 19.5341 209.23 18.9261C208.651 18.3182 208.361 17.5483 208.361 16.6165C208.361 15.8437 208.577 15.1676 209.009 14.5881C209.44 14.0085 210.037 13.5568 210.798 13.233C211.56 12.9034 212.432 12.7386 213.415 12.7386C214.83 12.7386 215.943 13.0455 216.756 13.6591C217.568 14.267 218.105 15.0824 218.366 16.1051ZM226.938 26.2642C225.711 26.2642 224.64 25.983 223.725 25.4205C222.81 24.858 222.1 24.071 221.594 23.0597C221.089 22.0483 220.836 20.8665 220.836 19.5142C220.836 18.1562 221.089 16.9687 221.594 15.9517C222.1 14.9347 222.81 14.1449 223.725 13.5824C224.64 13.0199 225.711 12.7386 226.938 12.7386C228.165 12.7386 229.237 13.0199 230.151 13.5824C231.066 14.1449 231.776 14.9347 232.282 15.9517C232.788 16.9687 233.04 18.1562 233.04 19.5142C233.04 20.8665 232.788 22.0483 232.282 23.0597C231.776 24.071 231.066 24.858 230.151 25.4205C229.237 25.983 228.165 26.2642 226.938 26.2642ZM226.947 24.125C227.742 24.125 228.401 23.9148 228.924 23.4943C229.447 23.0739 229.833 22.5142 230.083 21.8153C230.339 21.1165 230.467 20.3466 230.467 19.5057C230.467 18.6705 230.339 17.9034 230.083 17.2045C229.833 16.5 229.447 15.9347 228.924 15.5085C228.401 15.0824 227.742 14.8693 226.947 14.8693C226.146 14.8693 225.481 15.0824 224.952 15.5085C224.43 15.9347 224.04 16.5 223.785 17.2045C223.535 17.9034 223.41 18.6705 223.41 19.5057C223.41 20.3466 223.535 21.1165 223.785 21.8153C224.04 22.5142 224.43 23.0739 224.952 23.4943C225.481 23.9148 226.146 24.125 226.947 24.125ZM225.89 11.1619L227.884 7.23295H230.569L227.927 11.1619H225.89ZM242.115 12.9091V14.9545H234.717V12.9091H242.115ZM236.746 26V11.392C236.746 10.5739 236.925 9.89489 237.283 9.35511C237.641 8.80966 238.115 8.40341 238.706 8.13636C239.297 7.86364 239.939 7.72727 240.632 7.72727C241.143 7.72727 241.581 7.76989 241.945 7.85511C242.308 7.93466 242.578 8.00852 242.754 8.0767L242.158 10.1392C242.038 10.1051 241.885 10.0653 241.697 10.0199C241.51 9.96875 241.283 9.94318 241.016 9.94318C240.396 9.94318 239.953 10.0966 239.686 10.4034C239.425 10.7102 239.294 11.1534 239.294 11.733V26H236.746ZM244.744 26V12.9091H247.293V26H244.744ZM246.031 10.8892C245.588 10.8892 245.207 10.7415 244.889 10.446C244.577 10.1449 244.42 9.78693 244.42 9.37216C244.42 8.9517 244.577 8.59375 244.889 8.29829C245.207 7.99716 245.588 7.84659 246.031 7.84659C246.474 7.84659 246.852 7.99716 247.165 8.29829C247.483 8.59375 247.642 8.9517 247.642 9.37216C247.642 9.78693 247.483 10.1449 247.165 10.446C246.852 10.7415 246.474 10.8892 246.031 10.8892ZM256.235 26.2642C254.968 26.2642 253.877 25.9773 252.962 25.4034C252.053 24.8239 251.354 24.0256 250.866 23.0085C250.377 21.9915 250.133 20.8267 250.133 19.5142C250.133 18.1847 250.383 17.0114 250.883 15.9943C251.383 14.9716 252.087 14.1733 252.996 13.5994C253.906 13.0256 254.977 12.7386 256.21 12.7386C257.204 12.7386 258.09 12.9233 258.869 13.2926C259.647 13.6562 260.275 14.1676 260.752 14.8267C261.235 15.4858 261.522 16.2557 261.613 17.1364H259.133C258.996 16.5227 258.684 15.9943 258.195 15.5511C257.712 15.108 257.065 14.8864 256.252 14.8864C255.542 14.8864 254.92 15.0739 254.386 15.4489C253.857 15.8182 253.445 16.3466 253.15 17.0341C252.854 17.7159 252.707 18.5227 252.707 19.4545C252.707 20.4091 252.852 21.233 253.141 21.9261C253.431 22.6193 253.84 23.1562 254.369 23.5369C254.903 23.9176 255.531 24.108 256.252 24.108C256.735 24.108 257.173 24.0199 257.565 23.8438C257.962 23.6619 258.295 23.4034 258.562 23.0682C258.835 22.733 259.025 22.3295 259.133 21.858H261.613C261.522 22.7045 261.246 23.4602 260.786 24.125C260.326 24.7898 259.71 25.3125 258.937 25.6932C258.17 26.0739 257.269 26.2642 256.235 26.2642ZM269.852 26.2642C268.625 26.2642 267.554 25.983 266.639 25.4205C265.724 24.858 265.014 24.071 264.509 23.0597C264.003 22.0483 263.75 20.8665 263.75 19.5142C263.75 18.1562 264.003 16.9687 264.509 15.9517C265.014 14.9347 265.724 14.1449 266.639 13.5824C267.554 13.0199 268.625 12.7386 269.852 12.7386C271.08 12.7386 272.151 13.0199 273.065 13.5824C273.98 14.1449 274.69 14.9347 275.196 15.9517C275.702 16.9687 275.955 18.1562 275.955 19.5142C275.955 20.8665 275.702 22.0483 275.196 23.0597C274.69 24.071 273.98 24.858 273.065 25.4205C272.151 25.983 271.08 26.2642 269.852 26.2642ZM269.861 24.125C270.656 24.125 271.315 23.9148 271.838 23.4943C272.361 23.0739 272.747 22.5142 272.997 21.8153C273.253 21.1165 273.381 20.3466 273.381 19.5057C273.381 18.6705 273.253 17.9034 272.997 17.2045C272.747 16.5 272.361 15.9347 271.838 15.5085C271.315 15.0824 270.656 14.8693 269.861 14.8693C269.06 14.8693 268.395 15.0824 267.866 15.5085C267.344 15.9347 266.955 16.5 266.699 17.2045C266.449 17.9034 266.324 18.6705 266.324 19.5057C266.324 20.3466 266.449 21.1165 266.699 21.8153C266.955 22.5142 267.344 23.0739 267.866 23.4943C268.395 23.9148 269.06 24.125 269.861 24.125Z" fill="white"/>
</svg>
