<svg width="321" height="35" viewBox="0 0 321 35" fill="none" xmlns="http://www.w3.org/2000/svg">
<rect width="321" height="35" fill="#7442C8"/>
<path d="M22.4375 13.1307C22.3466 12.3239 21.9716 11.6989 21.3125 11.2557C20.6534 10.8068 19.8239 10.5824 18.8239 10.5824C18.108 10.5824 17.4886 10.696 16.9659 10.9233C16.4432 11.1449 16.0369 11.4517 15.7472 11.8438C15.4631 12.2301 15.321 12.6705 15.321 13.1648C15.321 13.5795 15.4176 13.9375 15.6108 14.2386C15.8097 14.5398 16.0682 14.7926 16.3864 14.9972C16.7102 15.196 17.0568 15.3636 17.4261 15.5C17.7955 15.6307 18.1506 15.7386 18.4915 15.8239L20.196 16.267C20.7528 16.4034 21.3239 16.5881 21.9091 16.821C22.4943 17.054 23.0369 17.3608 23.5369 17.7415C24.0369 18.1222 24.4403 18.5938 24.7472 19.1562C25.0597 19.7188 25.2159 20.392 25.2159 21.1761C25.2159 22.1648 24.9602 23.0426 24.4489 23.8097C23.9432 24.5767 23.2074 25.1818 22.2415 25.625C21.2813 26.0682 20.1193 26.2898 18.7557 26.2898C17.4489 26.2898 16.3182 26.0824 15.3636 25.6676C14.4091 25.2528 13.6619 24.6648 13.1222 23.9034C12.5824 23.1364 12.2841 22.2273 12.2273 21.1761H14.8693C14.9205 21.8068 15.125 22.3324 15.483 22.7528C15.8466 23.1676 16.3097 23.4773 16.8722 23.6818C17.4403 23.8807 18.0625 23.9801 18.7386 23.9801C19.483 23.9801 20.1449 23.8636 20.7244 23.6307C21.3097 23.392 21.7699 23.0625 22.1051 22.642C22.4403 22.2159 22.608 21.7187 22.608 21.1506C22.608 20.6335 22.4602 20.2102 22.1648 19.8807C21.875 19.5511 21.4801 19.2784 20.9801 19.0625C20.4858 18.8466 19.9261 18.6562 19.3011 18.4915L17.2386 17.929C15.8409 17.5483 14.733 16.9886 13.9148 16.25C13.1023 15.5114 12.696 14.5341 12.696 13.3182C12.696 12.3125 12.9688 11.4347 13.5142 10.6847C14.0597 9.93466 14.7983 9.35227 15.7301 8.9375C16.6619 8.51705 17.7131 8.30682 18.8835 8.30682C20.0653 8.30682 21.108 8.5142 22.0114 8.92898C22.9205 9.34375 23.6364 9.91477 24.1591 10.642C24.6818 11.3636 24.9545 12.1932 24.9773 13.1307H22.4375ZM33.6726 26.2642C32.4055 26.2642 31.3146 25.9773 30.3999 25.4034C29.4908 24.8239 28.7919 24.0256 28.3033 23.0085C27.8146 21.9915 27.5703 20.8267 27.5703 19.5142C27.5703 18.1847 27.8203 17.0114 28.3203 15.9943C28.8203 14.9716 29.5249 14.1733 30.4339 13.5994C31.343 13.0256 32.4141 12.7386 33.647 12.7386C34.6413 12.7386 35.5277 12.9233 36.3061 13.2926C37.0845 13.6562 37.7124 14.1676 38.1896 14.8267C38.6726 15.4858 38.9595 16.2557 39.0504 17.1364H36.5703C36.4339 16.5227 36.1214 15.9943 35.6328 15.5511C35.1499 15.108 34.5021 14.8864 33.6896 14.8864C32.9794 14.8864 32.3572 15.0739 31.8232 15.4489C31.2947 15.8182 30.8828 16.3466 30.5874 17.0341C30.2919 17.7159 30.1442 18.5227 30.1442 19.4545C30.1442 20.4091 30.2891 21.233 30.5788 21.9261C30.8686 22.6193 31.2777 23.1562 31.8061 23.5369C32.3402 23.9176 32.968 24.108 33.6896 24.108C34.1726 24.108 34.6101 24.0199 35.0021 23.8438C35.3999 23.6619 35.7322 23.4034 35.9993 23.0682C36.272 22.733 36.4624 22.3295 36.5703 21.858H39.0504C38.9595 22.7045 38.6839 23.4602 38.2237 24.125C37.7635 24.7898 37.147 25.3125 36.3743 25.6932C35.6072 26.0739 34.7067 26.2642 33.6726 26.2642ZM41.7756 26V12.9091H44.3239V26H41.7756ZM43.0625 10.8892C42.6193 10.8892 42.2386 10.7415 41.9205 10.446C41.608 10.1449 41.4517 9.78693 41.4517 9.37216C41.4517 8.9517 41.608 8.59375 41.9205 8.29829C42.2386 7.99716 42.6193 7.84659 43.0625 7.84659C43.5057 7.84659 43.8835 7.99716 44.196 8.29829C44.5142 8.59375 44.6733 8.9517 44.6733 9.37216C44.6733 9.78693 44.5142 10.1449 44.196 10.446C43.8835 10.7415 43.5057 10.8892 43.0625 10.8892ZM53.3942 26.2642C52.1044 26.2642 50.9936 25.9886 50.0618 25.4375C49.1357 24.8807 48.4197 24.0994 47.9141 23.0938C47.4141 22.0824 47.1641 20.8977 47.1641 19.5398C47.1641 18.1989 47.4141 17.017 47.9141 15.9943C48.4197 14.9716 49.1243 14.1733 50.0277 13.5994C50.9368 13.0256 51.9993 12.7386 53.2152 12.7386C53.9538 12.7386 54.6697 12.8608 55.3629 13.1051C56.0561 13.3494 56.6783 13.733 57.2294 14.2557C57.7805 14.7784 58.2152 15.4574 58.5334 16.2926C58.8516 17.1222 59.0107 18.1307 59.0107 19.3182V20.2216H48.6044V18.3125H56.5135C56.5135 17.642 56.3771 17.0483 56.1044 16.5312C55.8317 16.0085 55.4482 15.5966 54.9538 15.2955C54.4652 14.9943 53.8913 14.8438 53.2322 14.8438C52.5163 14.8438 51.8913 15.0199 51.3572 15.3722C50.8288 15.7187 50.4197 16.1733 50.13 16.7358C49.8459 17.2926 49.7038 17.8977 49.7038 18.5511V20.0426C49.7038 20.9176 49.8572 21.6619 50.1641 22.2756C50.4766 22.8892 50.9112 23.358 51.468 23.6818C52.0249 24 52.6754 24.1591 53.4197 24.1591C53.9027 24.1591 54.343 24.0909 54.7408 23.9545C55.1385 23.8125 55.4822 23.6023 55.772 23.3239C56.0618 23.0455 56.2834 22.7017 56.4368 22.2926L58.8487 22.7273C58.6555 23.4375 58.3089 24.0597 57.8089 24.5938C57.3146 25.1222 56.6925 25.5341 55.9425 25.8295C55.1982 26.1193 54.3487 26.2642 53.3942 26.2642ZM64.3864 18.2273V26H61.8381V12.9091H64.2841V15.0398H64.446C64.7472 14.3466 65.2188 13.7898 65.8608 13.3693C66.5085 12.9489 67.3239 12.7386 68.3068 12.7386C69.1989 12.7386 69.9801 12.9261 70.6506 13.3011C71.321 13.6705 71.8409 14.2216 72.2102 14.9545C72.5795 15.6875 72.7642 16.5937 72.7642 17.6733V26H70.2159V17.9801C70.2159 17.0312 69.9688 16.2898 69.4744 15.7557C68.9801 15.2159 68.3011 14.946 67.4375 14.946C66.8466 14.946 66.321 15.0739 65.8608 15.3295C65.4063 15.5852 65.0455 15.9602 64.7784 16.4545C64.517 16.9432 64.3864 17.5341 64.3864 18.2273ZM82.2926 12.9091V14.9545H75.142V12.9091H82.2926ZM77.0597 9.77273H79.608V22.1562C79.608 22.6506 79.6818 23.0227 79.8295 23.2727C79.9773 23.517 80.1676 23.6847 80.4006 23.7756C80.6392 23.8608 80.8977 23.9034 81.1761 23.9034C81.3807 23.9034 81.5597 23.8892 81.7131 23.8608C81.8665 23.8324 81.9858 23.8097 82.071 23.7926L82.5312 25.8977C82.3835 25.9545 82.1733 26.0114 81.9006 26.0682C81.6278 26.1307 81.2869 26.1648 80.8778 26.1705C80.2074 26.1818 79.5824 26.0625 79.0028 25.8125C78.4233 25.5625 77.9545 25.1761 77.5966 24.6534C77.2386 24.1307 77.0597 23.4744 77.0597 22.6847V9.77273ZM85.1115 26V12.9091H87.6598V26H85.1115ZM86.3984 10.8892C85.9553 10.8892 85.5746 10.7415 85.2564 10.446C84.9439 10.1449 84.7876 9.78693 84.7876 9.37216C84.7876 8.9517 84.9439 8.59375 85.2564 8.29829C85.5746 7.99716 85.9553 7.84659 86.3984 7.84659C86.8416 7.84659 87.2195 7.99716 87.532 8.29829C87.8501 8.59375 88.0092 8.9517 88.0092 9.37216C88.0092 9.78693 87.8501 10.1449 87.532 10.446C87.2195 10.7415 86.8416 10.8892 86.3984 10.8892ZM97.3182 12.9091V14.9545H89.9205V12.9091H97.3182ZM91.9489 26V11.392C91.9489 10.5739 92.1278 9.89489 92.4858 9.35511C92.8438 8.80966 93.3182 8.40341 93.9091 8.13636C94.5 7.86364 95.142 7.72727 95.8352 7.72727C96.3466 7.72727 96.7841 7.76989 97.1477 7.85511C97.5114 7.93466 97.7812 8.00852 97.9574 8.0767L97.3608 10.1392C97.2415 10.1051 97.0881 10.0653 96.9006 10.0199C96.7131 9.96875 96.4858 9.94318 96.2188 9.94318C95.5994 9.94318 95.1563 10.0966 94.8892 10.4034C94.6278 10.7102 94.4972 11.1534 94.4972 11.733V26H91.9489ZM99.9474 26V12.9091H102.496V26H99.9474ZM101.234 10.8892C100.791 10.8892 100.411 10.7415 100.092 10.446C99.7798 10.1449 99.6236 9.78693 99.6236 9.37216C99.6236 8.9517 99.7798 8.59375 100.092 8.29829C100.411 7.99716 100.791 7.84659 101.234 7.84659C101.678 7.84659 102.055 7.99716 102.368 8.29829C102.686 8.59375 102.845 8.9517 102.845 9.37216C102.845 9.78693 102.686 10.1449 102.368 10.446C102.055 10.7415 101.678 10.8892 101.234 10.8892ZM111.438 26.2642C110.171 26.2642 109.08 25.9773 108.165 25.4034C107.256 24.8239 106.558 24.0256 106.069 23.0085C105.58 21.9915 105.336 20.8267 105.336 19.5142C105.336 18.1847 105.586 17.0114 106.086 15.9943C106.586 14.9716 107.29 14.1733 108.2 13.5994C109.109 13.0256 110.18 12.7386 111.413 12.7386C112.407 12.7386 113.293 12.9233 114.072 13.2926C114.85 13.6562 115.478 14.1676 115.955 14.8267C116.438 15.4858 116.725 16.2557 116.816 17.1364H114.336C114.2 16.5227 113.887 15.9943 113.398 15.5511C112.915 15.108 112.268 14.8864 111.455 14.8864C110.745 14.8864 110.123 15.0739 109.589 15.4489C109.06 15.8182 108.648 16.3466 108.353 17.0341C108.058 17.7159 107.91 18.5227 107.91 19.4545C107.91 20.4091 108.055 21.233 108.344 21.9261C108.634 22.6193 109.043 23.1562 109.572 23.5369C110.106 23.9176 110.734 24.108 111.455 24.108C111.938 24.108 112.376 24.0199 112.768 23.8438C113.165 23.6619 113.498 23.4034 113.765 23.0682C114.038 22.733 114.228 22.3295 114.336 21.858H116.816C116.725 22.7045 116.45 23.4602 115.989 24.125C115.529 24.7898 114.913 25.3125 114.14 25.6932C113.373 26.0739 112.472 26.2642 111.438 26.2642ZM125.237 10.8125V8.54545H138.745V10.8125H133.299V26H130.674V10.8125H125.237ZM144.074 18.2273V26H141.526V8.54545H144.04V15.0398H144.202C144.509 14.3352 144.977 13.7756 145.608 13.3608C146.239 12.946 147.063 12.7386 148.08 12.7386C148.977 12.7386 149.761 12.9233 150.432 13.2926C151.108 13.6619 151.631 14.2131 152 14.946C152.375 15.6733 152.562 16.5824 152.562 17.6733V26H150.014V17.9801C150.014 17.0199 149.767 16.2756 149.273 15.7472C148.778 15.2131 148.091 14.946 147.21 14.946C146.608 14.946 146.068 15.0739 145.591 15.3295C145.119 15.5852 144.747 15.9602 144.474 16.4545C144.207 16.9432 144.074 17.5341 144.074 18.2273ZM161.477 26.2642C160.25 26.2642 159.179 25.983 158.264 25.4205C157.349 24.858 156.639 24.071 156.134 23.0597C155.628 22.0483 155.375 20.8665 155.375 19.5142C155.375 18.1562 155.628 16.9687 156.134 15.9517C156.639 14.9347 157.349 14.1449 158.264 13.5824C159.179 13.0199 160.25 12.7386 161.477 12.7386C162.705 12.7386 163.776 13.0199 164.69 13.5824C165.605 14.1449 166.315 14.9347 166.821 15.9517C167.327 16.9687 167.58 18.1562 167.58 19.5142C167.58 20.8665 167.327 22.0483 166.821 23.0597C166.315 24.071 165.605 24.858 164.69 25.4205C163.776 25.983 162.705 26.2642 161.477 26.2642ZM161.486 24.125C162.281 24.125 162.94 23.9148 163.463 23.4943C163.986 23.0739 164.372 22.5142 164.622 21.8153C164.878 21.1165 165.006 20.3466 165.006 19.5057C165.006 18.6705 164.878 17.9034 164.622 17.2045C164.372 16.5 163.986 15.9347 163.463 15.5085C162.94 15.0824 162.281 14.8693 161.486 14.8693C160.685 14.8693 160.02 15.0824 159.491 15.5085C158.969 15.9347 158.58 16.5 158.324 17.2045C158.074 17.9034 157.949 18.6705 157.949 19.5057C157.949 20.3466 158.074 21.1165 158.324 21.8153C158.58 22.5142 158.969 23.0739 159.491 23.4943C160.02 23.9148 160.685 24.125 161.486 24.125ZM178.717 20.571V12.9091H181.273V26H178.768V23.733H178.631C178.33 24.4318 177.847 25.0142 177.183 25.4801C176.523 25.9403 175.702 26.1705 174.719 26.1705C173.879 26.1705 173.134 25.9858 172.487 25.6165C171.844 25.2415 171.339 24.6875 170.969 23.9545C170.606 23.2216 170.424 22.3153 170.424 21.2358V12.9091H172.972V20.929C172.972 21.821 173.219 22.5312 173.714 23.0597C174.208 23.5881 174.85 23.8523 175.64 23.8523C176.117 23.8523 176.592 23.733 177.063 23.4943C177.54 23.2557 177.935 22.8949 178.248 22.4119C178.566 21.929 178.722 21.3153 178.717 20.571ZM190.186 31.1818C189.146 31.1818 188.251 31.0455 187.501 30.7727C186.757 30.5 186.149 30.1392 185.678 29.6903C185.206 29.2415 184.854 28.75 184.621 28.2159L186.811 27.3125C186.964 27.5625 187.169 27.8267 187.425 28.1051C187.686 28.3892 188.038 28.6307 188.482 28.8295C188.93 29.0284 189.507 29.1278 190.212 29.1278C191.178 29.1278 191.976 28.892 192.607 28.4205C193.237 27.9545 193.553 27.2102 193.553 26.1875V23.6136H193.391C193.237 23.892 193.016 24.2017 192.726 24.5426C192.442 24.8835 192.05 25.179 191.55 25.429C191.05 25.679 190.399 25.804 189.598 25.804C188.564 25.804 187.632 25.5625 186.803 25.0795C185.979 24.5909 185.325 23.8722 184.842 22.9233C184.365 21.9687 184.126 20.7955 184.126 19.4034C184.126 18.0114 184.362 16.8182 184.834 15.8239C185.311 14.8295 185.964 14.0682 186.794 13.5398C187.624 13.0057 188.564 12.7386 189.615 12.7386C190.428 12.7386 191.084 12.875 191.584 13.1477C192.084 13.4148 192.473 13.7273 192.751 14.0852C193.036 14.4432 193.254 14.7585 193.408 15.0312H193.595V12.9091H196.092V26.2898C196.092 27.4148 195.831 28.3381 195.308 29.0597C194.786 29.7813 194.078 30.3153 193.186 30.6619C192.3 31.0085 191.3 31.1818 190.186 31.1818ZM190.161 23.6903C190.893 23.6903 191.513 23.5199 192.018 23.179C192.53 22.8324 192.916 22.3381 193.178 21.696C193.445 21.0483 193.578 20.2727 193.578 19.3693C193.578 18.4886 193.447 17.7131 193.186 17.0426C192.925 16.3722 192.541 15.8494 192.036 15.4744C191.53 15.0937 190.905 14.9034 190.161 14.9034C189.393 14.9034 188.754 15.1023 188.243 15.5C187.732 15.892 187.345 16.4261 187.084 17.1023C186.828 17.7784 186.7 18.5341 186.7 19.3693C186.7 20.2273 186.831 20.9801 187.092 21.6278C187.354 22.2756 187.74 22.7812 188.251 23.1449C188.768 23.5085 189.405 23.6903 190.161 23.6903ZM202.058 18.2273V26H199.51V8.54545H202.024V15.0398H202.186C202.493 14.3352 202.962 13.7756 203.592 13.3608C204.223 12.946 205.047 12.7386 206.064 12.7386C206.962 12.7386 207.746 12.9233 208.416 13.2926C209.092 13.6619 209.615 14.2131 209.984 14.946C210.359 15.6733 210.547 16.5824 210.547 17.6733V26H207.999V17.9801C207.999 17.0199 207.751 16.2756 207.257 15.7472C206.763 15.2131 206.075 14.946 205.195 14.946C204.592 14.946 204.053 15.0739 203.575 15.3295C203.104 15.5852 202.732 15.9602 202.459 16.4545C202.192 16.9432 202.058 17.5341 202.058 18.2273ZM220.058 12.9091V14.9545H212.908V12.9091H220.058ZM214.825 9.77273H217.374V22.1562C217.374 22.6506 217.447 23.0227 217.595 23.2727C217.743 23.517 217.933 23.6847 218.166 23.7756C218.405 23.8608 218.663 23.9034 218.942 23.9034C219.146 23.9034 219.325 23.8892 219.479 23.8608C219.632 23.8324 219.751 23.8097 219.837 23.7926L220.297 25.8977C220.149 25.9545 219.939 26.0114 219.666 26.0682C219.393 26.1307 219.053 26.1648 218.643 26.1705C217.973 26.1818 217.348 26.0625 216.768 25.8125C216.189 25.5625 215.72 25.1761 215.362 24.6534C215.004 24.1307 214.825 23.4744 214.825 22.6847V9.77273Z" fill="white"/>
</svg>
