<svg width="293" height="30" viewBox="0 0 293 30" fill="none" xmlns="http://www.w3.org/2000/svg">
<rect width="293" height="30" fill="#C8E7F1"/>
<rect width="17" height="30" fill="#FFA343"/>
<path d="M30.1136 23V5.54545H40.6477V7.42045H32.2273V13.3182H40.1023V15.1932H32.2273V21.125H40.7841V23H30.1136ZM53.4574 12.8409L51.6506 13.3523C51.5369 13.0511 51.3693 12.7585 51.1477 12.4744C50.9318 12.1847 50.6364 11.946 50.2614 11.7585C49.8864 11.571 49.4062 11.4773 48.821 11.4773C48.0199 11.4773 47.3523 11.6619 46.8182 12.0312C46.2898 12.3949 46.0256 12.858 46.0256 13.4205C46.0256 13.9205 46.2074 14.3153 46.571 14.6051C46.9347 14.8949 47.5028 15.1364 48.2756 15.3295L50.2188 15.8068C51.3892 16.0909 52.2614 16.5256 52.8352 17.1108C53.4091 17.6903 53.696 18.4375 53.696 19.3523C53.696 20.1023 53.4801 20.7727 53.0483 21.3636C52.6222 21.9545 52.0256 22.4205 51.2585 22.7614C50.4915 23.1023 49.5994 23.2727 48.5824 23.2727C47.2472 23.2727 46.142 22.983 45.267 22.4034C44.392 21.8239 43.8381 20.9773 43.6051 19.8636L45.5142 19.3864C45.696 20.0909 46.0398 20.6193 46.5455 20.9716C47.0568 21.3239 47.7244 21.5 48.5483 21.5C49.4858 21.5 50.2301 21.3011 50.7812 20.9034C51.3381 20.5 51.6165 20.017 51.6165 19.4545C51.6165 19 51.4574 18.6193 51.1392 18.3125C50.821 18 50.3324 17.767 49.6733 17.6136L47.4915 17.1023C46.2926 16.8182 45.4119 16.3778 44.8494 15.7812C44.2926 15.179 44.0142 14.4261 44.0142 13.5227C44.0142 12.7841 44.2216 12.1307 44.6364 11.5625C45.0568 10.9943 45.6278 10.5483 46.3494 10.2244C47.0767 9.90057 47.9006 9.73864 48.821 9.73864C50.1165 9.73864 51.1335 10.0227 51.8722 10.5909C52.6165 11.1591 53.1449 11.9091 53.4574 12.8409ZM62.0419 23.2727C60.8146 23.2727 59.7578 22.983 58.8714 22.4034C57.9851 21.8239 57.3033 21.0256 56.826 20.0085C56.3487 18.9915 56.1101 17.8295 56.1101 16.5227C56.1101 15.1932 56.3544 14.0199 56.843 13.0028C57.3374 11.9801 58.0249 11.1818 58.9055 10.608C59.7919 10.0284 60.826 9.73864 62.0078 9.73864C62.9283 9.73864 63.7578 9.90909 64.4964 10.25C65.2351 10.5909 65.8402 11.0682 66.3118 11.6818C66.7834 12.2955 67.076 13.0114 67.1896 13.8295H65.1783C65.0249 13.233 64.6839 12.7045 64.1555 12.2443C63.6328 11.7784 62.9283 11.5455 62.0419 11.5455C61.2578 11.5455 60.5703 11.75 59.9794 12.1591C59.3942 12.5625 58.9368 13.1335 58.6072 13.8722C58.2834 14.6051 58.1214 15.4659 58.1214 16.4545C58.1214 17.4659 58.2805 18.3466 58.5987 19.0966C58.9226 19.8466 59.3771 20.429 59.9624 20.8438C60.5533 21.2585 61.2464 21.4659 62.0419 21.4659C62.5646 21.4659 63.0391 21.375 63.4652 21.1932C63.8913 21.0114 64.2521 20.75 64.5476 20.4091C64.843 20.0682 65.0533 19.6591 65.1783 19.1818H67.1896C67.076 19.9545 66.7947 20.6506 66.3459 21.2699C65.9027 21.8835 65.3146 22.3722 64.5817 22.7358C63.8544 23.0938 63.0078 23.2727 62.0419 23.2727ZM75.6186 23.2727C74.3572 23.2727 73.2692 22.9943 72.3544 22.4375C71.4453 21.875 70.7436 21.0909 70.2493 20.0852C69.7607 19.0739 69.5163 17.8977 69.5163 16.5568C69.5163 15.2159 69.7607 14.0341 70.2493 13.0114C70.7436 11.983 71.4311 11.1818 72.3118 10.608C73.1982 10.0284 74.2322 9.73864 75.4141 9.73864C76.0959 9.73864 76.7692 9.85227 77.4339 10.0795C78.0987 10.3068 78.7038 10.6761 79.2493 11.1875C79.7947 11.6932 80.2294 12.3636 80.5533 13.1989C80.8771 14.0341 81.0391 15.0625 81.0391 16.2841V17.1364H70.9482V15.3977H78.9936C78.9936 14.6591 78.8459 14 78.5504 13.4205C78.2607 12.8409 77.8459 12.3835 77.3061 12.0483C76.772 11.7131 76.1413 11.5455 75.4141 11.5455C74.6129 11.5455 73.9197 11.7443 73.3345 12.142C72.755 12.5341 72.3089 13.0455 71.9964 13.6761C71.6839 14.3068 71.5277 14.983 71.5277 15.7045V16.8636C71.5277 17.8523 71.6982 18.6903 72.0391 19.3778C72.3857 20.0597 72.8658 20.5795 73.4794 20.9375C74.093 21.2898 74.8061 21.4659 75.6186 21.4659C76.147 21.4659 76.6243 21.392 77.0504 21.2443C77.4822 21.0909 77.8544 20.8636 78.1669 20.5625C78.4794 20.2557 78.7209 19.875 78.8913 19.4205L80.8345 19.9659C80.63 20.625 80.2862 21.2045 79.8033 21.7045C79.3203 22.1989 78.7237 22.5852 78.0135 22.8636C77.3033 23.1364 76.505 23.2727 75.6186 23.2727ZM86.1101 15.125V23H84.0987V9.90909H86.0419V11.9545H86.2124C86.5192 11.2898 86.9851 10.7557 87.6101 10.3523C88.2351 9.94318 89.0419 9.73864 90.0305 9.73864C90.9169 9.73864 91.6925 9.92045 92.3572 10.2841C93.022 10.642 93.5391 11.1875 93.9084 11.9205C94.2777 12.6477 94.4624 13.5682 94.4624 14.6818V23H92.451V14.8182C92.451 13.7898 92.1839 12.9886 91.6499 12.4148C91.1158 11.8352 90.3828 11.5455 89.451 11.5455C88.8089 11.5455 88.2351 11.6847 87.7294 11.9631C87.2294 12.2415 86.8345 12.6477 86.5447 13.1818C86.255 13.7159 86.1101 14.3636 86.1101 15.125ZM101.99 23.3068C101.161 23.3068 100.408 23.1506 99.7315 22.8381C99.0554 22.5199 98.5185 22.0625 98.1207 21.4659C97.723 20.8636 97.5241 20.1364 97.5241 19.2841C97.5241 18.5341 97.6719 17.9261 97.9673 17.4602C98.2628 16.9886 98.6577 16.6193 99.152 16.3523C99.6463 16.0852 100.192 15.8864 100.788 15.7557C101.391 15.6193 101.996 15.5114 102.604 15.4318C103.399 15.3295 104.044 15.2528 104.538 15.2017C105.038 15.1449 105.402 15.0511 105.629 14.9205C105.862 14.7898 105.979 14.5625 105.979 14.2386V14.1705C105.979 13.3295 105.749 12.6761 105.288 12.2102C104.834 11.7443 104.143 11.5114 103.217 11.5114C102.257 11.5114 101.504 11.7216 100.959 12.142C100.413 12.5625 100.03 13.0114 99.8082 13.4886L97.8991 12.8068C98.2401 12.0114 98.6946 11.392 99.2628 10.9489C99.8366 10.5 100.462 10.1875 101.138 10.0114C101.82 9.82955 102.49 9.73864 103.149 9.73864C103.57 9.73864 104.053 9.78977 104.598 9.89204C105.149 9.98864 105.68 10.1903 106.192 10.4972C106.709 10.804 107.138 11.267 107.479 11.8864C107.82 12.5057 107.99 13.3352 107.99 14.375V23H105.979V21.2273H105.876C105.74 21.5114 105.513 21.8153 105.195 22.1392C104.876 22.4631 104.453 22.7386 103.925 22.9659C103.396 23.1932 102.751 23.3068 101.99 23.3068ZM102.297 21.5C103.092 21.5 103.763 21.3438 104.308 21.0312C104.859 20.7188 105.274 20.3153 105.553 19.821C105.837 19.3267 105.979 18.8068 105.979 18.2614V16.4205C105.893 16.5227 105.706 16.6165 105.416 16.7017C105.132 16.7812 104.803 16.8523 104.428 16.9148C104.058 16.9716 103.697 17.0227 103.345 17.0682C102.999 17.108 102.717 17.142 102.501 17.1705C101.979 17.2386 101.49 17.3494 101.036 17.5028C100.587 17.6506 100.223 17.875 99.9446 18.1761C99.6719 18.4716 99.5355 18.875 99.5355 19.3864C99.5355 20.0852 99.794 20.6136 100.311 20.9716C100.834 21.3239 101.496 21.5 102.297 21.5ZM111.661 23V9.90909H113.604V11.8864H113.741C113.979 11.2386 114.411 10.7131 115.036 10.3097C115.661 9.90625 116.366 9.70454 117.15 9.70454C117.298 9.70454 117.482 9.70739 117.704 9.71307C117.925 9.71875 118.093 9.72727 118.207 9.73864V11.7841C118.138 11.767 117.982 11.7415 117.738 11.7074C117.499 11.6676 117.246 11.6477 116.979 11.6477C116.343 11.6477 115.775 11.7812 115.275 12.0483C114.781 12.3097 114.388 12.6733 114.099 13.1392C113.815 13.5994 113.673 14.125 113.673 14.7159V23H111.661ZM120.591 23V9.90909H122.602V23H120.591ZM121.614 7.72727C121.222 7.72727 120.884 7.59375 120.599 7.3267C120.321 7.05966 120.182 6.73864 120.182 6.36364C120.182 5.98864 120.321 5.66761 120.599 5.40057C120.884 5.13352 121.222 5 121.614 5C122.006 5 122.341 5.13352 122.619 5.40057C122.903 5.66761 123.045 5.98864 123.045 6.36364C123.045 6.73864 122.903 7.05966 122.619 7.3267C122.341 7.59375 122.006 7.72727 121.614 7.72727ZM131.604 23.2727C130.423 23.2727 129.386 22.9915 128.494 22.429C127.607 21.8665 126.914 21.0795 126.414 20.0682C125.92 19.0568 125.673 17.875 125.673 16.5227C125.673 15.1591 125.92 13.9687 126.414 12.9517C126.914 11.9347 127.607 11.1449 128.494 10.5824C129.386 10.0199 130.423 9.73864 131.604 9.73864C132.786 9.73864 133.82 10.0199 134.707 10.5824C135.599 11.1449 136.292 11.9347 136.786 12.9517C137.286 13.9687 137.536 15.1591 137.536 16.5227C137.536 17.875 137.286 19.0568 136.786 20.0682C136.292 21.0795 135.599 21.8665 134.707 22.429C133.82 22.9915 132.786 23.2727 131.604 23.2727ZM131.604 21.4659C132.502 21.4659 133.241 21.2358 133.82 20.7756C134.4 20.3153 134.829 19.7102 135.107 18.9602C135.386 18.2102 135.525 17.3977 135.525 16.5227C135.525 15.6477 135.386 14.8324 135.107 14.0767C134.829 13.321 134.4 12.7102 133.82 12.2443C133.241 11.7784 132.502 11.5455 131.604 11.5455C130.707 11.5455 129.968 11.7784 129.388 12.2443C128.809 12.7102 128.38 13.321 128.102 14.0767C127.823 14.8324 127.684 15.6477 127.684 16.5227C127.684 17.3977 127.823 18.2102 128.102 18.9602C128.38 19.7102 128.809 20.3153 129.388 20.7756C129.968 21.2358 130.707 21.4659 131.604 21.4659ZM147.629 5.54545H150.152L156.084 20.0341H156.288L162.22 5.54545H164.743V23H162.766V9.73864H162.595L157.141 23H155.232L149.777 9.73864H149.607V23H147.629V5.54545ZM176.958 17.6477V9.90909H178.969V23H176.958V20.7841H176.822C176.515 21.4489 176.038 22.0142 175.39 22.4801C174.742 22.9403 173.924 23.1705 172.935 23.1705C172.117 23.1705 171.39 22.9915 170.754 22.6335C170.117 22.2699 169.617 21.7244 169.254 20.9972C168.89 20.2642 168.708 19.3409 168.708 18.2273V9.90909H170.719V18.0909C170.719 19.0455 170.987 19.8068 171.521 20.375C172.06 20.9432 172.748 21.2273 173.583 21.2273C174.083 21.2273 174.592 21.0994 175.109 20.8438C175.631 20.5881 176.069 20.196 176.421 19.6676C176.779 19.1392 176.958 18.4659 176.958 17.6477ZM184.665 15.125V23H182.653V9.90909H184.597V11.9545H184.767C185.074 11.2898 185.54 10.7557 186.165 10.3523C186.79 9.94318 187.597 9.73864 188.585 9.73864C189.472 9.73864 190.247 9.92045 190.912 10.2841C191.577 10.642 192.094 11.1875 192.463 11.9205C192.832 12.6477 193.017 13.5682 193.017 14.6818V23H191.006V14.8182C191.006 13.7898 190.739 12.9886 190.205 12.4148C189.67 11.8352 188.938 11.5455 188.006 11.5455C187.364 11.5455 186.79 11.6847 186.284 11.9631C185.784 12.2415 185.389 12.6477 185.099 13.1818C184.81 13.7159 184.665 14.3636 184.665 15.125ZM201.636 23.2727C200.545 23.2727 199.582 22.9972 198.746 22.446C197.911 21.8892 197.258 21.1051 196.786 20.0938C196.315 19.0767 196.079 17.875 196.079 16.4886C196.079 15.1136 196.315 13.9205 196.786 12.9091C197.258 11.8977 197.914 11.1165 198.755 10.5653C199.596 10.0142 200.567 9.73864 201.67 9.73864C202.522 9.73864 203.195 9.88068 203.69 10.1648C204.19 10.4432 204.57 10.7614 204.832 11.1193C205.099 11.4716 205.306 11.7614 205.454 11.9886H205.624V5.54545H207.636V23H205.692V20.9886H205.454C205.306 21.2273 205.096 21.5284 204.823 21.892C204.55 22.25 204.161 22.571 203.656 22.8551C203.15 23.1335 202.477 23.2727 201.636 23.2727ZM201.908 21.4659C202.715 21.4659 203.397 21.2557 203.954 20.8352C204.511 20.4091 204.934 19.821 205.224 19.071C205.513 18.3153 205.658 17.4432 205.658 16.4545C205.658 15.4773 205.516 14.6222 205.232 13.8892C204.948 13.1506 204.528 12.5767 203.971 12.1676C203.414 11.7528 202.727 11.5455 201.908 11.5455C201.056 11.5455 200.346 11.7642 199.778 12.2017C199.215 12.6335 198.792 13.2216 198.508 13.9659C198.229 14.7045 198.09 15.5341 198.09 16.4545C198.09 17.3864 198.232 18.233 198.516 18.9943C198.806 19.75 199.232 20.3523 199.795 20.8011C200.363 21.2443 201.067 21.4659 201.908 21.4659ZM211.599 23V9.90909H213.61V23H211.599ZM212.621 7.72727C212.229 7.72727 211.891 7.59375 211.607 7.3267C211.329 7.05966 211.19 6.73864 211.19 6.36364C211.19 5.98864 211.329 5.66761 211.607 5.40057C211.891 5.13352 212.229 5 212.621 5C213.013 5 213.349 5.13352 213.627 5.40057C213.911 5.66761 214.053 5.98864 214.053 6.36364C214.053 6.73864 213.911 7.05966 213.627 7.3267C213.349 7.59375 213.013 7.72727 212.621 7.72727ZM221.146 23.3068C220.317 23.3068 219.564 23.1506 218.888 22.8381C218.212 22.5199 217.675 22.0625 217.277 21.4659C216.879 20.8636 216.68 20.1364 216.68 19.2841C216.68 18.5341 216.828 17.9261 217.124 17.4602C217.419 16.9886 217.814 16.6193 218.308 16.3523C218.803 16.0852 219.348 15.8864 219.945 15.7557C220.547 15.6193 221.152 15.5114 221.76 15.4318C222.555 15.3295 223.2 15.2528 223.695 15.2017C224.195 15.1449 224.558 15.0511 224.786 14.9205C225.018 14.7898 225.135 14.5625 225.135 14.2386V14.1705C225.135 13.3295 224.905 12.6761 224.445 12.2102C223.99 11.7443 223.3 11.5114 222.374 11.5114C221.413 11.5114 220.661 11.7216 220.115 12.142C219.57 12.5625 219.186 13.0114 218.964 13.4886L217.055 12.8068C217.396 12.0114 217.851 11.392 218.419 10.9489C218.993 10.5 219.618 10.1875 220.294 10.0114C220.976 9.82955 221.646 9.73864 222.305 9.73864C222.726 9.73864 223.209 9.78977 223.754 9.89204C224.305 9.98864 224.837 10.1903 225.348 10.4972C225.865 10.804 226.294 11.267 226.635 11.8864C226.976 12.5057 227.146 13.3352 227.146 14.375V23H225.135V21.2273H225.033C224.896 21.5114 224.669 21.8153 224.351 22.1392C224.033 22.4631 223.609 22.7386 223.081 22.9659C222.553 23.1932 221.908 23.3068 221.146 23.3068ZM221.453 21.5C222.249 21.5 222.919 21.3438 223.464 21.0312C224.016 20.7188 224.43 20.3153 224.709 19.821C224.993 19.3267 225.135 18.8068 225.135 18.2614V16.4205C225.05 16.5227 224.862 16.6165 224.572 16.7017C224.288 16.7812 223.959 16.8523 223.584 16.9148C223.214 16.9716 222.854 17.0227 222.501 17.0682C222.155 17.108 221.874 17.142 221.658 17.1705C221.135 17.2386 220.646 17.3494 220.192 17.5028C219.743 17.6506 219.379 17.875 219.101 18.1761C218.828 18.4716 218.692 18.875 218.692 19.3864C218.692 20.0852 218.95 20.6136 219.467 20.9716C219.99 21.3239 220.652 21.5 221.453 21.5ZM232.829 5.54545V23H230.817V5.54545H232.829ZM242.001 23.2727C240.74 23.2727 239.652 22.9943 238.737 22.4375C237.828 21.875 237.126 21.0909 236.632 20.0852C236.143 19.0739 235.899 17.8977 235.899 16.5568C235.899 15.2159 236.143 14.0341 236.632 13.0114C237.126 11.983 237.814 11.1818 238.695 10.608C239.581 10.0284 240.615 9.73864 241.797 9.73864C242.479 9.73864 243.152 9.85227 243.817 10.0795C244.482 10.3068 245.087 10.6761 245.632 11.1875C246.178 11.6932 246.612 12.3636 246.936 13.1989C247.26 14.0341 247.422 15.0625 247.422 16.2841V17.1364H237.331V15.3977H245.376C245.376 14.6591 245.229 14 244.933 13.4205C244.643 12.8409 244.229 12.3835 243.689 12.0483C243.155 11.7131 242.524 11.5455 241.797 11.5455C240.996 11.5455 240.303 11.7443 239.717 12.142C239.138 12.5341 238.692 13.0455 238.379 13.6761C238.067 14.3068 237.911 14.983 237.911 15.7045V16.8636C237.911 17.8523 238.081 18.6903 238.422 19.3778C238.768 20.0597 239.249 20.5795 239.862 20.9375C240.476 21.2898 241.189 21.4659 242.001 21.4659C242.53 21.4659 243.007 21.392 243.433 21.2443C243.865 21.0909 244.237 20.8636 244.55 20.5625C244.862 20.2557 245.104 19.875 245.274 19.4205L247.217 19.9659C247.013 20.625 246.669 21.2045 246.186 21.7045C245.703 22.1989 245.107 22.5852 244.396 22.8636C243.686 23.1364 242.888 23.2727 242.001 23.2727ZM259.754 12.8409L257.947 13.3523C257.834 13.0511 257.666 12.7585 257.445 12.4744C257.229 12.1847 256.933 11.946 256.558 11.7585C256.183 11.571 255.703 11.4773 255.118 11.4773C254.317 11.4773 253.649 11.6619 253.115 12.0312C252.587 12.3949 252.322 12.858 252.322 13.4205C252.322 13.9205 252.504 14.3153 252.868 14.6051C253.232 14.8949 253.8 15.1364 254.572 15.3295L256.516 15.8068C257.686 16.0909 258.558 16.5256 259.132 17.1108C259.706 17.6903 259.993 18.4375 259.993 19.3523C259.993 20.1023 259.777 20.7727 259.345 21.3636C258.919 21.9545 258.322 22.4205 257.555 22.7614C256.788 23.1023 255.896 23.2727 254.879 23.2727C253.544 23.2727 252.439 22.983 251.564 22.4034C250.689 21.8239 250.135 20.9773 249.902 19.8636L251.811 19.3864C251.993 20.0909 252.337 20.6193 252.842 20.9716C253.354 21.3239 254.021 21.5 254.845 21.5C255.783 21.5 256.527 21.3011 257.078 20.9034C257.635 20.5 257.913 20.017 257.913 19.4545C257.913 19 257.754 18.6193 257.436 18.3125C257.118 18 256.629 17.767 255.97 17.6136L253.788 17.1023C252.589 16.8182 251.709 16.3778 251.146 15.7812C250.589 15.179 250.311 14.4261 250.311 13.5227C250.311 12.7841 250.518 12.1307 250.933 11.5625C251.354 10.9943 251.925 10.5483 252.646 10.2244C253.374 9.90057 254.197 9.73864 255.118 9.73864C256.413 9.73864 257.43 10.0227 258.169 10.5909C258.913 11.1591 259.442 11.9091 259.754 12.8409Z" fill="black"/>
</svg>
