<svg width="293" height="30" viewBox="0 0 293 30" fill="none" xmlns="http://www.w3.org/2000/svg">
<rect width="293" height="30" fill="#C8E7F1"/>
<rect width="17" height="30" fill="#FDFC74"/>
<path d="M43.9545 5.54545V23H41.9091L32.3977 9.29545H32.2273V23H30.1136V5.54545H32.1591L41.7045 19.2841H41.875V5.54545H43.9545ZM53.3999 23.2727C52.1385 23.2727 51.0504 22.9943 50.1357 22.4375C49.2266 21.875 48.5249 21.0909 48.0305 20.0852C47.5419 19.0739 47.2976 17.8977 47.2976 16.5568C47.2976 15.2159 47.5419 14.0341 48.0305 13.0114C48.5249 11.983 49.2124 11.1818 50.093 10.608C50.9794 10.0284 52.0135 9.73864 53.1953 9.73864C53.8771 9.73864 54.5504 9.85227 55.2152 10.0795C55.88 10.3068 56.4851 10.6761 57.0305 11.1875C57.576 11.6932 58.0107 12.3636 58.3345 13.1989C58.6584 14.0341 58.8203 15.0625 58.8203 16.2841V17.1364H48.7294V15.3977H56.7749C56.7749 14.6591 56.6271 14 56.3317 13.4205C56.0419 12.8409 55.6271 12.3835 55.0874 12.0483C54.5533 11.7131 53.9226 11.5455 53.1953 11.5455C52.3942 11.5455 51.701 11.7443 51.1158 12.142C50.5362 12.5341 50.0902 13.0455 49.7777 13.6761C49.4652 14.3068 49.3089 14.983 49.3089 15.7045V16.8636C49.3089 17.8523 49.4794 18.6903 49.8203 19.3778C50.1669 20.0597 50.647 20.5795 51.2607 20.9375C51.8743 21.2898 52.5874 21.4659 53.3999 21.4659C53.9283 21.4659 54.4055 21.392 54.8317 21.2443C55.2635 21.0909 55.6357 20.8636 55.9482 20.5625C56.2607 20.2557 56.5021 19.875 56.6726 19.4205L58.6158 19.9659C58.4112 20.625 58.0675 21.2045 57.5845 21.7045C57.1016 22.1989 56.505 22.5852 55.7947 22.8636C55.0845 23.1364 54.2862 23.2727 53.3999 23.2727ZM67.1641 28.1818C66.1925 28.1818 65.3572 28.0568 64.6584 27.8068C63.9595 27.5625 63.3771 27.2386 62.9112 26.8352C62.451 26.4375 62.0845 26.0114 61.8118 25.5568L63.4141 24.4318C63.5959 24.6705 63.826 24.9432 64.1044 25.25C64.3828 25.5625 64.7635 25.8324 65.2464 26.0597C65.7351 26.2926 66.3743 26.4091 67.1641 26.4091C68.2209 26.4091 69.093 26.1534 69.7805 25.642C70.468 25.1307 70.8118 24.3295 70.8118 23.2386V20.5795H70.6413C70.4936 20.8182 70.2834 21.1136 70.0107 21.4659C69.7436 21.8125 69.3572 22.1222 68.8516 22.3949C68.3516 22.6619 67.6754 22.7955 66.8232 22.7955C65.7663 22.7955 64.8175 22.5455 63.9766 22.0455C63.1413 21.5455 62.4794 20.8182 61.9908 19.8636C61.5078 18.9091 61.2663 17.75 61.2663 16.3864C61.2663 15.0455 61.5021 13.8778 61.9737 12.8835C62.4453 11.8835 63.1016 11.1108 63.9425 10.5653C64.7834 10.0142 65.755 9.73864 66.8572 9.73864C67.7095 9.73864 68.3857 9.88068 68.8857 10.1648C69.3913 10.4432 69.7777 10.7614 70.0447 11.1193C70.3175 11.4716 70.5277 11.7614 70.6754 11.9886H70.88V9.90909H72.8232V23.375C72.8232 24.5 72.5675 25.4148 72.0561 26.1193C71.5504 26.8295 70.8686 27.3494 70.0107 27.679C69.1584 28.0142 68.2095 28.1818 67.1641 28.1818ZM67.0959 20.9886C67.9027 20.9886 68.5845 20.804 69.1413 20.4347C69.6982 20.0653 70.1214 19.5341 70.4112 18.8409C70.701 18.1477 70.8459 17.3182 70.8459 16.3523C70.8459 15.4091 70.7038 14.5767 70.4197 13.8551C70.1357 13.1335 69.7152 12.5682 69.1584 12.1591C68.6016 11.75 67.9141 11.5455 67.0959 11.5455C66.2436 11.5455 65.5334 11.7614 64.9652 12.1932C64.4027 12.625 63.9794 13.2045 63.6953 13.9318C63.4169 14.6591 63.2777 15.4659 63.2777 16.3523C63.2777 17.2614 63.4197 18.0653 63.7038 18.7642C63.9936 19.4574 64.4197 20.0028 64.9822 20.4006C65.5504 20.7926 66.255 20.9886 67.0959 20.9886ZM81.8232 23.2727C80.6413 23.2727 79.6044 22.9915 78.7124 22.429C77.826 21.8665 77.1328 21.0795 76.6328 20.0682C76.1385 19.0568 75.8913 17.875 75.8913 16.5227C75.8913 15.1591 76.1385 13.9687 76.6328 12.9517C77.1328 11.9347 77.826 11.1449 78.7124 10.5824C79.6044 10.0199 80.6413 9.73864 81.8232 9.73864C83.005 9.73864 84.0391 10.0199 84.9254 10.5824C85.8175 11.1449 86.5107 11.9347 87.005 12.9517C87.505 13.9687 87.755 15.1591 87.755 16.5227C87.755 17.875 87.505 19.0568 87.005 20.0682C86.5107 21.0795 85.8175 21.8665 84.9254 22.429C84.0391 22.9915 83.005 23.2727 81.8232 23.2727ZM81.8232 21.4659C82.7209 21.4659 83.4595 21.2358 84.0391 20.7756C84.6186 20.3153 85.0476 19.7102 85.326 18.9602C85.6044 18.2102 85.7436 17.3977 85.7436 16.5227C85.7436 15.6477 85.6044 14.8324 85.326 14.0767C85.0476 13.321 84.6186 12.7102 84.0391 12.2443C83.4595 11.7784 82.7209 11.5455 81.8232 11.5455C80.9254 11.5455 80.1868 11.7784 79.6072 12.2443C79.0277 12.7102 78.5987 13.321 78.3203 14.0767C78.0419 14.8324 77.9027 15.6477 77.9027 16.5227C77.9027 17.3977 78.0419 18.2102 78.3203 18.9602C78.5987 19.7102 79.0277 20.3153 79.6072 20.7756C80.1868 21.2358 80.9254 21.4659 81.8232 21.4659ZM96.1435 23.2727C94.9162 23.2727 93.8594 22.983 92.973 22.4034C92.0866 21.8239 91.4048 21.0256 90.9276 20.0085C90.4503 18.9915 90.2116 17.8295 90.2116 16.5227C90.2116 15.1932 90.456 14.0199 90.9446 13.0028C91.4389 11.9801 92.1264 11.1818 93.0071 10.608C93.8935 10.0284 94.9276 9.73864 96.1094 9.73864C97.0298 9.73864 97.8594 9.90909 98.598 10.25C99.3366 10.5909 99.9418 11.0682 100.413 11.6818C100.885 12.2955 101.178 13.0114 101.291 13.8295H99.2798C99.1264 13.233 98.7855 12.7045 98.2571 12.2443C97.7344 11.7784 97.0298 11.5455 96.1435 11.5455C95.3594 11.5455 94.6719 11.75 94.081 12.1591C93.4957 12.5625 93.0384 13.1335 92.7088 13.8722C92.3849 14.6051 92.223 15.4659 92.223 16.4545C92.223 17.4659 92.3821 18.3466 92.7003 19.0966C93.0241 19.8466 93.4787 20.429 94.0639 20.8438C94.6548 21.2585 95.348 21.4659 96.1435 21.4659C96.6662 21.4659 97.1406 21.375 97.5668 21.1932C97.9929 21.0114 98.3537 20.75 98.6491 20.4091C98.9446 20.0682 99.1548 19.6591 99.2798 19.1818H101.291C101.178 19.9545 100.896 20.6506 100.447 21.2699C100.004 21.8835 99.4162 22.3722 98.6832 22.7358C97.956 23.0938 97.1094 23.2727 96.1435 23.2727ZM104.232 23V9.90909H106.243V23H104.232ZM105.254 7.72727C104.862 7.72727 104.524 7.59375 104.24 7.3267C103.962 7.05966 103.822 6.73864 103.822 6.36364C103.822 5.98864 103.962 5.66761 104.24 5.40057C104.524 5.13352 104.862 5 105.254 5C105.646 5 105.982 5.13352 106.26 5.40057C106.544 5.66761 106.686 5.98864 106.686 6.36364C106.686 6.73864 106.544 7.05966 106.26 7.3267C105.982 7.59375 105.646 7.72727 105.254 7.72727ZM115.245 23.2727C114.063 23.2727 113.026 22.9915 112.134 22.429C111.248 21.8665 110.555 21.0795 110.055 20.0682C109.56 19.0568 109.313 17.875 109.313 16.5227C109.313 15.1591 109.56 13.9687 110.055 12.9517C110.555 11.9347 111.248 11.1449 112.134 10.5824C113.026 10.0199 114.063 9.73864 115.245 9.73864C116.427 9.73864 117.461 10.0199 118.347 10.5824C119.239 11.1449 119.933 11.9347 120.427 12.9517C120.927 13.9687 121.177 15.1591 121.177 16.5227C121.177 17.875 120.927 19.0568 120.427 20.0682C119.933 21.0795 119.239 21.8665 118.347 22.429C117.461 22.9915 116.427 23.2727 115.245 23.2727ZM115.245 21.4659C116.143 21.4659 116.881 21.2358 117.461 20.7756C118.04 20.3153 118.469 19.7102 118.748 18.9602C119.026 18.2102 119.165 17.3977 119.165 16.5227C119.165 15.6477 119.026 14.8324 118.748 14.0767C118.469 13.321 118.04 12.7102 117.461 12.2443C116.881 11.7784 116.143 11.5455 115.245 11.5455C114.347 11.5455 113.609 11.7784 113.029 12.2443C112.45 12.7102 112.021 13.321 111.742 14.0767C111.464 14.8324 111.325 15.6477 111.325 16.5227C111.325 17.3977 111.464 18.2102 111.742 18.9602C112.021 19.7102 112.45 20.3153 113.029 20.7756C113.609 21.2358 114.347 21.4659 115.245 21.4659ZM133.52 12.8409L131.713 13.3523C131.599 13.0511 131.432 12.7585 131.21 12.4744C130.994 12.1847 130.699 11.946 130.324 11.7585C129.949 11.571 129.469 11.4773 128.884 11.4773C128.082 11.4773 127.415 11.6619 126.881 12.0312C126.352 12.3949 126.088 12.858 126.088 13.4205C126.088 13.9205 126.27 14.3153 126.634 14.6051C126.997 14.8949 127.565 15.1364 128.338 15.3295L130.281 15.8068C131.452 16.0909 132.324 16.5256 132.898 17.1108C133.472 17.6903 133.759 18.4375 133.759 19.3523C133.759 20.1023 133.543 20.7727 133.111 21.3636C132.685 21.9545 132.088 22.4205 131.321 22.7614C130.554 23.1023 129.662 23.2727 128.645 23.2727C127.31 23.2727 126.205 22.983 125.33 22.4034C124.455 21.8239 123.901 20.9773 123.668 19.8636L125.577 19.3864C125.759 20.0909 126.102 20.6193 126.608 20.9716C127.119 21.3239 127.787 21.5 128.611 21.5C129.548 21.5 130.293 21.3011 130.844 20.9034C131.401 20.5 131.679 20.017 131.679 19.4545C131.679 19 131.52 18.6193 131.202 18.3125C130.884 18 130.395 17.767 129.736 17.6136L127.554 17.1023C126.355 16.8182 125.474 16.3778 124.912 15.7812C124.355 15.179 124.077 14.4261 124.077 13.5227C124.077 12.7841 124.284 12.1307 124.699 11.5625C125.119 10.9943 125.69 10.5483 126.412 10.2244C127.139 9.90057 127.963 9.73864 128.884 9.73864C130.179 9.73864 131.196 10.0227 131.935 10.5909C132.679 11.1591 133.207 11.9091 133.52 12.8409Z" fill="black"/>
</svg>
