<svg width="321" height="35" viewBox="0 0 321 35" fill="none" xmlns="http://www.w3.org/2000/svg">
<rect width="321" height="35" fill="#B92A66"/>
<path d="M14.392 26H11.5966L17.8778 8.54545H20.9205L27.2017 26H24.4062L19.4716 11.7159H19.3352L14.392 26ZM14.8608 19.1648H23.929V21.3807H14.8608V19.1648ZM29.5178 26V12.9091H31.9808V14.9886H32.1172C32.3558 14.2841 32.7763 13.7301 33.3786 13.3267C33.9865 12.9176 34.674 12.7131 35.4411 12.7131C35.6001 12.7131 35.7876 12.7187 36.0036 12.7301C36.2251 12.7415 36.3984 12.7557 36.5234 12.7727V15.2102C36.4212 15.1818 36.2393 15.1506 35.978 15.1165C35.7166 15.0767 35.4553 15.0568 35.1939 15.0568C34.5916 15.0568 34.0547 15.1847 33.5831 15.4403C33.1172 15.6903 32.7479 16.0398 32.4751 16.4886C32.2024 16.9318 32.0661 17.4375 32.0661 18.0057V26H29.5178ZM45.6129 12.9091V14.9545H38.4624V12.9091H45.6129ZM40.38 9.77273H42.9283V22.1562C42.9283 22.6506 43.0021 23.0227 43.1499 23.2727C43.2976 23.517 43.4879 23.6847 43.7209 23.7756C43.9595 23.8608 44.218 23.9034 44.4964 23.9034C44.701 23.9034 44.88 23.8892 45.0334 23.8608C45.1868 23.8324 45.3061 23.8097 45.3913 23.7926L45.8516 25.8977C45.7038 25.9545 45.4936 26.0114 45.2209 26.0682C44.9482 26.1307 44.6072 26.1648 44.1982 26.1705C43.5277 26.1818 42.9027 26.0625 42.3232 25.8125C41.7436 25.5625 41.2749 25.1761 40.9169 24.6534C40.5589 24.1307 40.38 23.4744 40.38 22.6847V9.77273ZM58.593 26.2898C57.7635 26.2898 57.0135 26.1364 56.343 25.8295C55.6726 25.517 55.1413 25.0653 54.7493 24.4744C54.3629 23.8835 54.1697 23.1591 54.1697 22.3011C54.1697 21.5625 54.3118 20.9545 54.5959 20.4773C54.88 20 55.2635 19.6222 55.7464 19.3438C56.2294 19.0653 56.7692 18.8551 57.3658 18.7131C57.9624 18.571 58.5703 18.4631 59.1896 18.3892C59.9737 18.2983 60.6101 18.2244 61.0987 18.1676C61.5874 18.1051 61.9425 18.0057 62.1641 17.8693C62.3857 17.733 62.4964 17.5114 62.4964 17.2045V17.1449C62.4964 16.4006 62.2862 15.8239 61.8658 15.4148C61.451 15.0057 60.8317 14.8011 60.0078 14.8011C59.1499 14.8011 58.4737 14.9915 57.9794 15.3722C57.4908 15.7472 57.1527 16.1648 56.9652 16.625L54.5703 16.0795C54.8544 15.2841 55.2692 14.642 55.8146 14.1534C56.3658 13.6591 56.9993 13.3011 57.7152 13.0795C58.4311 12.8523 59.1839 12.7386 59.9737 12.7386C60.4964 12.7386 61.0504 12.8011 61.6357 12.9261C62.2266 13.0455 62.7777 13.267 63.2891 13.5909C63.8061 13.9148 64.2294 14.3778 64.5589 14.9801C64.8885 15.5767 65.0533 16.3523 65.0533 17.3068V26H62.5646V24.2102H62.4624C62.2976 24.5398 62.0504 24.8636 61.7209 25.1818C61.3913 25.5 60.968 25.7642 60.451 25.9744C59.9339 26.1847 59.3146 26.2898 58.593 26.2898ZM59.147 24.2443C59.8516 24.2443 60.4538 24.1051 60.9538 23.8267C61.4595 23.5483 61.843 23.1847 62.1044 22.7358C62.3714 22.2812 62.505 21.7955 62.505 21.2784V19.5909C62.4141 19.6818 62.2379 19.767 61.9766 19.8466C61.7209 19.9205 61.4283 19.9858 61.0987 20.0426C60.7692 20.0937 60.4482 20.142 60.1357 20.1875C59.8232 20.2273 59.5618 20.2614 59.3516 20.2898C58.8572 20.3523 58.4055 20.4574 57.9964 20.6051C57.593 20.7528 57.2692 20.9659 57.0249 21.2443C56.7862 21.517 56.6669 21.8807 56.6669 22.3352C56.6669 22.9659 56.8999 23.4432 57.3658 23.767C57.8317 24.0852 58.4254 24.2443 59.147 24.2443ZM70.9957 18.2273V26H68.4474V12.9091H70.8935V15.0398H71.0554C71.3565 14.3466 71.8281 13.7898 72.4702 13.3693C73.1179 12.9489 73.9332 12.7386 74.9162 12.7386C75.8082 12.7386 76.5895 12.9261 77.2599 13.3011C77.9304 13.6705 78.4503 14.2216 78.8196 14.9545C79.1889 15.6875 79.3736 16.5937 79.3736 17.6733V26H76.8253V17.9801C76.8253 17.0312 76.5781 16.2898 76.0838 15.7557C75.5895 15.2159 74.9105 14.946 74.0469 14.946C73.456 14.946 72.9304 15.0739 72.4702 15.3295C72.0156 15.5852 71.6548 15.9602 71.3878 16.4545C71.1264 16.9432 70.9957 17.5341 70.9957 18.2273ZM87.6918 26.2557C86.6349 26.2557 85.6918 25.9858 84.8622 25.446C84.0384 24.9006 83.3906 24.125 82.919 23.1193C82.4531 22.108 82.2202 20.8949 82.2202 19.4801C82.2202 18.0653 82.456 16.8551 82.9276 15.8494C83.4048 14.8437 84.0582 14.0739 84.8878 13.5398C85.7173 13.0057 86.6577 12.7386 87.7088 12.7386C88.5213 12.7386 89.1747 12.875 89.669 13.1477C90.169 13.4148 90.5554 13.7273 90.8281 14.0852C91.1065 14.4432 91.3224 14.7585 91.4759 15.0312H91.6293V8.54545H94.1776V26H91.6889V23.9631H91.4759C91.3224 24.2415 91.1009 24.5597 90.8111 24.9176C90.527 25.2756 90.1349 25.5881 89.6349 25.8551C89.1349 26.1222 88.4872 26.2557 87.6918 26.2557ZM88.2543 24.0824C88.9872 24.0824 89.6065 23.8892 90.1122 23.5028C90.6236 23.1108 91.0099 22.5682 91.2713 21.875C91.5384 21.1818 91.6719 20.375 91.6719 19.4545C91.6719 18.5455 91.5412 17.75 91.2798 17.0682C91.0185 16.3864 90.6349 15.8551 90.1293 15.4744C89.6236 15.0937 88.9986 14.9034 88.2543 14.9034C87.4872 14.9034 86.848 15.1023 86.3366 15.5C85.8253 15.8977 85.4389 16.4403 85.1776 17.1278C84.9219 17.8153 84.794 18.5909 84.794 19.4545C84.794 20.3295 84.9247 21.1165 85.1861 21.8153C85.4474 22.5142 85.8338 23.0682 86.3452 23.4773C86.8622 23.8807 87.4986 24.0824 88.2543 24.0824ZM118.868 14.2216H116.209C116.107 13.6534 115.916 13.1534 115.638 12.7216C115.359 12.2898 115.018 11.9233 114.615 11.6222C114.212 11.321 113.76 11.0937 113.26 10.9403C112.766 10.7869 112.24 10.7102 111.683 10.7102C110.678 10.7102 109.777 10.9631 108.982 11.4688C108.192 11.9744 107.567 12.7159 107.107 13.6932C106.652 14.6705 106.425 15.8636 106.425 17.2727C106.425 18.6932 106.652 19.892 107.107 20.8693C107.567 21.8466 108.195 22.5852 108.99 23.0852C109.786 23.5852 110.68 23.8352 111.675 23.8352C112.226 23.8352 112.749 23.7614 113.243 23.6136C113.743 23.4602 114.195 23.2358 114.598 22.9403C115.001 22.6449 115.342 22.2841 115.621 21.858C115.905 21.4261 116.101 20.9318 116.209 20.375L118.868 20.3835C118.726 21.2415 118.45 22.0312 118.041 22.7528C117.638 23.4688 117.118 24.0881 116.482 24.6108C115.851 25.1278 115.129 25.5284 114.317 25.8125C113.504 26.0966 112.618 26.2386 111.658 26.2386C110.146 26.2386 108.8 25.8807 107.618 25.1648C106.436 24.4432 105.504 23.4119 104.822 22.071C104.146 20.7301 103.808 19.1307 103.808 17.2727C103.808 15.4091 104.149 13.8097 104.831 12.4744C105.513 11.1335 106.445 10.1051 107.626 9.3892C108.808 8.66761 110.152 8.30682 111.658 8.30682C112.584 8.30682 113.447 8.44034 114.249 8.70739C115.055 8.96875 115.78 9.35511 116.422 9.86648C117.064 10.3722 117.595 10.9915 118.016 11.7244C118.436 12.4517 118.72 13.2841 118.868 14.2216ZM130.107 20.571V12.9091H132.664V26H130.158V23.733H130.022C129.721 24.4318 129.238 25.0142 128.573 25.4801C127.914 25.9403 127.093 26.1705 126.11 26.1705C125.269 26.1705 124.525 25.9858 123.877 25.6165C123.235 25.2415 122.729 24.6875 122.36 23.9545C121.996 23.2216 121.815 22.3153 121.815 21.2358V12.9091H124.363V20.929C124.363 21.821 124.61 22.5312 125.104 23.0597C125.599 23.5881 126.241 23.8523 127.031 23.8523C127.508 23.8523 127.982 23.733 128.454 23.4943C128.931 23.2557 129.326 22.8949 129.638 22.4119C129.957 21.929 130.113 21.3153 130.107 20.571ZM138.636 8.54545V26H136.088V8.54545H138.636ZM148.175 12.9091V14.9545H141.025V12.9091H148.175ZM142.942 9.77273H145.491V22.1562C145.491 22.6506 145.565 23.0227 145.712 23.2727C145.86 23.517 146.05 23.6847 146.283 23.7756C146.522 23.8608 146.781 23.9034 147.059 23.9034C147.263 23.9034 147.442 23.8892 147.596 23.8608C147.749 23.8324 147.869 23.8097 147.954 23.7926L148.414 25.8977C148.266 25.9545 148.056 26.0114 147.783 26.0682C147.511 26.1307 147.17 26.1648 146.761 26.1705C146.09 26.1818 145.465 26.0625 144.886 25.8125C144.306 25.5625 143.837 25.1761 143.479 24.6534C143.121 24.1307 142.942 23.4744 142.942 22.6847V9.77273ZM159.287 20.571V12.9091H161.844V26H159.338V23.733H159.202C158.901 24.4318 158.418 25.0142 157.753 25.4801C157.094 25.9403 156.273 26.1705 155.29 26.1705C154.449 26.1705 153.705 25.9858 153.057 25.6165C152.415 25.2415 151.909 24.6875 151.54 23.9545C151.176 23.2216 150.994 22.3153 150.994 21.2358V12.9091H153.543V20.929C153.543 21.821 153.79 22.5312 154.284 23.0597C154.778 23.5881 155.42 23.8523 156.21 23.8523C156.688 23.8523 157.162 23.733 157.634 23.4943C158.111 23.2557 158.506 22.8949 158.818 22.4119C159.136 21.929 159.293 21.3153 159.287 20.571ZM165.268 26V12.9091H167.731V14.9886H167.867C168.106 14.2841 168.526 13.7301 169.129 13.3267C169.737 12.9176 170.424 12.7131 171.191 12.7131C171.35 12.7131 171.538 12.7187 171.754 12.7301C171.975 12.7415 172.148 12.7557 172.273 12.7727V15.2102C172.171 15.1818 171.989 15.1506 171.728 15.1165C171.467 15.0767 171.205 15.0568 170.944 15.0568C170.342 15.0568 169.805 15.1847 169.333 15.4403C168.867 15.6903 168.498 16.0398 168.225 16.4886C167.952 16.9318 167.816 17.4375 167.816 18.0057V26H165.268ZM179.652 26.2642C178.362 26.2642 177.251 25.9886 176.32 25.4375C175.393 24.8807 174.678 24.0994 174.172 23.0938C173.672 22.0824 173.422 20.8977 173.422 19.5398C173.422 18.1989 173.672 17.017 174.172 15.9943C174.678 14.9716 175.382 14.1733 176.286 13.5994C177.195 13.0256 178.257 12.7386 179.473 12.7386C180.212 12.7386 180.928 12.8608 181.621 13.1051C182.314 13.3494 182.936 13.733 183.487 14.2557C184.038 14.7784 184.473 15.4574 184.791 16.2926C185.109 17.1222 185.268 18.1307 185.268 19.3182V20.2216H174.862V18.3125H182.771C182.771 17.642 182.635 17.0483 182.362 16.5312C182.089 16.0085 181.706 15.5966 181.212 15.2955C180.723 14.9943 180.149 14.8438 179.49 14.8438C178.774 14.8438 178.149 15.0199 177.615 15.3722C177.087 15.7187 176.678 16.1733 176.388 16.7358C176.104 17.2926 175.962 17.8977 175.962 18.5511V20.0426C175.962 20.9176 176.115 21.6619 176.422 22.2756C176.734 22.8892 177.169 23.358 177.726 23.6818C178.283 24 178.933 24.1591 179.678 24.1591C180.161 24.1591 180.601 24.0909 180.999 23.9545C181.396 23.8125 181.74 23.6023 182.03 23.3239C182.32 23.0455 182.541 22.7017 182.695 22.2926L185.107 22.7273C184.913 23.4375 184.567 24.0597 184.067 24.5938C183.572 25.1222 182.95 25.5341 182.2 25.8295C181.456 26.1193 180.607 26.2642 179.652 26.2642Z" fill="white"/>
</svg>
