<svg width="321" height="35" viewBox="0 0 321 35" fill="none" xmlns="http://www.w3.org/2000/svg">
<rect width="321" height="35" fill="#E6BE5A"/>
<path d="M12.9176 26V8.54545H15.5511V16.1307H24.2528V8.54545H26.8949V26H24.2528V18.3892H15.5511V26H12.9176ZM34.3352 26.2898C33.5057 26.2898 32.7557 26.1364 32.0852 25.8295C31.4148 25.517 30.8835 25.0653 30.4915 24.4744C30.1051 23.8835 29.9119 23.1591 29.9119 22.3011C29.9119 21.5625 30.054 20.9545 30.3381 20.4773C30.6222 20 31.0057 19.6222 31.4886 19.3438C31.9716 19.0653 32.5114 18.8551 33.108 18.7131C33.7045 18.571 34.3125 18.4631 34.9318 18.3892C35.7159 18.2983 36.3523 18.2244 36.8409 18.1676C37.3295 18.1051 37.6847 18.0057 37.9062 17.8693C38.1278 17.733 38.2386 17.5114 38.2386 17.2045V17.1449C38.2386 16.4006 38.0284 15.8239 37.608 15.4148C37.1932 15.0057 36.5739 14.8011 35.75 14.8011C34.892 14.8011 34.2159 14.9915 33.7216 15.3722C33.233 15.7472 32.8949 16.1648 32.7074 16.625L30.3125 16.0795C30.5966 15.2841 31.0114 14.642 31.5568 14.1534C32.108 13.6591 32.7415 13.3011 33.4574 13.0795C34.1733 12.8523 34.9261 12.7386 35.7159 12.7386C36.2386 12.7386 36.7926 12.8011 37.3778 12.9261C37.9688 13.0455 38.5199 13.267 39.0312 13.5909C39.5483 13.9148 39.9716 14.3778 40.3011 14.9801C40.6307 15.5767 40.7955 16.3523 40.7955 17.3068V26H38.3068V24.2102H38.2045C38.0398 24.5398 37.7926 24.8636 37.4631 25.1818C37.1335 25.5 36.7102 25.7642 36.1932 25.9744C35.6761 26.1847 35.0568 26.2898 34.3352 26.2898ZM34.8892 24.2443C35.5938 24.2443 36.196 24.1051 36.696 23.8267C37.2017 23.5483 37.5852 23.1847 37.8466 22.7358C38.1136 22.2812 38.2472 21.7955 38.2472 21.2784V19.5909C38.1563 19.6818 37.9801 19.767 37.7188 19.8466C37.4631 19.9205 37.1705 19.9858 36.8409 20.0426C36.5114 20.0937 36.1903 20.142 35.8778 20.1875C35.5653 20.2273 35.304 20.2614 35.0938 20.2898C34.5994 20.3523 34.1477 20.4574 33.7386 20.6051C33.3352 20.7528 33.0114 20.9659 32.767 21.2443C32.5284 21.517 32.4091 21.8807 32.4091 22.3352C32.4091 22.9659 32.642 23.4432 33.108 23.767C33.5739 24.0852 34.1676 24.2443 34.8892 24.2443ZM44.3942 26V8.54545H46.9425V15.0312H47.0959C47.2436 14.7585 47.4567 14.4432 47.7351 14.0852C48.0135 13.7273 48.3999 13.4148 48.8942 13.1477C49.3885 12.875 50.0419 12.7386 50.8544 12.7386C51.9112 12.7386 52.8544 13.0057 53.6839 13.5398C54.5135 14.0739 55.1641 14.8437 55.6357 15.8494C56.1129 16.8551 56.3516 18.0653 56.3516 19.4801C56.3516 20.8949 56.1158 22.108 55.6442 23.1193C55.1726 24.125 54.5249 24.9006 53.701 25.446C52.8771 25.9858 51.9368 26.2557 50.88 26.2557C50.0845 26.2557 49.4339 26.1222 48.9283 25.8551C48.4283 25.5881 48.0362 25.2756 47.7521 24.9176C47.468 24.5597 47.2493 24.2415 47.0959 23.9631H46.8828V26H44.3942ZM46.8913 19.4545C46.8913 20.375 47.0249 21.1818 47.2919 21.875C47.5589 22.5682 47.9453 23.1108 48.451 23.5028C48.9567 23.8892 49.576 24.0824 50.3089 24.0824C51.0703 24.0824 51.7067 23.8807 52.218 23.4773C52.7294 23.0682 53.1158 22.5142 53.3771 21.8153C53.6442 21.1165 53.7777 20.3295 53.7777 19.4545C53.7777 18.5909 53.647 17.8153 53.3857 17.1278C53.13 16.4403 52.7436 15.8977 52.2266 15.5C51.7152 15.1023 51.076 14.9034 50.3089 14.9034C49.5703 14.9034 48.9453 15.0937 48.4339 15.4744C47.9283 15.8551 47.5447 16.3864 47.2834 17.0682C47.022 17.75 46.8913 18.5455 46.8913 19.4545ZM59.2131 26V12.9091H61.7614V26H59.2131ZM60.5 10.8892C60.0568 10.8892 59.6761 10.7415 59.358 10.446C59.0455 10.1449 58.8892 9.78693 58.8892 9.37216C58.8892 8.9517 59.0455 8.59375 59.358 8.29829C59.6761 7.99716 60.0568 7.84659 60.5 7.84659C60.9432 7.84659 61.321 7.99716 61.6335 8.29829C61.9517 8.59375 62.1108 8.9517 62.1108 9.37216C62.1108 9.78693 61.9517 10.1449 61.6335 10.446C61.321 10.7415 60.9432 10.8892 60.5 10.8892ZM67.7379 8.54545V26H65.1896V8.54545H67.7379ZM71.1662 26V12.9091H73.7145V26H71.1662ZM72.4531 10.8892C72.0099 10.8892 71.6293 10.7415 71.3111 10.446C70.9986 10.1449 70.8423 9.78693 70.8423 9.37216C70.8423 8.9517 70.9986 8.59375 71.3111 8.29829C71.6293 7.99716 72.0099 7.84659 72.4531 7.84659C72.8963 7.84659 73.2741 7.99716 73.5866 8.29829C73.9048 8.59375 74.0639 8.9517 74.0639 9.37216C74.0639 9.78693 73.9048 10.1449 73.5866 10.446C73.2741 10.7415 72.8963 10.8892 72.4531 10.8892ZM82.0433 26.2557C80.9865 26.2557 80.0433 25.9858 79.2138 25.446C78.3899 24.9006 77.7422 24.125 77.2706 23.1193C76.8047 22.108 76.5717 20.8949 76.5717 19.4801C76.5717 18.0653 76.8075 16.8551 77.2791 15.8494C77.7564 14.8437 78.4098 14.0739 79.2393 13.5398C80.0689 13.0057 81.0092 12.7386 82.0604 12.7386C82.8729 12.7386 83.5263 12.875 84.0206 13.1477C84.5206 13.4148 84.907 13.7273 85.1797 14.0852C85.4581 14.4432 85.674 14.7585 85.8274 15.0312H85.9808V8.54545H88.5291V26H86.0405V23.9631H85.8274C85.674 24.2415 85.4524 24.5597 85.1626 24.9176C84.8786 25.2756 84.4865 25.5881 83.9865 25.8551C83.4865 26.1222 82.8388 26.2557 82.0433 26.2557ZM82.6058 24.0824C83.3388 24.0824 83.9581 23.8892 84.4638 23.5028C84.9751 23.1108 85.3615 22.5682 85.6229 21.875C85.8899 21.1818 86.0234 20.375 86.0234 19.4545C86.0234 18.5455 85.8928 17.75 85.6314 17.0682C85.37 16.3864 84.9865 15.8551 84.4808 15.4744C83.9751 15.0937 83.3501 14.9034 82.6058 14.9034C81.8388 14.9034 81.1996 15.1023 80.6882 15.5C80.1768 15.8977 79.7905 16.4403 79.5291 17.1278C79.2734 17.8153 79.1456 18.5909 79.1456 19.4545C79.1456 20.3295 79.2763 21.1165 79.5376 21.8153C79.799 22.5142 80.1854 23.0682 80.6967 23.4773C81.2138 23.8807 81.8501 24.0824 82.6058 24.0824ZM95.9759 26.2898C95.1463 26.2898 94.3963 26.1364 93.7259 25.8295C93.0554 25.517 92.5241 25.0653 92.1321 24.4744C91.7457 23.8835 91.5526 23.1591 91.5526 22.3011C91.5526 21.5625 91.6946 20.9545 91.9787 20.4773C92.2628 20 92.6463 19.6222 93.1293 19.3438C93.6122 19.0653 94.152 18.8551 94.7486 18.7131C95.3452 18.571 95.9531 18.4631 96.5724 18.3892C97.3565 18.2983 97.9929 18.2244 98.4815 18.1676C98.9702 18.1051 99.3253 18.0057 99.5469 17.8693C99.7685 17.733 99.8793 17.5114 99.8793 17.2045V17.1449C99.8793 16.4006 99.669 15.8239 99.2486 15.4148C98.8338 15.0057 98.2145 14.8011 97.3906 14.8011C96.5327 14.8011 95.8565 14.9915 95.3622 15.3722C94.8736 15.7472 94.5355 16.1648 94.348 16.625L91.9531 16.0795C92.2372 15.2841 92.652 14.642 93.1974 14.1534C93.7486 13.6591 94.3821 13.3011 95.098 13.0795C95.8139 12.8523 96.5668 12.7386 97.3565 12.7386C97.8793 12.7386 98.4332 12.8011 99.0185 12.9261C99.6094 13.0455 100.161 13.267 100.672 13.5909C101.189 13.9148 101.612 14.3778 101.942 14.9801C102.271 15.5767 102.436 16.3523 102.436 17.3068V26H99.9474V24.2102H99.8452C99.6804 24.5398 99.4332 24.8636 99.1037 25.1818C98.7741 25.5 98.3509 25.7642 97.8338 25.9744C97.3168 26.1847 96.6974 26.2898 95.9759 26.2898ZM96.5298 24.2443C97.2344 24.2443 97.8366 24.1051 98.3366 23.8267C98.8423 23.5483 99.2259 23.1847 99.4872 22.7358C99.7543 22.2812 99.8878 21.7955 99.8878 21.2784V19.5909C99.7969 19.6818 99.6207 19.767 99.3594 19.8466C99.1037 19.9205 98.8111 19.9858 98.4815 20.0426C98.152 20.0937 97.831 20.142 97.5185 20.1875C97.206 20.2273 96.9446 20.2614 96.7344 20.2898C96.2401 20.3523 95.7884 20.4574 95.3793 20.6051C94.9759 20.7528 94.652 20.9659 94.4077 21.2443C94.169 21.517 94.0497 21.8807 94.0497 22.3352C94.0497 22.9659 94.2827 23.4432 94.7486 23.767C95.2145 24.0852 95.8082 24.2443 96.5298 24.2443ZM110.731 26.2557C109.674 26.2557 108.731 25.9858 107.901 25.446C107.077 24.9006 106.43 24.125 105.958 23.1193C105.492 22.108 105.259 20.8949 105.259 19.4801C105.259 18.0653 105.495 16.8551 105.967 15.8494C106.444 14.8437 107.097 14.0739 107.927 13.5398C108.756 13.0057 109.697 12.7386 110.748 12.7386C111.56 12.7386 112.214 12.875 112.708 13.1477C113.208 13.4148 113.594 13.7273 113.867 14.0852C114.146 14.4432 114.362 14.7585 114.515 15.0312H114.668V8.54545H117.217V26H114.728V23.9631H114.515C114.362 24.2415 114.14 24.5597 113.85 24.9176C113.566 25.2756 113.174 25.5881 112.674 25.8551C112.174 26.1222 111.526 26.2557 110.731 26.2557ZM111.293 24.0824C112.026 24.0824 112.646 23.8892 113.151 23.5028C113.663 23.1108 114.049 22.5682 114.31 21.875C114.577 21.1818 114.711 20.375 114.711 19.4545C114.711 18.5455 114.58 17.75 114.319 17.0682C114.058 16.3864 113.674 15.8551 113.168 15.4744C112.663 15.0937 112.038 14.9034 111.293 14.9034C110.526 14.9034 109.887 15.1023 109.376 15.5C108.864 15.8977 108.478 16.4403 108.217 17.1278C107.961 17.8153 107.833 18.5909 107.833 19.4545C107.833 20.3295 107.964 21.1165 108.225 21.8153C108.487 22.5142 108.873 23.0682 109.384 23.4773C109.901 23.8807 110.538 24.0824 111.293 24.0824ZM126.496 26.2642C125.206 26.2642 124.095 25.9886 123.163 25.4375C122.237 24.8807 121.521 24.0994 121.016 23.0938C120.516 22.0824 120.266 20.8977 120.266 19.5398C120.266 18.1989 120.516 17.017 121.016 15.9943C121.521 14.9716 122.226 14.1733 123.129 13.5994C124.038 13.0256 125.101 12.7386 126.317 12.7386C127.055 12.7386 127.771 12.8608 128.464 13.1051C129.158 13.3494 129.78 13.733 130.331 14.2557C130.882 14.7784 131.317 15.4574 131.635 16.2926C131.953 17.1222 132.112 18.1307 132.112 19.3182V20.2216H121.706V18.3125H129.615C129.615 17.642 129.479 17.0483 129.206 16.5312C128.933 16.0085 128.55 15.5966 128.055 15.2955C127.567 14.9943 126.993 14.8438 126.334 14.8438C125.618 14.8438 124.993 15.0199 124.459 15.3722C123.93 15.7187 123.521 16.1733 123.232 16.7358C122.947 17.2926 122.805 17.8977 122.805 18.5511V20.0426C122.805 20.9176 122.959 21.6619 123.266 22.2756C123.578 22.8892 124.013 23.358 124.57 23.6818C125.126 24 125.777 24.1591 126.521 24.1591C127.004 24.1591 127.445 24.0909 127.842 23.9545C128.24 23.8125 128.584 23.6023 128.874 23.3239C129.163 23.0455 129.385 22.7017 129.538 22.2926L131.95 22.7273C131.757 23.4375 131.411 24.0597 130.911 24.5938C130.416 25.1222 129.794 25.5341 129.044 25.8295C128.3 26.1193 127.45 26.2642 126.496 26.2642ZM144.749 16.1051L142.44 16.5142C142.343 16.2187 142.19 15.9375 141.979 15.6705C141.775 15.4034 141.496 15.1847 141.144 15.0142C140.792 14.8437 140.352 14.7585 139.823 14.7585C139.102 14.7585 138.499 14.9205 138.016 15.2443C137.533 15.5625 137.292 15.9744 137.292 16.4801C137.292 16.9176 137.454 17.2699 137.778 17.5369C138.102 17.804 138.624 18.0227 139.346 18.1932L141.425 18.6705C142.63 18.9489 143.528 19.3778 144.119 19.9574C144.71 20.5369 145.005 21.2898 145.005 22.2159C145.005 23 144.778 23.6989 144.323 24.3125C143.874 24.9205 143.246 25.3977 142.44 25.7443C141.638 26.0909 140.71 26.2642 139.653 26.2642C138.187 26.2642 136.991 25.9517 136.065 25.3267C135.138 24.696 134.57 23.8011 134.36 22.642L136.823 22.267C136.977 22.9091 137.292 23.3949 137.769 23.7244C138.246 24.0483 138.869 24.2102 139.636 24.2102C140.471 24.2102 141.138 24.0369 141.638 23.6903C142.138 23.3381 142.388 22.9091 142.388 22.4034C142.388 21.9943 142.235 21.6506 141.928 21.3722C141.627 21.0937 141.164 20.8835 140.539 20.7415L138.323 20.2557C137.102 19.9773 136.198 19.5341 135.613 18.9261C135.033 18.3182 134.744 17.5483 134.744 16.6165C134.744 15.8437 134.96 15.1676 135.391 14.5881C135.823 14.0085 136.42 13.5568 137.181 13.233C137.942 12.9034 138.815 12.7386 139.798 12.7386C141.212 12.7386 142.326 13.0455 143.138 13.6591C143.951 14.267 144.488 15.0824 144.749 16.1051ZM155.769 30.9091C155.388 30.9091 155.042 30.8778 154.729 30.8153C154.417 30.7585 154.184 30.696 154.031 30.6278L154.644 28.5398C155.11 28.6648 155.525 28.7188 155.888 28.7017C156.252 28.6847 156.573 28.5483 156.852 28.2926C157.136 28.0369 157.386 27.6193 157.602 27.0398L157.917 26.1705L153.127 12.9091H155.854L159.17 23.0682H159.306L162.621 12.9091H165.357L159.962 27.7472C159.712 28.429 159.394 29.0057 159.008 29.4773C158.621 29.9545 158.161 30.3125 157.627 30.5511C157.093 30.7898 156.474 30.9091 155.769 30.9091ZM175.834 8.54545L180.692 22.7614H180.888L185.746 8.54545H188.592L182.311 26H179.268L172.987 8.54545H175.834ZM193.429 26.2898C192.599 26.2898 191.849 26.1364 191.179 25.8295C190.509 25.517 189.977 25.0653 189.585 24.4744C189.199 23.8835 189.006 23.1591 189.006 22.3011C189.006 21.5625 189.148 20.9545 189.432 20.4773C189.716 20 190.099 19.6222 190.582 19.3438C191.065 19.0653 191.605 18.8551 192.202 18.7131C192.798 18.571 193.406 18.4631 194.026 18.3892C194.81 18.2983 195.446 18.2244 195.935 18.1676C196.423 18.1051 196.778 18.0057 197 17.8693C197.222 17.733 197.332 17.5114 197.332 17.2045V17.1449C197.332 16.4006 197.122 15.8239 196.702 15.4148C196.287 15.0057 195.668 14.8011 194.844 14.8011C193.986 14.8011 193.31 14.9915 192.815 15.3722C192.327 15.7472 191.989 16.1648 191.801 16.625L189.406 16.0795C189.69 15.2841 190.105 14.642 190.651 14.1534C191.202 13.6591 191.835 13.3011 192.551 13.0795C193.267 12.8523 194.02 12.7386 194.81 12.7386C195.332 12.7386 195.886 12.8011 196.472 12.9261C197.063 13.0455 197.614 13.267 198.125 13.5909C198.642 13.9148 199.065 14.3778 199.395 14.9801C199.724 15.5767 199.889 16.3523 199.889 17.3068V26H197.401V24.2102H197.298C197.134 24.5398 196.886 24.8636 196.557 25.1818C196.227 25.5 195.804 25.7642 195.287 25.9744C194.77 26.1847 194.151 26.2898 193.429 26.2898ZM193.983 24.2443C194.688 24.2443 195.29 24.1051 195.79 23.8267C196.295 23.5483 196.679 23.1847 196.94 22.7358C197.207 22.2812 197.341 21.7955 197.341 21.2784V19.5909C197.25 19.6818 197.074 19.767 196.812 19.8466C196.557 19.9205 196.264 19.9858 195.935 20.0426C195.605 20.0937 195.284 20.142 194.972 20.1875C194.659 20.2273 194.398 20.2614 194.188 20.2898C193.693 20.3523 193.241 20.4574 192.832 20.6051C192.429 20.7528 192.105 20.9659 191.861 21.2443C191.622 21.517 191.503 21.8807 191.503 22.3352C191.503 22.9659 191.736 23.4432 192.202 23.767C192.668 24.0852 193.261 24.2443 193.983 24.2443ZM205.832 8.54545V26H203.283V8.54545H205.832ZM214.774 26.2642C213.547 26.2642 212.476 25.983 211.561 25.4205C210.646 24.858 209.936 24.071 209.43 23.0597C208.925 22.0483 208.672 20.8665 208.672 19.5142C208.672 18.1562 208.925 16.9687 209.43 15.9517C209.936 14.9347 210.646 14.1449 211.561 13.5824C212.476 13.0199 213.547 12.7386 214.774 12.7386C216.001 12.7386 217.072 13.0199 217.987 13.5824C218.902 14.1449 219.612 14.9347 220.118 15.9517C220.624 16.9687 220.876 18.1562 220.876 19.5142C220.876 20.8665 220.624 22.0483 220.118 23.0597C219.612 24.071 218.902 24.858 217.987 25.4205C217.072 25.983 216.001 26.2642 214.774 26.2642ZM214.783 24.125C215.578 24.125 216.237 23.9148 216.76 23.4943C217.283 23.0739 217.669 22.5142 217.919 21.8153C218.175 21.1165 218.303 20.3466 218.303 19.5057C218.303 18.6705 218.175 17.9034 217.919 17.2045C217.669 16.5 217.283 15.9347 216.76 15.5085C216.237 15.0824 215.578 14.8693 214.783 14.8693C213.982 14.8693 213.317 15.0824 212.788 15.5085C212.266 15.9347 211.876 16.5 211.621 17.2045C211.371 17.9034 211.246 18.6705 211.246 19.5057C211.246 20.3466 211.371 21.1165 211.621 21.8153C211.876 22.5142 212.266 23.0739 212.788 23.4943C213.317 23.9148 213.982 24.125 214.783 24.125ZM223.721 26V12.9091H226.184V14.9886H226.32C226.559 14.2841 226.979 13.7301 227.582 13.3267C228.19 12.9176 228.877 12.7131 229.644 12.7131C229.803 12.7131 229.991 12.7187 230.207 12.7301C230.428 12.7415 230.602 12.7557 230.727 12.7727V15.2102C230.624 15.1818 230.442 15.1506 230.181 15.1165C229.92 15.0767 229.658 15.0568 229.397 15.0568C228.795 15.0568 228.258 15.1847 227.786 15.4403C227.32 15.6903 226.951 16.0398 226.678 16.4886C226.406 16.9318 226.269 17.4375 226.269 18.0057V26H223.721ZM238.105 26.2642C236.815 26.2642 235.705 25.9886 234.773 25.4375C233.847 24.8807 233.131 24.0994 232.625 23.0938C232.125 22.0824 231.875 20.8977 231.875 19.5398C231.875 18.1989 232.125 17.017 232.625 15.9943C233.131 14.9716 233.835 14.1733 234.739 13.5994C235.648 13.0256 236.71 12.7386 237.926 12.7386C238.665 12.7386 239.381 12.8608 240.074 13.1051C240.767 13.3494 241.389 13.733 241.94 14.2557C242.491 14.7784 242.926 15.4574 243.244 16.2926C243.563 17.1222 243.722 18.1307 243.722 19.3182V20.2216H233.315V18.3125H241.224C241.224 17.642 241.088 17.0483 240.815 16.5312C240.543 16.0085 240.159 15.5966 239.665 15.2955C239.176 14.9943 238.602 14.8438 237.943 14.8438C237.227 14.8438 236.602 15.0199 236.068 15.3722C235.54 15.7187 235.131 16.1733 234.841 16.7358C234.557 17.2926 234.415 17.8977 234.415 18.5511V20.0426C234.415 20.9176 234.568 21.6619 234.875 22.2756C235.188 22.8892 235.622 23.358 236.179 23.6818C236.736 24 237.386 24.1591 238.131 24.1591C238.614 24.1591 239.054 24.0909 239.452 23.9545C239.849 23.8125 240.193 23.6023 240.483 23.3239C240.773 23.0455 240.994 22.7017 241.148 22.2926L243.56 22.7273C243.366 23.4375 243.02 24.0597 242.52 24.5938C242.026 25.1222 241.403 25.5341 240.653 25.8295C239.909 26.1193 239.06 26.2642 238.105 26.2642ZM256.359 16.1051L254.049 16.5142C253.952 16.2187 253.799 15.9375 253.589 15.6705C253.384 15.4034 253.106 15.1847 252.754 15.0142C252.401 14.8437 251.961 14.7585 251.433 14.7585C250.711 14.7585 250.109 14.9205 249.626 15.2443C249.143 15.5625 248.901 15.9744 248.901 16.4801C248.901 16.9176 249.063 17.2699 249.387 17.5369C249.711 17.804 250.234 18.0227 250.955 18.1932L253.035 18.6705C254.239 18.9489 255.137 19.3778 255.728 19.9574C256.319 20.5369 256.614 21.2898 256.614 22.2159C256.614 23 256.387 23.6989 255.933 24.3125C255.484 24.9205 254.856 25.3977 254.049 25.7443C253.248 26.0909 252.319 26.2642 251.262 26.2642C249.796 26.2642 248.6 25.9517 247.674 25.3267C246.748 24.696 246.18 23.8011 245.969 22.642L248.433 22.267C248.586 22.9091 248.901 23.3949 249.379 23.7244C249.856 24.0483 250.478 24.2102 251.245 24.2102C252.08 24.2102 252.748 24.0369 253.248 23.6903C253.748 23.3381 253.998 22.9091 253.998 22.4034C253.998 21.9943 253.844 21.6506 253.538 21.3722C253.237 21.0937 252.773 20.8835 252.148 20.7415L249.933 20.2557C248.711 19.9773 247.808 19.5341 247.222 18.9261C246.643 18.3182 246.353 17.5483 246.353 16.6165C246.353 15.8437 246.569 15.1676 247.001 14.5881C247.433 14.0085 248.029 13.5568 248.79 13.233C249.552 12.9034 250.424 12.7386 251.407 12.7386C252.822 12.7386 253.935 13.0455 254.748 13.6591C255.56 14.267 256.097 15.0824 256.359 16.1051ZM267.498 8.54545L272.356 22.7614H272.552L277.41 8.54545H280.256L273.975 26H270.933L264.651 8.54545H267.498ZM285.411 8.54545V26H282.777V8.54545H285.411Z" fill="black"/>
</svg>
